<svg width="1121" height="30" viewBox="0 0 1121 30" fill="none" xmlns="http://www.w3.org/2000/svg">
<g clip-path="url(#clip0_341_665)">
<path d="M14.7573 4.95854L29.1886 0.78125L24.9778 15.0001L29.1886 29.1788L14.7573 25.0416L0.285156 29.1788L4.53687 15.0001L0.285156 0.78125L14.7573 4.95854Z" fill="white"/>
</g>
<path d="M40.1094 25.4725V2.91699H49.2268C50.6261 2.91699 51.8723 3.19625 52.9655 3.75477C54.0806 4.29181 54.9442 5.06514 55.5564 6.07477C56.1905 7.06292 56.5075 8.25514 56.5075 9.65144V10.0703C56.5075 11.4666 56.1796 12.6696 55.5236 13.6792C54.8896 14.6888 54.0259 15.4622 52.9327 15.9992C51.8395 16.5363 50.6042 16.8048 49.2268 16.8048H43.6514V25.4725H40.1094ZM43.6514 13.647H48.866C50.1123 13.647 51.1071 13.3248 51.8505 12.6803C52.5938 12.0359 52.9655 11.1551 52.9655 10.0381V9.71588C52.9655 8.57736 52.5938 7.68588 51.8505 7.04144C51.1071 6.39699 50.1123 6.07477 48.866 6.07477H43.6514V13.647Z" fill="white"/>
<path d="M67.0964 25.9237C65.4784 25.9237 64.0354 25.6014 62.7673 24.957C61.521 24.2911 60.5371 23.3459 59.8156 22.1214C59.0941 20.897 58.7333 19.447 58.7333 17.7714V17.2881C58.7333 15.6125 59.0941 14.1733 59.8156 12.9703C60.5371 11.7459 61.521 10.8007 62.7673 10.1348C64.0354 9.46884 65.4784 9.13588 67.0964 9.13588C68.7143 9.13588 70.1574 9.46884 71.4255 10.1348C72.6936 10.8007 73.6885 11.7459 74.41 12.9703C75.1315 14.1733 75.4923 15.6125 75.4923 17.2881V17.7714C75.4923 19.447 75.1315 20.897 74.41 22.1214C73.6885 23.3459 72.6936 24.2911 71.4255 24.957C70.1574 25.6014 68.7143 25.9237 67.0964 25.9237ZM67.0964 22.9592C68.5832 22.9592 69.7857 22.4974 70.704 21.5737C71.6441 20.6285 72.1142 19.3288 72.1142 17.6748V17.3848C72.1142 15.7307 71.6551 14.4418 70.7368 13.5181C69.8185 12.5729 68.605 12.1003 67.0964 12.1003C65.6315 12.1003 64.429 12.5729 63.4888 13.5181C62.5705 14.4418 62.1114 15.7307 62.1114 17.3848V17.6748C62.1114 19.3288 62.5705 20.6285 63.4888 21.5737C64.429 22.4974 65.6315 22.9592 67.0964 22.9592Z" fill="white"/>
<path d="M86.3227 25.9237C84.2675 25.9237 82.5621 25.4726 81.2065 24.5703C79.8509 23.6681 79.0201 22.304 78.714 20.4781L81.8624 19.737C82.0373 20.6177 82.3325 21.3159 82.7479 21.8314C83.1633 22.347 83.6772 22.7122 84.2894 22.927C84.9234 23.1418 85.6012 23.2492 86.3227 23.2492C87.3941 23.2492 88.214 23.0451 88.7825 22.637C89.3728 22.2288 89.668 21.7026 89.668 21.0581C89.668 20.4137 89.3946 19.9411 88.848 19.6403C88.3014 19.3396 87.4925 19.0926 86.4211 18.8992L85.306 18.7059C84.2128 18.5126 83.218 18.2333 82.3216 17.8681C81.4251 17.5029 80.7146 16.9981 80.1898 16.3537C79.6651 15.7092 79.4027 14.8822 79.4027 13.8725C79.4027 12.3688 79.9712 11.2088 81.1081 10.3925C82.245 9.55477 83.7537 9.13588 85.634 9.13588C87.4487 9.13588 88.9355 9.54403 90.0943 10.3603C91.275 11.1551 92.0402 12.24 92.3901 13.6148L89.2416 14.4848C89.0448 13.5181 88.6294 12.8414 87.9953 12.4548C87.3613 12.0466 86.5742 11.8425 85.634 11.8425C84.7157 11.8425 83.9942 12.0144 83.4694 12.3581C82.9447 12.6803 82.6823 13.1422 82.6823 13.7437C82.6823 14.3881 82.9338 14.8607 83.4367 15.1614C83.9614 15.4622 84.661 15.6877 85.5356 15.8381L86.6835 16.0314C87.8423 16.2248 88.9027 16.4933 89.8647 16.837C90.8268 17.1807 91.5811 17.6748 92.1277 18.3192C92.6961 18.9637 92.9804 19.8229 92.9804 20.897C92.9804 22.4866 92.3791 23.7218 91.1766 24.6025C89.9741 25.4833 88.3561 25.9237 86.3227 25.9237Z" fill="white"/>
<path d="M96.9288 25.4725V9.58699H100.307V25.4725H96.9288ZM98.6342 7.42811C97.9782 7.42811 97.4207 7.22403 96.9616 6.81588C96.5243 6.38625 96.3056 5.83847 96.3056 5.17255C96.3056 4.50662 96.5243 3.96959 96.9616 3.56144C97.4207 3.13181 97.9782 2.91699 98.6342 2.91699C99.312 2.91699 99.8695 3.13181 100.307 3.56144C100.744 3.96959 100.963 4.50662 100.963 5.17255C100.963 5.83847 100.744 6.38625 100.307 6.81588C99.8695 7.22403 99.312 7.42811 98.6342 7.42811Z" fill="white"/>
<path d="M111.387 25.4725C110.403 25.4725 109.616 25.1825 109.026 24.6025C108.458 24.0225 108.173 23.2492 108.173 22.2826V12.3903H103.713V9.58699H108.173V4.33477H111.551V9.58699H116.372V12.3903H111.551V21.7025C111.551 22.347 111.857 22.6692 112.47 22.6692H115.848V25.4725H111.387Z" fill="white"/>
<path d="M120.341 25.4725V9.58699H123.719V25.4725H120.341ZM122.046 7.42811C121.39 7.42811 120.833 7.22403 120.374 6.81588C119.936 6.38625 119.718 5.83847 119.718 5.17255C119.718 4.50662 119.936 3.96959 120.374 3.56144C120.833 3.13181 121.39 2.91699 122.046 2.91699C122.724 2.91699 123.282 3.13181 123.719 3.56144C124.156 3.96959 124.375 4.50662 124.375 5.17255C124.375 5.83847 124.156 6.38625 123.719 6.81588C123.282 7.22403 122.724 7.42811 122.046 7.42811Z" fill="white"/>
<path d="M132.471 25.4725L127.027 9.58699H130.602L134.898 23.0237H135.423L139.719 9.58699H143.294L137.85 25.4725H132.471Z" fill="white"/>
<path d="M152.77 25.7626C151.546 25.7626 150.453 25.494 149.491 24.957C148.528 24.42 147.774 23.6574 147.228 22.6692C146.681 21.6811 146.408 20.4996 146.408 19.1248V9.58699H149.786V18.8992C149.786 20.274 150.136 21.2944 150.835 21.9603C151.535 22.6048 152.508 22.927 153.754 22.927C155.131 22.927 156.236 22.4759 157.066 21.5737C157.919 20.65 158.346 19.3288 158.346 17.6103V9.58699H161.724V25.4725H158.411V23.0881H157.886C157.58 23.7326 157.034 24.3448 156.247 24.9248C155.459 25.4833 154.301 25.7626 152.77 25.7626Z" fill="white"/>
<path d="M173.342 25.9237C171.287 25.9237 169.581 25.4726 168.226 24.5703C166.87 23.6681 166.039 22.304 165.733 20.4781L168.882 19.737C169.056 20.6177 169.352 21.3159 169.767 21.8314C170.183 22.347 170.696 22.7122 171.309 22.927C171.943 23.1418 172.62 23.2492 173.342 23.2492C174.413 23.2492 175.233 23.0451 175.802 22.637C176.392 22.2288 176.687 21.7026 176.687 21.0581C176.687 20.4137 176.414 19.9411 175.867 19.6403C175.321 19.3396 174.512 19.0926 173.44 18.8992L172.325 18.7059C171.232 18.5126 170.237 18.2333 169.341 17.8681C168.444 17.5029 167.734 16.9981 167.209 16.3537C166.684 15.7092 166.422 14.8822 166.422 13.8725C166.422 12.3688 166.99 11.2088 168.127 10.3925C169.264 9.55477 170.773 9.13588 172.653 9.13588C174.468 9.13588 175.955 9.54403 177.113 10.3603C178.294 11.1551 179.059 12.24 179.409 13.6148L176.261 14.4848C176.064 13.5181 175.649 12.8414 175.014 12.4548C174.38 12.0466 173.593 11.8425 172.653 11.8425C171.735 11.8425 171.013 12.0144 170.489 12.3581C169.964 12.6803 169.702 13.1422 169.702 13.7437C169.702 14.3881 169.953 14.8607 170.456 15.1614C170.981 15.4622 171.68 15.6877 172.555 15.8381L173.703 16.0314C174.861 16.2248 175.922 16.4933 176.884 16.837C177.846 17.1807 178.6 17.6748 179.147 18.3192C179.715 18.9637 180 19.8229 180 20.897C180 22.4866 179.398 23.7218 178.196 24.6025C176.993 25.4833 175.375 25.9237 173.342 25.9237Z" fill="white"/>
<path d="M335.45 21.5L339.338 8.9H342.002L345.89 21.5H344.324L343.352 18.314H337.988L337.016 21.5H335.45ZM338.366 16.946H342.956L340.796 9.818H340.544L338.366 16.946ZM352.71 21.752C351.798 21.752 351.084 21.578 350.568 21.23C350.064 20.882 349.698 20.486 349.47 20.042H349.218V21.5H347.832V8.9H349.254V14.084H349.506C349.65 13.808 349.854 13.55 350.118 13.31C350.382 13.058 350.724 12.854 351.144 12.698C351.576 12.53 352.098 12.446 352.71 12.446C353.478 12.446 354.174 12.632 354.798 13.004C355.434 13.364 355.938 13.886 356.31 14.57C356.682 15.242 356.868 16.046 356.868 16.982V17.216C356.868 18.152 356.676 18.962 356.292 19.646C355.92 20.33 355.416 20.852 354.78 21.212C354.156 21.572 353.466 21.752 352.71 21.752ZM352.332 20.492C353.244 20.492 353.982 20.204 354.546 19.628C355.122 19.04 355.41 18.224 355.41 17.18V17.018C355.41 15.974 355.122 15.164 354.546 14.588C353.982 14 353.244 13.706 352.332 13.706C351.432 13.706 350.688 14 350.1 14.588C349.524 15.164 349.236 15.974 349.236 17.018V17.18C349.236 18.224 349.524 19.04 350.1 19.628C350.688 20.204 351.432 20.492 352.332 20.492ZM363.484 21.752C362.596 21.752 361.81 21.566 361.126 21.194C360.454 20.822 359.926 20.3 359.542 19.628C359.17 18.944 358.984 18.14 358.984 17.216V16.982C358.984 16.07 359.17 15.272 359.542 14.588C359.926 13.904 360.454 13.376 361.126 13.004C361.81 12.632 362.596 12.446 363.484 12.446C364.372 12.446 365.152 12.632 365.824 13.004C366.508 13.376 367.036 13.904 367.408 14.588C367.792 15.272 367.984 16.07 367.984 16.982V17.216C367.984 18.14 367.792 18.944 367.408 19.628C367.036 20.3 366.508 20.822 365.824 21.194C365.152 21.566 364.372 21.752 363.484 21.752ZM363.484 20.474C364.42 20.474 365.164 20.18 365.716 19.592C366.28 18.992 366.562 18.188 366.562 17.18V17.018C366.562 16.01 366.28 15.212 365.716 14.624C365.164 14.024 364.42 13.724 363.484 13.724C362.56 13.724 361.816 14.024 361.252 14.624C360.688 15.212 360.406 16.01 360.406 17.018V17.18C360.406 18.188 360.688 18.992 361.252 19.592C361.816 20.18 362.56 20.474 363.484 20.474ZM373.909 21.662C373.273 21.662 372.685 21.524 372.145 21.248C371.617 20.972 371.197 20.564 370.885 20.024C370.585 19.472 370.435 18.806 370.435 18.026V12.698H371.857V17.918C371.857 18.794 372.073 19.43 372.505 19.826C372.949 20.222 373.543 20.42 374.287 20.42C375.127 20.42 375.817 20.144 376.357 19.592C376.897 19.04 377.167 18.218 377.167 17.126V12.698H378.589V21.5H377.203V20.006H376.951C376.759 20.426 376.429 20.81 375.961 21.158C375.493 21.494 374.809 21.662 373.909 21.662ZM384.804 21.5C384.3 21.5 383.91 21.362 383.634 21.086C383.37 20.81 383.238 20.432 383.238 19.952V13.94H380.592V12.698H383.238V9.566H384.66V12.698H387.54V13.94H384.66V19.736C384.66 20.096 384.834 20.276 385.182 20.276H387.144V21.5H384.804ZM397.833 21.662C397.197 21.662 396.609 21.524 396.069 21.248C395.541 20.972 395.121 20.564 394.809 20.024C394.509 19.472 394.359 18.806 394.359 18.026V12.698H395.781V17.918C395.781 18.794 395.997 19.43 396.429 19.826C396.873 20.222 397.467 20.42 398.211 20.42C399.051 20.42 399.741 20.144 400.281 19.592C400.821 19.04 401.091 18.218 401.091 17.126V12.698H402.513V21.5H401.127V20.006H400.875C400.683 20.426 400.353 20.81 399.885 21.158C399.417 21.494 398.733 21.662 397.833 21.662ZM409.034 21.752C407.942 21.752 407.018 21.5 406.262 20.996C405.518 20.492 405.068 19.694 404.912 18.602L406.262 18.296C406.358 18.872 406.538 19.328 406.802 19.664C407.066 19.988 407.39 20.222 407.774 20.366C408.17 20.498 408.59 20.564 409.034 20.564C409.694 20.564 410.216 20.432 410.6 20.168C410.984 19.904 411.176 19.55 411.176 19.106C411.176 18.65 410.99 18.332 410.618 18.152C410.258 17.96 409.76 17.804 409.124 17.684L408.386 17.558C407.822 17.462 407.306 17.312 406.838 17.108C406.37 16.904 405.998 16.628 405.722 16.28C405.446 15.932 405.308 15.494 405.308 14.966C405.308 14.174 405.614 13.556 406.226 13.112C406.838 12.668 407.648 12.446 408.656 12.446C409.652 12.446 410.456 12.674 411.068 13.13C411.692 13.574 412.094 14.204 412.274 15.02L410.942 15.362C410.834 14.726 410.576 14.282 410.168 14.03C409.76 13.766 409.256 13.634 408.656 13.634C408.056 13.634 407.582 13.748 407.234 13.976C406.886 14.192 406.712 14.516 406.712 14.948C406.712 15.368 406.874 15.68 407.198 15.884C407.534 16.076 407.978 16.22 408.53 16.316L409.268 16.442C409.892 16.55 410.45 16.7 410.942 16.892C411.446 17.072 411.842 17.336 412.13 17.684C412.43 18.032 412.58 18.488 412.58 19.052C412.58 19.916 412.256 20.582 411.608 21.05C410.972 21.518 410.114 21.752 409.034 21.752Z" fill="white"/>
<path d="M335 23.75H413.48V24.65H335V23.75Z" fill="white"/>
<path d="M459.634 21.752C458.722 21.752 457.906 21.59 457.186 21.266C456.466 20.942 455.896 20.456 455.476 19.808C455.068 19.148 454.864 18.326 454.864 17.342V16.964H456.358V17.342C456.358 18.386 456.664 19.166 457.276 19.682C457.888 20.186 458.674 20.438 459.634 20.438C460.618 20.438 461.368 20.216 461.884 19.772C462.4 19.328 462.658 18.77 462.658 18.098C462.658 17.63 462.538 17.258 462.298 16.982C462.07 16.706 461.746 16.484 461.326 16.316C460.906 16.136 460.414 15.98 459.85 15.848L458.914 15.614C458.182 15.422 457.534 15.188 456.97 14.912C456.406 14.636 455.962 14.276 455.638 13.832C455.326 13.376 455.17 12.794 455.17 12.086C455.17 11.378 455.344 10.766 455.692 10.25C456.052 9.734 456.55 9.338 457.186 9.062C457.834 8.786 458.578 8.648 459.418 8.648C460.27 8.648 461.032 8.798 461.704 9.098C462.388 9.386 462.922 9.818 463.306 10.394C463.702 10.958 463.9 11.672 463.9 12.536V13.292H462.406V12.536C462.406 11.924 462.274 11.432 462.01 11.06C461.758 10.688 461.404 10.412 460.948 10.232C460.504 10.052 459.994 9.962 459.418 9.962C458.59 9.962 457.924 10.148 457.42 10.52C456.916 10.88 456.664 11.396 456.664 12.068C456.664 12.512 456.772 12.872 456.988 13.148C457.204 13.424 457.51 13.652 457.906 13.832C458.302 14 458.776 14.15 459.328 14.282L460.264 14.516C460.996 14.672 461.65 14.888 462.226 15.164C462.814 15.428 463.282 15.794 463.63 16.262C463.978 16.718 464.152 17.318 464.152 18.062C464.152 18.806 463.966 19.454 463.594 20.006C463.222 20.558 462.694 20.99 462.01 21.302C461.338 21.602 460.546 21.752 459.634 21.752ZM470.565 21.752C469.677 21.752 468.897 21.566 468.225 21.194C467.553 20.81 467.031 20.276 466.659 19.592C466.287 18.908 466.101 18.116 466.101 17.216V17C466.101 16.088 466.287 15.29 466.659 14.606C467.031 13.922 467.547 13.394 468.207 13.022C468.867 12.638 469.623 12.446 470.475 12.446C471.303 12.446 472.035 12.626 472.671 12.986C473.307 13.334 473.805 13.838 474.165 14.498C474.525 15.158 474.705 15.932 474.705 16.82V17.468H467.523C467.559 18.416 467.865 19.16 468.441 19.7C469.017 20.228 469.737 20.492 470.601 20.492C471.357 20.492 471.939 20.318 472.347 19.97C472.755 19.622 473.067 19.208 473.283 18.728L474.507 19.322C474.327 19.694 474.075 20.066 473.751 20.438C473.439 20.81 473.025 21.122 472.509 21.374C472.005 21.626 471.357 21.752 470.565 21.752ZM467.541 16.298H473.265C473.217 15.482 472.935 14.846 472.419 14.39C471.915 13.934 471.267 13.706 470.475 13.706C469.671 13.706 469.011 13.934 468.495 14.39C467.979 14.846 467.661 15.482 467.541 16.298ZM477.185 21.5V12.698H478.571V13.778H478.823C478.979 13.394 479.219 13.112 479.543 12.932C479.867 12.752 480.293 12.662 480.821 12.662H481.865V13.958H480.731C480.095 13.958 479.579 14.138 479.183 14.498C478.799 14.846 478.607 15.392 478.607 16.136V21.5H477.185ZM486.203 21.5L483.053 12.698H484.565L487.211 20.438H487.463L490.109 12.698H491.621L488.471 21.5H486.203ZM493.674 21.5V12.698H495.096V21.5H493.674ZM494.394 11.33C494.082 11.33 493.818 11.228 493.602 11.024C493.398 10.82 493.296 10.562 493.296 10.25C493.296 9.926 493.398 9.662 493.602 9.458C493.818 9.254 494.082 9.152 494.394 9.152C494.706 9.152 494.964 9.254 495.168 9.458C495.372 9.662 495.474 9.926 495.474 10.25C495.474 10.562 495.372 10.82 495.168 11.024C494.964 11.228 494.706 11.33 494.394 11.33ZM502.136 21.752C501.284 21.752 500.516 21.572 499.832 21.212C499.16 20.84 498.626 20.312 498.23 19.628C497.846 18.944 497.654 18.134 497.654 17.198V17C497.654 16.052 497.846 15.242 498.23 14.57C498.626 13.886 499.16 13.364 499.832 13.004C500.516 12.632 501.284 12.446 502.136 12.446C502.976 12.446 503.69 12.602 504.278 12.914C504.878 13.226 505.346 13.64 505.682 14.156C506.03 14.672 506.252 15.224 506.348 15.812L504.962 16.1C504.902 15.668 504.758 15.272 504.53 14.912C504.314 14.552 504.008 14.264 503.612 14.048C503.216 13.832 502.73 13.724 502.154 13.724C501.566 13.724 501.038 13.856 500.57 14.12C500.114 14.384 499.748 14.762 499.472 15.254C499.208 15.746 499.076 16.334 499.076 17.018V17.18C499.076 17.864 499.208 18.452 499.472 18.944C499.748 19.436 500.114 19.814 500.57 20.078C501.038 20.342 501.566 20.474 502.154 20.474C503.03 20.474 503.696 20.246 504.152 19.79C504.62 19.334 504.908 18.77 505.016 18.098L506.42 18.404C506.288 18.98 506.048 19.526 505.7 20.042C505.352 20.558 504.878 20.972 504.278 21.284C503.69 21.596 502.976 21.752 502.136 21.752ZM512.876 21.752C511.988 21.752 511.208 21.566 510.536 21.194C509.864 20.81 509.342 20.276 508.97 19.592C508.598 18.908 508.412 18.116 508.412 17.216V17C508.412 16.088 508.598 15.29 508.97 14.606C509.342 13.922 509.858 13.394 510.518 13.022C511.178 12.638 511.934 12.446 512.786 12.446C513.614 12.446 514.346 12.626 514.982 12.986C515.618 13.334 516.116 13.838 516.476 14.498C516.836 15.158 517.016 15.932 517.016 16.82V17.468H509.834C509.87 18.416 510.176 19.16 510.752 19.7C511.328 20.228 512.048 20.492 512.912 20.492C513.668 20.492 514.25 20.318 514.658 19.97C515.066 19.622 515.378 19.208 515.594 18.728L516.818 19.322C516.638 19.694 516.386 20.066 516.062 20.438C515.75 20.81 515.336 21.122 514.82 21.374C514.316 21.626 513.668 21.752 512.876 21.752ZM509.852 16.298H515.576C515.528 15.482 515.246 14.846 514.73 14.39C514.226 13.934 513.578 13.706 512.786 13.706C511.982 13.706 511.322 13.934 510.806 14.39C510.29 14.846 509.972 15.482 509.852 16.298ZM523.042 21.752C521.95 21.752 521.026 21.5 520.27 20.996C519.526 20.492 519.076 19.694 518.92 18.602L520.27 18.296C520.366 18.872 520.546 19.328 520.81 19.664C521.074 19.988 521.398 20.222 521.782 20.366C522.178 20.498 522.598 20.564 523.042 20.564C523.702 20.564 524.224 20.432 524.608 20.168C524.992 19.904 525.184 19.55 525.184 19.106C525.184 18.65 524.998 18.332 524.626 18.152C524.266 17.96 523.768 17.804 523.132 17.684L522.394 17.558C521.83 17.462 521.314 17.312 520.846 17.108C520.378 16.904 520.006 16.628 519.73 16.28C519.454 15.932 519.316 15.494 519.316 14.966C519.316 14.174 519.622 13.556 520.234 13.112C520.846 12.668 521.656 12.446 522.664 12.446C523.66 12.446 524.464 12.674 525.076 13.13C525.7 13.574 526.102 14.204 526.282 15.02L524.95 15.362C524.842 14.726 524.584 14.282 524.176 14.03C523.768 13.766 523.264 13.634 522.664 13.634C522.064 13.634 521.59 13.748 521.242 13.976C520.894 14.192 520.72 14.516 520.72 14.948C520.72 15.368 520.882 15.68 521.206 15.884C521.542 16.076 521.986 16.22 522.538 16.316L523.276 16.442C523.9 16.55 524.458 16.7 524.95 16.892C525.454 17.072 525.85 17.336 526.138 17.684C526.438 18.032 526.588 18.488 526.588 19.052C526.588 19.916 526.264 20.582 525.616 21.05C524.98 21.518 524.122 21.752 523.042 21.752Z" fill="white"/>
<path d="M454 23.75H527.488V24.65H454V23.75Z" fill="white"/>
<path d="M573.994 21.752C573.058 21.752 572.242 21.584 571.546 21.248C570.85 20.912 570.31 20.414 569.926 19.754C569.542 19.082 569.35 18.26 569.35 17.288V8.9H570.844V17.306C570.844 18.338 571.12 19.112 571.672 19.628C572.224 20.144 572.998 20.402 573.994 20.402C574.99 20.402 575.764 20.144 576.316 19.628C576.868 19.112 577.144 18.338 577.144 17.306V8.9H578.656V17.288C578.656 18.26 578.464 19.082 578.08 19.754C577.696 20.414 577.15 20.912 576.442 21.248C575.746 21.584 574.93 21.752 573.994 21.752ZM585.028 21.752C583.936 21.752 583.012 21.5 582.256 20.996C581.512 20.492 581.062 19.694 580.906 18.602L582.256 18.296C582.352 18.872 582.532 19.328 582.796 19.664C583.06 19.988 583.384 20.222 583.768 20.366C584.164 20.498 584.584 20.564 585.028 20.564C585.688 20.564 586.21 20.432 586.594 20.168C586.978 19.904 587.17 19.55 587.17 19.106C587.17 18.65 586.984 18.332 586.612 18.152C586.252 17.96 585.754 17.804 585.118 17.684L584.38 17.558C583.816 17.462 583.3 17.312 582.832 17.108C582.364 16.904 581.992 16.628 581.716 16.28C581.44 15.932 581.302 15.494 581.302 14.966C581.302 14.174 581.608 13.556 582.22 13.112C582.832 12.668 583.642 12.446 584.65 12.446C585.646 12.446 586.45 12.674 587.062 13.13C587.686 13.574 588.088 14.204 588.268 15.02L586.936 15.362C586.828 14.726 586.57 14.282 586.162 14.03C585.754 13.766 585.25 13.634 584.65 13.634C584.05 13.634 583.576 13.748 583.228 13.976C582.88 14.192 582.706 14.516 582.706 14.948C582.706 15.368 582.868 15.68 583.192 15.884C583.528 16.076 583.972 16.22 584.524 16.316L585.262 16.442C585.886 16.55 586.444 16.7 586.936 16.892C587.44 17.072 587.836 17.336 588.124 17.684C588.424 18.032 588.574 18.488 588.574 19.052C588.574 19.916 588.25 20.582 587.602 21.05C586.966 21.518 586.108 21.752 585.028 21.752ZM595.006 21.752C594.118 21.752 593.338 21.566 592.666 21.194C591.994 20.81 591.472 20.276 591.1 19.592C590.728 18.908 590.542 18.116 590.542 17.216V17C590.542 16.088 590.728 15.29 591.1 14.606C591.472 13.922 591.988 13.394 592.648 13.022C593.308 12.638 594.064 12.446 594.916 12.446C595.744 12.446 596.476 12.626 597.112 12.986C597.748 13.334 598.246 13.838 598.606 14.498C598.966 15.158 599.146 15.932 599.146 16.82V17.468H591.964C592 18.416 592.306 19.16 592.882 19.7C593.458 20.228 594.178 20.492 595.042 20.492C595.798 20.492 596.38 20.318 596.788 19.97C597.196 19.622 597.508 19.208 597.724 18.728L598.948 19.322C598.768 19.694 598.516 20.066 598.192 20.438C597.88 20.81 597.466 21.122 596.95 21.374C596.446 21.626 595.798 21.752 595.006 21.752ZM591.982 16.298H597.706C597.658 15.482 597.376 14.846 596.86 14.39C596.356 13.934 595.708 13.706 594.916 13.706C594.112 13.706 593.452 13.934 592.936 14.39C592.42 14.846 592.102 15.482 591.982 16.298ZM610.75 21.752C609.25 21.752 608.056 21.32 607.168 20.456C606.28 19.58 605.836 18.308 605.836 16.64V13.76C605.836 12.092 606.28 10.826 607.168 9.962C608.056 9.086 609.25 8.648 610.75 8.648C612.238 8.648 613.378 9.062 614.17 9.89C614.974 10.718 615.376 11.852 615.376 13.292V13.382H613.882V13.238C613.882 12.29 613.624 11.516 613.108 10.916C612.604 10.304 611.818 9.998 610.75 9.998C609.682 9.998 608.848 10.328 608.248 10.988C607.648 11.636 607.348 12.548 607.348 13.724V16.676C607.348 17.852 607.648 18.77 608.248 19.43C608.848 20.078 609.682 20.402 610.75 20.402C611.818 20.402 612.604 20.102 613.108 19.502C613.624 18.89 613.882 18.11 613.882 17.162V16.874H615.376V17.108C615.376 18.548 614.974 19.682 614.17 20.51C613.378 21.338 612.238 21.752 610.75 21.752ZM620.499 21.752C619.887 21.752 619.329 21.644 618.825 21.428C618.321 21.212 617.925 20.9 617.637 20.492C617.349 20.084 617.205 19.586 617.205 18.998C617.205 18.398 617.349 17.906 617.637 17.522C617.925 17.126 618.321 16.832 618.825 16.64C619.329 16.436 619.893 16.334 620.517 16.334H623.487V15.686C623.487 15.062 623.301 14.57 622.929 14.21C622.569 13.85 622.029 13.67 621.309 13.67C620.601 13.67 620.049 13.844 619.653 14.192C619.257 14.528 618.987 14.984 618.843 15.56L617.511 15.128C617.655 14.636 617.883 14.192 618.195 13.796C618.507 13.388 618.921 13.064 619.437 12.824C619.965 12.572 620.595 12.446 621.327 12.446C622.455 12.446 623.331 12.74 623.955 13.328C624.579 13.904 624.891 14.72 624.891 15.776V19.754C624.891 20.114 625.059 20.294 625.395 20.294H626.205V21.5H624.963C624.567 21.5 624.249 21.392 624.009 21.176C623.769 20.948 623.649 20.648 623.649 20.276V20.186H623.433C623.301 20.414 623.121 20.654 622.893 20.906C622.677 21.146 622.377 21.344 621.993 21.5C621.609 21.668 621.111 21.752 620.499 21.752ZM620.661 20.528C621.501 20.528 622.179 20.282 622.695 19.79C623.223 19.286 623.487 18.584 623.487 17.684V17.486H620.571C620.007 17.486 619.539 17.612 619.167 17.864C618.807 18.104 618.627 18.47 618.627 18.962C618.627 19.454 618.813 19.838 619.185 20.114C619.569 20.39 620.061 20.528 620.661 20.528ZM631.628 21.752C630.536 21.752 629.612 21.5 628.856 20.996C628.112 20.492 627.662 19.694 627.506 18.602L628.856 18.296C628.952 18.872 629.132 19.328 629.396 19.664C629.66 19.988 629.984 20.222 630.368 20.366C630.764 20.498 631.184 20.564 631.628 20.564C632.288 20.564 632.81 20.432 633.194 20.168C633.578 19.904 633.77 19.55 633.77 19.106C633.77 18.65 633.584 18.332 633.212 18.152C632.852 17.96 632.354 17.804 631.718 17.684L630.98 17.558C630.416 17.462 629.9 17.312 629.432 17.108C628.964 16.904 628.592 16.628 628.316 16.28C628.04 15.932 627.902 15.494 627.902 14.966C627.902 14.174 628.208 13.556 628.82 13.112C629.432 12.668 630.242 12.446 631.25 12.446C632.246 12.446 633.05 12.674 633.662 13.13C634.286 13.574 634.688 14.204 634.868 15.02L633.536 15.362C633.428 14.726 633.17 14.282 632.762 14.03C632.354 13.766 631.85 13.634 631.25 13.634C630.65 13.634 630.176 13.748 629.828 13.976C629.48 14.192 629.306 14.516 629.306 14.948C629.306 15.368 629.468 15.68 629.792 15.884C630.128 16.076 630.572 16.22 631.124 16.316L631.862 16.442C632.486 16.55 633.044 16.7 633.536 16.892C634.04 17.072 634.436 17.336 634.724 17.684C635.024 18.032 635.174 18.488 635.174 19.052C635.174 19.916 634.85 20.582 634.202 21.05C633.566 21.518 632.708 21.752 631.628 21.752ZM641.606 21.752C640.718 21.752 639.938 21.566 639.266 21.194C638.594 20.81 638.072 20.276 637.7 19.592C637.328 18.908 637.142 18.116 637.142 17.216V17C637.142 16.088 637.328 15.29 637.7 14.606C638.072 13.922 638.588 13.394 639.248 13.022C639.908 12.638 640.664 12.446 641.516 12.446C642.344 12.446 643.076 12.626 643.712 12.986C644.348 13.334 644.846 13.838 645.206 14.498C645.566 15.158 645.746 15.932 645.746 16.82V17.468H638.564C638.6 18.416 638.906 19.16 639.482 19.7C640.058 20.228 640.778 20.492 641.642 20.492C642.398 20.492 642.98 20.318 643.388 19.97C643.796 19.622 644.108 19.208 644.324 18.728L645.548 19.322C645.368 19.694 645.116 20.066 644.792 20.438C644.48 20.81 644.066 21.122 643.55 21.374C643.046 21.626 642.398 21.752 641.606 21.752ZM638.582 16.298H644.306C644.258 15.482 643.976 14.846 643.46 14.39C642.956 13.934 642.308 13.706 641.516 13.706C640.712 13.706 640.052 13.934 639.536 14.39C639.02 14.846 638.702 15.482 638.582 16.298ZM651.772 21.752C650.68 21.752 649.756 21.5 649 20.996C648.256 20.492 647.806 19.694 647.65 18.602L649 18.296C649.096 18.872 649.276 19.328 649.54 19.664C649.804 19.988 650.128 20.222 650.512 20.366C650.908 20.498 651.328 20.564 651.772 20.564C652.432 20.564 652.954 20.432 653.338 20.168C653.722 19.904 653.914 19.55 653.914 19.106C653.914 18.65 653.728 18.332 653.356 18.152C652.996 17.96 652.498 17.804 651.862 17.684L651.124 17.558C650.56 17.462 650.044 17.312 649.576 17.108C649.108 16.904 648.736 16.628 648.46 16.28C648.184 15.932 648.046 15.494 648.046 14.966C648.046 14.174 648.352 13.556 648.964 13.112C649.576 12.668 650.386 12.446 651.394 12.446C652.39 12.446 653.194 12.674 653.806 13.13C654.43 13.574 654.832 14.204 655.012 15.02L653.68 15.362C653.572 14.726 653.314 14.282 652.906 14.03C652.498 13.766 651.994 13.634 651.394 13.634C650.794 13.634 650.32 13.748 649.972 13.976C649.624 14.192 649.45 14.516 649.45 14.948C649.45 15.368 649.612 15.68 649.936 15.884C650.272 16.076 650.716 16.22 651.268 16.316L652.006 16.442C652.63 16.55 653.188 16.7 653.68 16.892C654.184 17.072 654.58 17.336 654.868 17.684C655.168 18.032 655.318 18.488 655.318 19.052C655.318 19.916 654.994 20.582 654.346 21.05C653.71 21.518 652.852 21.752 651.772 21.752Z" fill="white"/>
<path d="M568 23.75H656.218V24.65H568V23.75Z" fill="white"/>
<path d="M698.44 21.5V8.9H703.264C704.02 8.9 704.692 9.05 705.28 9.35C705.88 9.638 706.354 10.052 706.702 10.592C707.05 11.132 707.224 11.786 707.224 12.554V12.788C707.224 13.544 707.044 14.198 706.684 14.75C706.336 15.29 705.862 15.704 705.262 15.992C704.662 16.28 703.996 16.424 703.264 16.424H699.952V21.5H698.44ZM699.952 15.056H703.102C703.906 15.056 704.542 14.858 705.01 14.462C705.478 14.054 705.712 13.484 705.712 12.752V12.572C705.712 11.84 705.478 11.276 705.01 10.88C704.554 10.472 703.918 10.268 703.102 10.268H699.952V15.056ZM709.305 21.5V12.698H710.691V13.778H710.943C711.099 13.394 711.339 13.112 711.663 12.932C711.987 12.752 712.413 12.662 712.941 12.662H713.985V13.958H712.851C712.215 13.958 711.699 14.138 711.303 14.498C710.919 14.846 710.727 15.392 710.727 16.136V21.5H709.305ZM716.09 21.5V12.698H717.512V21.5H716.09ZM716.81 11.33C716.498 11.33 716.234 11.228 716.018 11.024C715.814 10.82 715.712 10.562 715.712 10.25C715.712 9.926 715.814 9.662 716.018 9.458C716.234 9.254 716.498 9.152 716.81 9.152C717.122 9.152 717.38 9.254 717.584 9.458C717.788 9.662 717.89 9.926 717.89 10.25C717.89 10.562 717.788 10.82 717.584 11.024C717.38 11.228 717.122 11.33 716.81 11.33ZM724.552 21.752C723.7 21.752 722.932 21.572 722.248 21.212C721.576 20.84 721.042 20.312 720.646 19.628C720.262 18.944 720.07 18.134 720.07 17.198V17C720.07 16.052 720.262 15.242 720.646 14.57C721.042 13.886 721.576 13.364 722.248 13.004C722.932 12.632 723.7 12.446 724.552 12.446C725.392 12.446 726.106 12.602 726.694 12.914C727.294 13.226 727.762 13.64 728.098 14.156C728.446 14.672 728.668 15.224 728.764 15.812L727.378 16.1C727.318 15.668 727.174 15.272 726.946 14.912C726.73 14.552 726.424 14.264 726.028 14.048C725.632 13.832 725.146 13.724 724.57 13.724C723.982 13.724 723.454 13.856 722.986 14.12C722.53 14.384 722.164 14.762 721.888 15.254C721.624 15.746 721.492 16.334 721.492 17.018V17.18C721.492 17.864 721.624 18.452 721.888 18.944C722.164 19.436 722.53 19.814 722.986 20.078C723.454 20.342 723.982 20.474 724.57 20.474C725.446 20.474 726.112 20.246 726.568 19.79C727.036 19.334 727.324 18.77 727.432 18.098L728.836 18.404C728.704 18.98 728.464 19.526 728.116 20.042C727.768 20.558 727.294 20.972 726.694 21.284C726.106 21.596 725.392 21.752 724.552 21.752ZM731.26 21.5V12.698H732.682V21.5H731.26ZM731.98 11.33C731.668 11.33 731.404 11.228 731.188 11.024C730.984 10.82 730.882 10.562 730.882 10.25C730.882 9.926 730.984 9.662 731.188 9.458C731.404 9.254 731.668 9.152 731.98 9.152C732.292 9.152 732.55 9.254 732.754 9.458C732.958 9.662 733.06 9.926 733.06 10.25C733.06 10.562 732.958 10.82 732.754 11.024C732.55 11.228 732.292 11.33 731.98 11.33ZM735.672 21.5V12.698H737.058V14.192H737.31C737.502 13.772 737.826 13.394 738.282 13.058C738.75 12.71 739.434 12.536 740.334 12.536C740.994 12.536 741.582 12.674 742.098 12.95C742.626 13.226 743.046 13.634 743.358 14.174C743.67 14.714 743.826 15.38 743.826 16.172V21.5H742.404V16.28C742.404 15.404 742.182 14.768 741.738 14.372C741.306 13.976 740.718 13.778 739.974 13.778C739.122 13.778 738.426 14.054 737.886 14.606C737.358 15.158 737.094 15.98 737.094 17.072V21.5H735.672ZM746.279 17.144V16.892C746.279 15.968 746.465 15.176 746.837 14.516C747.209 13.856 747.713 13.346 748.349 12.986C748.985 12.626 749.681 12.446 750.437 12.446C751.361 12.446 752.069 12.626 752.561 12.986C753.065 13.334 753.437 13.724 753.677 14.156H753.929V12.698H755.279V23.552C755.279 24.032 755.147 24.41 754.883 24.686C754.619 24.962 754.235 25.1 753.731 25.1H747.755V23.84H753.353C753.713 23.84 753.893 23.66 753.893 23.3V19.952H753.641C753.497 20.216 753.293 20.474 753.029 20.726C752.765 20.978 752.423 21.188 752.003 21.356C751.583 21.512 751.061 21.59 750.437 21.59C749.681 21.59 748.985 21.41 748.349 21.05C747.713 20.69 747.209 20.18 746.837 19.52C746.465 18.848 746.279 18.056 746.279 17.144ZM750.815 20.33C751.727 20.33 752.465 20.042 753.029 19.466C753.605 18.89 753.893 18.098 753.893 17.09V16.946C753.893 15.926 753.605 15.134 753.029 14.57C752.465 13.994 751.727 13.706 750.815 13.706C749.915 13.706 749.171 13.994 748.583 14.57C748.007 15.134 747.719 15.926 747.719 16.946V17.09C747.719 18.098 748.007 18.89 748.583 19.466C749.171 20.042 749.915 20.33 750.815 20.33Z" fill="white"/>
<path d="M697 23.75H756.773V24.65H697V23.75Z" fill="white"/>
<path d="M797.846 21.5V20.15H799.61V10.25H797.846V8.9H804.164C804.896 8.9 805.544 9.032 806.108 9.296C806.684 9.56 807.128 9.932 807.44 10.412C807.764 10.88 807.926 11.432 807.926 12.068V12.212C807.926 12.8 807.812 13.286 807.584 13.67C807.356 14.042 807.086 14.336 806.774 14.552C806.462 14.756 806.156 14.906 805.856 15.002V15.254C806.156 15.326 806.468 15.47 806.792 15.686C807.116 15.89 807.386 16.184 807.602 16.568C807.83 16.952 807.944 17.438 807.944 18.026V18.206C807.944 18.89 807.776 19.484 807.44 19.988C807.116 20.48 806.666 20.858 806.09 21.122C805.526 21.374 804.878 21.5 804.146 21.5H797.846ZM801.122 20.132H803.984C804.776 20.132 805.382 19.946 805.802 19.574C806.222 19.202 806.432 18.698 806.432 18.062V17.9C806.432 17.264 806.222 16.76 805.802 16.388C805.382 16.016 804.776 15.83 803.984 15.83H801.122V20.132ZM801.122 14.462H804.038C804.758 14.462 805.334 14.282 805.766 13.922C806.198 13.55 806.414 13.064 806.414 12.464V12.284C806.414 11.672 806.198 11.186 805.766 10.826C805.346 10.454 804.77 10.268 804.038 10.268H801.122V14.462ZM810.394 21.5V8.9H811.816V21.5H810.394ZM818.875 21.752C817.987 21.752 817.201 21.566 816.517 21.194C815.845 20.822 815.317 20.3 814.933 19.628C814.561 18.944 814.375 18.14 814.375 17.216V16.982C814.375 16.07 814.561 15.272 814.933 14.588C815.317 13.904 815.845 13.376 816.517 13.004C817.201 12.632 817.987 12.446 818.875 12.446C819.763 12.446 820.543 12.632 821.215 13.004C821.899 13.376 822.427 13.904 822.799 14.588C823.183 15.272 823.375 16.07 823.375 16.982V17.216C823.375 18.14 823.183 18.944 822.799 19.628C822.427 20.3 821.899 20.822 821.215 21.194C820.543 21.566 819.763 21.752 818.875 21.752ZM818.875 20.474C819.811 20.474 820.555 20.18 821.107 19.592C821.671 18.992 821.953 18.188 821.953 17.18V17.018C821.953 16.01 821.671 15.212 821.107 14.624C820.555 14.024 819.811 13.724 818.875 13.724C817.951 13.724 817.207 14.024 816.643 14.624C816.079 15.212 815.797 16.01 815.797 17.018V17.18C815.797 18.188 816.079 18.992 816.643 19.592C817.207 20.18 817.951 20.474 818.875 20.474ZM825.501 17.144V16.892C825.501 15.968 825.687 15.176 826.059 14.516C826.431 13.856 826.935 13.346 827.571 12.986C828.207 12.626 828.903 12.446 829.659 12.446C830.583 12.446 831.291 12.626 831.783 12.986C832.287 13.334 832.659 13.724 832.899 14.156H833.151V12.698H834.501V23.552C834.501 24.032 834.369 24.41 834.105 24.686C833.841 24.962 833.457 25.1 832.953 25.1H826.977V23.84H832.575C832.935 23.84 833.115 23.66 833.115 23.3V19.952H832.863C832.719 20.216 832.515 20.474 832.251 20.726C831.987 20.978 831.645 21.188 831.225 21.356C830.805 21.512 830.283 21.59 829.659 21.59C828.903 21.59 828.207 21.41 827.571 21.05C826.935 20.69 826.431 20.18 826.059 19.52C825.687 18.848 825.501 18.056 825.501 17.144ZM830.037 20.33C830.949 20.33 831.687 20.042 832.251 19.466C832.827 18.89 833.115 18.098 833.115 17.09V16.946C833.115 15.926 832.827 15.134 832.251 14.57C831.687 13.994 830.949 13.706 830.037 13.706C829.137 13.706 828.393 13.994 827.805 14.57C827.229 15.134 826.941 15.926 826.941 16.946V17.09C826.941 18.098 827.229 18.89 827.805 19.466C828.393 20.042 829.137 20.33 830.037 20.33Z" fill="white"/>
<path d="M797 23.75H835.995V24.65H797V23.75Z" fill="white"/>
<circle cx="1006" cy="15" r="15" fill="white"/>
<path d="M999.222 22.0586H1002.31V12.0742H999.222V22.0586Z" fill="black"/>
<path d="M998.941 8.88672C998.941 9.87109 999.736 10.668 1000.76 10.668C1001.75 10.668 1002.54 9.87109 1002.54 8.88672C1002.54 7.90234 1001.75 7.05859 1000.76 7.05859C999.736 7.05859 998.941 7.90234 998.941 8.88672Z" fill="black"/>
<path d="M1010.81 22.0586H1013.94V16.5742C1013.94 13.9023 1013.33 11.793 1010.2 11.793C1008.71 11.793 1007.68 12.6367 1007.26 13.4336H1007.21V12.0742H1004.27V22.0586H1007.35V17.1367C1007.35 15.8242 1007.59 14.5586 1009.22 14.5586C1010.81 14.5586 1010.81 16.0586 1010.81 17.1836V22.0586Z" fill="black"/>
<path d="M1071 15.0913C1071 6.75456 1064.29 0 1056 0C1047.71 0 1041 6.75456 1041 15.0913C1041 22.6369 1046.44 28.9047 1053.64 30V19.4726H1049.83V15.0913H1053.64V11.8053C1053.64 8.03245 1055.88 5.90264 1059.27 5.90264C1060.96 5.90264 1062.65 6.2069 1062.65 6.2069V9.91886H1060.78C1058.9 9.91886 1058.3 11.0751 1058.3 12.2921V15.0913H1062.47L1061.81 19.4726H1058.3V30C1065.5 28.9047 1071 22.6369 1071 15.0913Z" fill="white"/>
<circle cx="1106" cy="15" r="15" fill="white"/>
<path d="M1113 11.4915C1113.69 10.9745 1114.31 10.3541 1114.79 9.63028C1114.17 9.90602 1113.44 10.1128 1112.72 10.1818C1113.48 9.73369 1114.03 9.04435 1114.31 8.18267C1113.62 8.59628 1112.82 8.90648 1112.03 9.07881C1111.34 8.35501 1110.41 7.94141 1109.38 7.94141C1107.38 7.94141 1105.76 9.56135 1105.76 11.5604C1105.76 11.8362 1105.79 12.1119 1105.86 12.3876C1102.86 12.2153 1100.17 10.7677 1098.38 8.59628C1098.07 9.11328 1097.9 9.73369 1097.9 10.423C1097.9 11.6638 1098.52 12.7668 1099.52 13.4216C1098.93 13.3872 1098.35 13.2493 1097.87 12.9736V13.008C1097.87 14.7659 1099.11 16.2135 1100.76 16.5581C1100.48 16.6271 1100.14 16.696 1099.83 16.696C1099.59 16.696 1099.38 16.6615 1099.14 16.6271C1099.59 18.0747 1100.93 19.1087 1102.52 19.1432C1101.28 20.1082 1099.73 20.6942 1098.04 20.6942C1097.73 20.6942 1097.45 20.6597 1097.18 20.6252C1098.76 21.6592 1100.66 22.2452 1102.72 22.2452C1109.38 22.2452 1113 16.7649 1113 11.974C1113 11.8017 1113 11.6638 1113 11.4915Z" fill="black"/>
<defs>
<clipPath id="clip0_341_665">
<rect width="29.5167" height="29" fill="white" transform="translate(0 0.5)"/>
</clipPath>
</defs>
</svg>
