<svg width="1240" height="48" viewBox="0 0 1240 48" fill="none" xmlns="http://www.w3.org/2000/svg">
<g clip-path="url(#clip0_1909_153)">
<g style="mix-blend-mode:luminosity">
<path fill-rule="evenodd" clip-rule="evenodd" d="M76.6508 37.8069C69.4708 42.4973 59.0639 44.9998 50.1036 44.9998C37.54 44.9998 26.2295 40.8814 17.6726 34.0316C17.0003 33.493 17.6027 32.7589 18.4094 33.1784C27.644 37.9403 39.062 40.8051 50.8566 40.8051C58.8111 40.8051 67.5615 39.3465 75.6074 36.3196C76.8229 35.862 77.8394 37.0251 76.6508 37.8069Z" fill="#FF9900"/>
<path fill-rule="evenodd" clip-rule="evenodd" d="M79.6361 34.78C78.7217 33.7409 73.5694 34.2891 71.2567 34.5322C70.5522 34.6084 70.4446 34.065 71.0792 33.6741C75.1829 31.1144 81.9164 31.8533 82.7017 32.7113C83.4869 33.574 82.4973 39.5563 78.6411 42.4115C78.0495 42.8501 77.4848 42.6165 77.7483 42.035C78.6142 40.1187 80.5557 35.8239 79.6361 34.78Z" fill="#FF9900"/>
<path fill-rule="evenodd" clip-rule="evenodd" d="M71.4184 15.6037V13.1155C71.4184 12.7389 71.7411 12.4863 72.1284 12.4863H84.6974C85.1008 12.4863 85.4235 12.7437 85.4235 13.1155V15.2462C85.4181 15.6037 85.0793 16.0709 84.4769 16.8097L77.9638 25.0514C80.384 24.9989 82.9387 25.3183 85.133 26.4146C85.6278 26.6625 85.7623 27.0248 85.8 27.3823V30.0374C85.8 30.3996 85.3482 30.8239 84.8749 30.6046C81.0079 28.8075 75.8717 28.6121 71.5959 30.6237C71.1603 30.8334 70.7031 30.4139 70.7031 30.0517V27.5301C70.7031 27.1249 70.7085 26.4337 71.1657 25.8188L78.7114 16.2282H72.1445C71.7411 16.2282 71.4184 15.9755 71.4184 15.6037Z" fill="black"/>
<path fill-rule="evenodd" clip-rule="evenodd" d="M25.5675 31.129H21.7435C21.3778 31.1051 21.0874 30.862 21.0605 30.5522V13.1584C21.0605 12.8105 21.3886 12.534 21.7973 12.534H25.3631C25.7342 12.5483 26.03 12.8009 26.0569 13.1155V15.3893H26.1268C27.0573 13.1918 28.8052 12.167 31.1609 12.167C33.5542 12.167 35.0494 13.1918 36.125 15.3893C37.0501 13.1918 39.153 12.167 41.4065 12.167C43.0092 12.167 44.7626 12.7533 45.8328 14.0689C47.043 15.5323 46.7955 17.6582 46.7955 19.522L46.7902 30.4998C46.7902 30.8477 46.4621 31.129 46.0534 31.129H42.2348C41.8529 31.1051 41.5464 30.8334 41.5464 30.4998V21.2809C41.5464 20.5469 41.6216 18.7164 41.4388 18.0205C41.1537 16.8527 40.2986 16.5237 39.1907 16.5237C38.2656 16.5237 37.2975 17.0719 36.9049 17.949C36.5123 18.8261 36.5499 20.2942 36.5499 21.2809V30.4998C36.5499 30.8477 36.2219 31.129 35.8131 31.129H31.9945C31.6073 31.1051 31.3061 30.8334 31.3061 30.4998L31.3007 21.2809C31.3007 19.3409 31.6611 16.4856 28.945 16.4856C26.1967 16.4856 26.3043 19.2694 26.3043 21.2809V30.4998C26.3043 30.8477 25.9762 31.129 25.5675 31.129Z" fill="black"/>
<path fill-rule="evenodd" clip-rule="evenodd" d="M96.2439 12.167C101.918 12.167 104.989 16.4856 104.989 21.9769C104.989 27.2822 101.596 31.4912 96.2439 31.4912C90.672 31.4912 87.6387 27.1726 87.6387 21.791C87.6387 16.376 90.7097 12.167 96.2439 12.167ZM96.2762 15.7182C93.458 15.7182 93.2805 19.1216 93.2805 21.2428C93.2805 23.3687 93.2428 27.9067 96.2439 27.9067C99.2074 27.9067 99.3472 24.2458 99.3472 22.015C99.3472 20.5469 99.2773 18.7927 98.7771 17.4008C98.3468 16.1901 97.4917 15.7182 96.2762 15.7182Z" fill="black"/>
<path fill-rule="evenodd" clip-rule="evenodd" d="M112.348 31.129H108.54C108.158 31.1051 107.852 30.8334 107.852 30.4998L107.846 13.1012C107.879 12.7819 108.196 12.534 108.583 12.534H112.127C112.461 12.5483 112.735 12.7485 112.81 13.0202V15.68H112.88C113.951 13.3014 115.451 12.167 118.092 12.167C119.808 12.167 121.48 12.7151 122.556 14.2167C123.556 15.6085 123.556 17.949 123.556 19.6316V30.5808C123.513 30.8859 123.196 31.129 122.819 31.129H118.985C118.635 31.1051 118.345 30.8763 118.307 30.5808V21.1332C118.307 19.2312 118.554 16.4475 115.914 16.4475C114.983 16.4475 114.128 17.0004 113.703 17.8394C113.165 18.9023 113.096 19.9606 113.096 21.1332V30.4998C113.09 30.8477 112.757 31.129 112.348 31.129Z" fill="black"/>
<path fill-rule="evenodd" clip-rule="evenodd" d="M61.3984 22.8204C61.3984 24.1408 61.4361 25.2419 60.6831 26.4146C60.0754 27.3679 59.1073 27.9542 58.037 27.9542C56.5687 27.9542 55.7082 26.9627 55.7082 25.4993C55.7082 22.6107 58.6286 22.0864 61.3984 22.0864V22.8204ZM65.2547 31.0812C65.0019 31.2814 64.6362 31.2957 64.3511 31.1622C63.0818 30.2279 62.8506 29.7942 62.1568 28.9028C60.0592 30.7999 58.5695 31.3672 55.8534 31.3672C52.6318 31.3672 50.1309 29.6083 50.1309 26.0857C50.1309 23.3353 51.809 21.4619 54.2077 20.5467C56.2837 19.7364 59.1826 19.5934 61.3984 19.3693V18.9308C61.3984 18.1252 61.4684 17.1719 60.9305 16.476C60.468 15.8515 59.5752 15.5941 58.7846 15.5941C57.3271 15.5941 56.0309 16.2567 55.7136 17.6295C55.6491 17.9346 55.3963 18.2349 55.0467 18.2492L51.3411 17.8964C51.0291 17.8345 50.6795 17.6104 50.771 17.1862C51.6207 13.2012 55.6867 12 59.3224 12C61.1833 12 63.6143 12.4385 65.0826 13.6874C66.9434 15.2271 66.766 17.2815 66.766 19.5171V24.7986C66.766 26.386 67.5082 27.0819 68.2073 27.9399C68.4494 28.245 68.5031 28.612 68.1912 28.8408C67.4113 29.4176 66.0237 30.4901 65.26 31.0907L65.2547 31.0812Z" fill="black"/>
<path fill-rule="evenodd" clip-rule="evenodd" d="M11.2675 22.8204C11.2675 24.1408 11.3051 25.2419 10.5522 26.4145C9.94443 27.3679 8.98172 27.9542 7.90606 27.9542C6.43779 27.9542 5.58265 26.9627 5.58265 25.4993C5.58265 22.6107 8.50305 22.0864 11.2675 22.0864V22.8204ZM15.1237 31.0812C14.8709 31.2814 14.5052 31.2957 14.2202 31.1622C12.9509 30.2279 12.725 29.7941 12.0258 28.9028C9.92829 30.7999 8.44389 31.3672 5.72248 31.3672C2.50627 31.3672 0 29.6082 0 26.0856C0 23.3352 1.6834 21.4619 4.07673 20.5467C6.15275 19.7364 9.05164 19.5934 11.2675 19.3693V18.9308C11.2675 18.1252 11.3374 17.1719 10.805 16.4759C10.337 15.8515 9.44425 15.5941 8.65902 15.5941C7.20151 15.5941 5.89997 16.2567 5.58265 17.6295C5.51811 17.9346 5.26533 18.2349 4.92112 18.2492L1.21011 17.8964C0.898171 17.8345 0.553961 17.6104 0.640014 17.1862C1.49516 13.2012 5.55576 12 9.19147 12C11.0524 12 13.4833 12.4385 14.9516 13.6874C16.8125 15.2271 16.635 17.2815 16.635 19.5171V24.7986C16.635 26.3859 17.3772 27.0819 18.0764 27.9399C18.3238 28.245 18.3776 28.612 18.0656 28.8408C17.2858 29.4176 15.8982 30.4901 15.1345 31.0907L15.1237 31.0812Z" fill="black"/>
</g>
<mask id="mask0_1909_153" style="mask-type:luminance" maskUnits="userSpaceOnUse" x="220" y="0" width="127" height="48">
<path d="M346.387 0H220.018V48H346.387V0Z" fill="white"/>
</mask>
<g mask="url(#mask0_1909_153)">
<g style="mix-blend-mode:luminosity">
<path fill-rule="evenodd" clip-rule="evenodd" d="M345.59 30.5633C340.335 38.4606 332.011 36.1691 329.512 34.3749C328.448 35.0147 326.582 36.417 324.095 36.255C318.797 35.9104 316.9 29.2007 316.9 29.2007C316.938 29.2275 315.322 29.6949 314.448 29.6866C314.437 31.6542 312.518 36.3546 307.339 36.2945C301.527 36.2273 300.345 28.5531 300.345 28.5531C300.345 28.5531 299.767 29.2649 297.568 29.9739C297.678 28.4622 297.598 36.0644 290.632 36.1761C285.125 36.2646 283.638 28.4348 283.638 28.4348C283.638 28.4348 282.683 29.3143 280.831 29.6194C280.949 28.0831 280.758 36.2019 273.791 36.1761C269.083 36.1588 267.474 31.353 267.599 30.686C267.759 29.8359 266.008 36.2957 261.435 36.195C259.548 36.1459 258.141 34.9349 257.258 33.3204C256.076 34.5189 254.36 36.195 252.435 36.195C248.98 36.195 247.457 33.6337 247.715 26.3179C247.737 25.4502 247.666 25.109 246.693 24.9792C246.109 24.8928 245.511 24.7292 244.878 24.643C244.675 25.243 242.954 35.9998 237.037 36.204C235.052 36.2725 233.967 34.7485 233.075 33.6174C231.709 35.2194 229.905 36.255 227.336 36.255C222.983 36.255 220.018 33.1365 220.018 29.2895C220.018 25.4425 222.983 22.3242 227.336 22.3242C228.105 22.3242 228.321 22.422 229.024 22.6038C227.579 10.9365 230.993 9.11303 233.98 9.11303C236.848 9.11303 241.747 15.012 234.853 29.9751C236.384 34.4381 239.683 34.1857 241.269 24.9982C241.592 23.1307 240.729 20.6105 242.071 20.2588C244.524 19.616 244.784 21.5446 245.935 21.866C247.151 22.2056 247.861 22.1724 249.029 22.3885C251.024 22.7339 251.802 23.6838 251.559 25.7996C251.267 28.4767 250.757 32.3732 252.314 32.8481C253.437 33.1931 255.487 31.1293 255.846 30.0001C256.206 28.871 256.281 28.4845 256.313 27.6563C256.362 25.8861 256.423 24.5886 256.763 23.2499C256.909 22.7319 257.075 22.3888 257.736 22.3654C258.281 22.3531 259.276 22.2079 259.714 22.51C260.297 22.8988 260.225 23.2933 260.157 24.3316C259.479 39.1353 264.704 31.7452 266.263 25.8279C265.708 19.1369 266.089 9.23555 270.82 9.06949C273.28 8.98313 274.368 10.7301 274.487 12.034C274.826 15.7168 272.93 21.8172 270.437 25.9197C269.012 34.2907 276.667 35.9459 277.891 29.2642C275.888 28.4202 273.724 25.0044 275.485 23.3397C276.473 22.4055 280.587 23.7476 280.654 26.6748C282.672 26.1965 282.942 25.1867 282.97 25.354C282.415 18.663 282.93 9.23564 287.661 9.06957C290.121 8.98321 291.208 10.7301 291.328 12.0341C291.666 15.7168 289.771 21.8173 287.278 25.9199C285.853 34.2907 293.508 35.946 294.732 29.2643C293.249 29.0107 290.119 25.3775 291.925 23.3398C292.89 22.2509 296.989 24.5154 297.447 26.7717C299.386 26.2855 299.649 25.3078 299.677 25.4724C299.122 18.7816 299.637 9.35422 304.368 9.18815C306.828 9.10179 307.915 10.8487 308.035 12.1527C308.374 15.8354 306.478 21.936 303.985 26.0385C302.56 34.4095 310.215 36.0644 311.439 29.3827C309.401 29.082 306.505 25.2458 308.836 23.2833C309.767 22.4992 313.325 24.5346 314.158 26.8568C315.315 26.8173 316.036 26.4636 316.19 26.4279C314.343 18.573 315.718 9.14836 320.807 9.06969C323.558 9.02721 326.248 10.3877 325.067 17.8606C323.94 24.9906 319.89 27.9827 319.9 28.0285C320.135 28.8827 322.214 36.0312 327.447 32.2594C327.176 31.7157 326.905 31.1603 326.753 30.4874C325.886 26.5677 327.59 22.1404 332.221 21.4249C334.874 21.0149 337.374 22.1598 337.769 24.741C338.419 28.9645 334.116 32.0233 332.48 32.6868C331.747 32.3178 339.123 36.5107 343.501 28.108C343.755 27.6282 344.061 27.6689 344.457 27.9162C344.737 28.0908 346.332 29.4299 345.59 30.5633ZM230.502 28.2517C230.279 27.6615 229.822 26.361 229.66 25.7976C228.77 25.1114 228.135 25 226.992 25C224.453 25 222.958 27.0809 222.958 29.3247C222.958 31.5684 224.586 33.6496 227.126 33.6496C229.326 33.6496 231.001 32.3235 231.512 30.4462C231.155 29.7143 230.8 29.0417 230.502 28.2517ZM233.918 12.2015C232.134 12.2015 231.528 15.974 231.646 19.1924C231.75 22.0378 232.647 24.5428 233.112 25.6653C233.23 25.8059 233.208 25.7144 233.314 25.8636C236.412 19.8472 235.127 12.2015 233.918 12.2015ZM271.074 12.32C268.768 12.0855 268.783 20.6001 269.069 22.51C270.267 20.8118 272.348 12.7772 271.074 12.32ZM287.915 12.32C285.609 12.0855 285.624 20.6001 285.91 22.51C287.108 20.8118 289.189 12.7772 287.915 12.32ZM304.622 12.4384C302.316 12.204 302.331 20.7186 302.617 22.6287C303.815 20.9303 305.896 12.8956 304.622 12.4384ZM321.062 11.8215C317.469 12.461 318.306 23.0789 318.851 24.9412C323.084 19.789 323.171 11.628 321.062 11.8215ZM334.528 25.0903C334.346 24.4133 333.432 24.0515 332.802 24.1407C330.997 24.359 329.248 26.3505 329.925 29.3824C330.076 30.0576 330.453 30.6792 330.447 30.6585C334.485 28.2577 334.828 26.3659 334.528 25.0903ZM258.444 20.0218C257.928 20.0219 257.424 19.8864 256.995 19.6326C256.566 19.3787 256.232 19.0179 256.035 18.5957C255.837 18.1735 255.786 17.7089 255.886 17.2607C255.987 16.8124 256.235 16.4007 256.6 16.0775C256.964 15.7543 257.429 15.5342 257.935 15.4451C258.44 15.3559 258.965 15.4016 259.441 15.5765C259.917 15.7514 260.324 16.0476 260.611 16.4276C260.897 16.8076 261.05 17.2544 261.05 17.7114C261.05 18.0148 260.983 18.3152 260.852 18.5955C260.721 18.8758 260.529 19.1305 260.287 19.345C260.045 19.5596 259.758 19.7298 259.441 19.8459C259.125 19.962 258.786 20.0218 258.444 20.0218Z" fill="#0D0C22"/>
</g>
</g>
<mask id="mask1_1909_153" style="mask-type:luminance" maskUnits="userSpaceOnUse" x="442" y="0" width="129" height="48">
<path d="M570.919 0H442.293V48H570.919V0Z" fill="white"/>
</mask>
<g mask="url(#mask1_1909_153)">
<g style="mix-blend-mode:luminosity">
<path d="M456.181 13.1064V22.1942H446.764V13.1064H442.293V34.7997H446.764V26.0071H456.181V34.7997H460.651V13.1064H456.181Z" fill="#33475B"/>
<path d="M474.96 27.7867C474.96 28.6561 474.57 29.4899 473.876 30.1047C473.183 30.7194 472.242 31.0648 471.261 31.0648C470.28 31.0648 469.339 30.7194 468.646 30.1047C467.952 29.4899 467.562 28.6561 467.562 27.7867V18.4951H463.322V27.7867C463.322 29.6511 464.157 31.4392 465.645 32.7576C467.132 34.0759 469.15 34.8166 471.253 34.8166C473.357 34.8166 475.375 34.0759 476.862 32.7576C478.349 31.4392 479.185 29.6511 479.185 27.7867V18.4951H474.96V27.7867Z" fill="#33475B"/>
<path d="M506.381 19.4528C506.381 17.5483 507.803 16.9445 509.36 16.9445C510.615 16.9445 512.273 17.791 513.358 18.818L516.135 15.9175C514.749 14.2557 511.936 13.1064 509.634 13.1064C505.034 13.1064 501.707 15.4943 501.707 19.4528C501.707 26.7972 511.835 24.4675 511.835 28.5774C511.835 29.8452 510.447 30.9654 508.856 30.9654C506.348 30.9654 505.536 29.8782 504.383 28.7289L501.301 31.5692C503.273 33.7144 505.704 34.8035 508.618 34.8035C512.988 34.8035 516.503 32.3865 516.503 28.6085C516.503 20.4546 506.375 22.9881 506.375 19.4528" fill="#33475B"/>
<path d="M569.042 31.3339C566.536 31.3339 565.824 30.3729 565.824 28.9013V22.3879H569.719V19.0875H565.824V14.7329L561.525 16.4433V29.7109C561.525 33.1045 564.166 34.8148 567.789 34.8148C568.358 34.824 568.925 34.7837 569.485 34.6945L570.534 31.2718C570.061 31.3009 569.518 31.33 569.042 31.33" fill="#33475B"/>
<path d="M491.101 18.6048C489.001 18.6048 487.535 19.1445 486.118 20.3773V13.2368H481.871V26.4714C481.871 31.4258 485.912 34.8194 490.453 34.8194C495.491 34.8194 499.923 31.3657 499.923 26.714C499.923 22.1207 495.844 18.6067 491.101 18.6067V18.6048ZM491.075 31.0317C490.122 31.0317 489.19 30.7812 488.398 30.3119C487.605 29.8426 486.988 29.1756 486.623 28.3951C486.258 27.6147 486.163 26.7559 486.349 25.9274C486.535 25.0989 486.994 24.3378 487.668 23.7405C488.342 23.1432 489.2 22.7364 490.135 22.5716C491.07 22.4068 492.039 22.4914 492.919 22.8147C493.8 23.1379 494.553 23.6854 495.082 24.3877C495.612 25.0901 495.894 25.9159 495.894 26.7606C495.894 27.8934 495.387 28.9798 494.483 29.7808C493.579 30.5817 492.353 31.0317 491.075 31.0317Z" fill="#33475B"/>
<path d="M537.222 26.5151C537.222 21.8557 532.799 18.4097 527.752 18.4097C523.211 18.4097 519.17 21.8033 519.17 26.7578V40.0001H523.417V32.8499C524.832 34.0807 526.3 34.6224 528.399 34.6224C533.141 34.6224 537.22 31.1104 537.22 26.5151H537.222ZM533.2 26.4685C533.2 27.3132 532.917 28.139 532.388 28.8414C531.858 29.5438 531.106 30.0912 530.225 30.4145C529.345 30.7377 528.376 30.8223 527.441 30.6575C526.506 30.4927 525.647 30.0859 524.973 29.4886C524.299 28.8913 523.84 28.1302 523.655 27.3017C523.469 26.4732 523.564 25.6144 523.929 24.834C524.293 24.0536 524.911 23.3865 525.704 22.9172C526.496 22.4479 527.428 22.1974 528.381 22.1974C529.659 22.1974 530.885 22.6474 531.789 23.4484C532.692 24.2493 533.2 25.3357 533.2 26.4685Z" fill="#33475B"/>
<path d="M550.9 18.3496V14.6066C551.458 14.3756 551.93 14.0088 552.262 13.5489C552.594 13.089 552.772 12.555 552.775 12.009V11.9216C552.772 11.1587 552.429 10.4276 551.821 9.88807C551.212 9.34858 550.387 9.04458 549.526 9.04254H549.428C548.567 9.04458 547.742 9.34858 547.133 9.88807C546.525 10.4276 546.182 11.1587 546.179 11.9216V12.009C546.182 12.555 546.36 13.089 546.692 13.5489C547.024 14.0088 547.496 14.3756 548.054 14.6066V18.3496C546.45 18.5671 544.938 19.1565 543.673 20.0581L532.077 12.0614C532.159 11.7976 532.204 11.5256 532.208 11.2519C532.209 10.6095 531.995 9.98128 531.593 9.44673C531.191 8.91217 530.619 8.49527 529.95 8.24873C529.281 8.00219 528.544 7.93708 527.833 8.06166C527.122 8.18623 526.468 8.49487 525.955 8.94857C525.442 9.40226 525.092 9.98063 524.95 10.6105C524.808 11.2404 524.88 11.8936 525.156 12.4873C525.433 13.0811 525.902 13.5889 526.504 13.9464C527.106 14.3039 527.814 14.4952 528.539 14.496C529.176 14.4939 529.801 14.3432 530.351 14.0591L541.752 21.9257C540.725 23.2989 540.19 24.9146 540.215 26.5619C540.24 28.2091 540.826 29.8113 541.895 31.1591L538.425 34.2343C538.146 34.1557 537.856 34.1138 537.564 34.11C536.968 34.11 536.386 34.2666 535.891 34.5599C535.395 34.8532 535.009 35.2701 534.781 35.7579C534.553 36.2457 534.494 36.7824 534.61 37.3002C534.726 37.818 535.013 38.2937 535.434 38.667C535.855 39.0403 536.392 39.2946 536.976 39.3976C537.561 39.5006 538.166 39.4477 538.717 39.2457C539.267 39.0436 539.737 38.7015 540.068 38.2625C540.399 37.8235 540.576 37.3074 540.576 36.7794C540.572 36.5204 540.525 36.2633 540.436 36.0165L543.868 32.9743C544.989 33.7328 546.29 34.2544 547.673 34.4993C549.055 34.7441 550.483 34.7058 551.846 34.3871C553.209 34.0685 554.472 33.478 555.539 32.6607C556.606 31.8434 557.447 30.8209 558 29.6713C558.553 28.5217 558.802 27.2754 558.728 26.0275C558.655 24.7796 558.26 23.5631 557.575 22.4709C556.89 21.3786 555.933 20.4395 554.776 19.7253C553.619 19.0111 552.293 18.5405 550.9 18.3496ZM549.478 30.6621C548.539 30.6621 547.621 30.4152 546.84 29.9527C546.059 29.4902 545.45 28.8329 545.091 28.0638C544.731 27.2947 544.637 26.4484 544.82 25.632C545.004 24.8155 545.456 24.0655 546.12 23.4769C546.784 22.8883 547.63 22.4874 548.552 22.325C549.473 22.1626 550.428 22.2459 551.295 22.5645C552.163 22.8831 552.905 23.4225 553.427 24.1147C553.949 24.8069 554.227 25.6206 554.227 26.4531C554.227 27.5694 553.727 28.6399 552.836 29.4293C551.946 30.2186 550.738 30.6621 549.478 30.6621Z" fill="#FF7A59"/>
</g>
</g>
<mask id="mask2_1909_153" style="mask-type:luminance" maskUnits="userSpaceOnUse" x="666" y="0" width="147" height="48">
<path d="M812.375 0H666.824V48H812.375V0Z" fill="white"/>
</mask>
<g mask="url(#mask2_1909_153)">
<g style="mix-blend-mode:luminosity">
<path d="M717.526 34.7749V20.2199H717.819L729.773 34.7749H733.534V13.4006H729.355V27.919H729.062L717.108 13.4006H713.346V34.7749H717.526ZM745.363 35.1049C750.88 35.1049 754.266 31.9519 754.266 26.6725C754.266 21.4297 750.88 18.2401 745.363 18.2401C739.887 18.2401 736.46 21.4297 736.46 26.6725C736.502 31.9519 739.846 35.1049 745.363 35.1049ZM745.363 32.0252C742.437 32.0252 740.765 30.0821 740.765 26.6725C740.765 23.2995 742.437 21.3198 745.363 21.3198C748.289 21.3198 749.96 23.2995 749.96 26.6725C749.96 30.0821 748.289 32.0252 745.363 32.0252ZM758.069 14.6105V18.68H755.143V21.6131H758.069V30.4487C758.069 33.6017 759.741 34.8483 764.004 34.8483C764.798 34.8483 765.593 34.7749 766.22 34.6649V31.8053C765.718 31.8419 765.384 31.8786 764.798 31.8786C763.043 31.8786 762.249 31.182 762.249 29.5688V21.6131H766.22V18.68H762.249V14.6105H758.069ZM768.727 34.7749H772.907V18.5701H768.727V34.7749ZM770.817 15.8937C772.197 15.8937 773.325 14.9038 773.325 13.6939C773.325 12.4474 772.197 11.4575 770.817 11.4575C769.438 11.4575 768.309 12.4474 768.309 13.6939C768.309 14.9038 769.438 15.8937 770.817 15.8937ZM784.359 35.1049C789.877 35.1049 793.262 31.9519 793.262 26.6725C793.262 21.4297 789.877 18.2401 784.359 18.2401C778.884 18.2401 775.457 21.4297 775.457 26.6725C775.457 31.9519 778.8 35.1049 784.359 35.1049ZM784.359 32.0252C781.434 32.0252 779.762 30.0821 779.762 26.6725C779.762 23.2995 781.434 21.3198 784.359 21.3198C787.243 21.3198 788.957 23.2995 788.957 26.6725C788.915 30.0821 787.243 32.0252 784.359 32.0252ZM795.728 34.7749H799.908V25.3526C799.908 22.9696 801.496 21.4664 803.962 21.4664C806.512 21.4664 807.682 22.7129 807.682 25.1693V34.7749H811.862V24.2894C811.862 20.4032 809.605 18.2401 805.509 18.2401C802.75 18.2401 800.911 19.34 800.033 21.1731H799.741V18.5701H795.686C795.728 18.5701 795.728 34.7749 795.728 34.7749Z" fill="black"/>
<path fill-rule="evenodd" clip-rule="evenodd" d="M673.269 12.0326C674.486 12.9024 674.926 12.8337 677.203 12.6964L698.66 11.5519C699.126 11.5519 698.738 11.1399 698.583 11.0941L695.011 8.82806C694.338 8.37028 693.406 7.82093 691.672 7.95826L670.914 9.30874C670.163 9.37741 670.008 9.72075 670.318 9.97254L673.269 12.0326ZM674.563 16.4502V36.4098C674.563 37.4857 675.159 37.8748 676.53 37.8061L700.11 36.593C701.482 36.5243 701.637 35.7918 701.637 34.922V15.0998C701.637 14.23 701.249 13.7493 700.421 13.818L675.78 15.0998C674.874 15.1684 674.563 15.5804 674.563 16.4502ZM697.832 17.5261C697.988 18.1212 697.832 18.7392 697.159 18.8079L696.02 19.0139V33.7547C695.037 34.2125 694.131 34.4871 693.354 34.4871C692.138 34.4871 691.827 34.1438 690.921 33.1367L683.493 22.8135V32.7933L685.848 33.2511C685.848 33.2511 685.848 34.4642 683.959 34.4642L678.73 34.7389C678.575 34.4642 678.73 33.8005 679.248 33.6631L680.62 33.3198V20.1355L678.73 19.9981C678.575 19.403 678.963 18.5332 680.025 18.4645L685.641 18.1212L693.38 28.5588V19.3343L691.413 19.1283C691.258 18.3959 691.879 17.8465 692.63 17.7778L697.832 17.5261ZM669.18 7.47759L690.792 6.08133C693.432 5.87532 694.131 6.01266 695.787 7.08847L702.672 11.3688C703.811 12.1013 704.199 12.3073 704.199 13.1084V36.6159C704.199 38.0808 703.604 38.9506 701.482 39.0879L676.401 40.4384C674.796 40.5071 674.046 40.3011 673.217 39.3626L668.118 33.5258C667.212 32.45 666.824 31.6488 666.824 30.7104V9.81231C666.824 8.59917 667.445 7.61492 669.18 7.47759Z" fill="black"/>
</g>
</g>
<mask id="mask3_1909_153" style="mask-type:luminance" maskUnits="userSpaceOnUse" x="908" y="0" width="126" height="48">
<path d="M1033.52 0H908.279V48H1033.52V0Z" fill="white"/>
</mask>
<g mask="url(#mask3_1909_153)">
<g style="mix-blend-mode:luminosity">
<path d="M925.501 38.0663C923.617 38.3595 921.7 38.4474 919.717 38.6816L913.667 22.9786V39.3555C911.783 39.5313 910.064 39.7656 908.279 40V10H913.304L920.179 27.0217V10H925.501V38.0663ZM935.914 20.9863C937.963 20.9863 941.104 20.8984 942.988 20.8984V25.5858C940.641 25.5858 937.897 25.5858 935.914 25.6737V32.6465C939.021 32.4708 942.128 32.2362 945.268 32.1483V36.6597L930.625 37.6854V10H945.268V14.6875H935.914V20.9863ZM964.937 14.6876H959.449V36.2501C957.664 36.2501 955.879 36.2501 954.161 36.3085V14.6876H948.674V10H964.937V14.6876ZM973.531 20.6642H980.77V25.3516H973.531V35.9864H968.341V10H983.117V14.6875H973.531V20.6642ZM991.712 31.8848C994.72 31.9432 997.761 32.1486 1000.7 32.2948V36.9238C995.976 36.66 991.249 36.3966 986.423 36.3085V10H991.712V31.8848ZM1005.17 37.2461C1006.85 37.3341 1008.64 37.422 1010.35 37.5975V10H1005.17V37.2461ZM1033.53 10L1026.82 24.2676L1033.53 40C1031.54 39.7656 1029.56 39.4433 1027.58 39.1503L1023.78 30.4786L1019.91 38.4474C1017.99 38.1542 1016.14 38.0663 1014.22 37.8319L1021.03 24.0917L1014.88 10H1020.57L1024.04 17.8809L1027.74 10H1033.53Z" fill="#D81F26"/>
</g>
</g>
<mask id="mask4_1909_153" style="mask-type:luminance" maskUnits="userSpaceOnUse" x="1129" y="0" width="112" height="48">
<path d="M1240 0H1129.43V48H1240V0Z" fill="white"/>
</mask>
<g mask="url(#mask4_1909_153)">
<g style="mix-blend-mode:luminosity">
<path fill-rule="evenodd" clip-rule="evenodd" d="M1219.36 20.5972C1219.78 21.2429 1219.92 21.9774 1219.97 22.8032L1220.03 23.9039V31.6007L1220.09 32.7025C1220.21 34.502 1221.71 35.8325 1223.75 35.9457L1224.99 36V23.9039L1225.05 22.8032C1225.1 21.9867 1225.24 21.2382 1225.67 20.588C1226.1 19.921 1226.73 19.3677 1227.49 18.9835C1228.24 18.5993 1229.09 18.3978 1229.97 18.3992C1230.84 18.4006 1231.69 18.6049 1232.44 18.9915C1233.2 19.3781 1233.82 19.9335 1234.25 20.6018C1234.68 21.2475 1234.81 21.9959 1234.86 22.8032L1234.92 23.9005V31.6007L1234.98 32.7025C1235.11 34.5112 1236.59 35.8418 1238.65 35.9457L1239.88 36V22.8032C1239.88 20.4697 1238.84 18.2317 1236.98 16.5813C1235.12 14.9309 1232.59 14.0032 1229.96 14.0023C1228.55 14.001 1227.16 14.2662 1225.87 14.7803C1224.59 15.2944 1223.44 16.0454 1222.51 16.9833C1221.58 16.0458 1220.43 15.2949 1219.15 14.7807C1217.87 14.2665 1216.47 14.0007 1215.06 14.0012C1213 14.0012 1211.09 14.5555 1209.5 15.513C1208.54 14.5567 1206.37 14.0012 1205.13 14.0012V36L1206.37 35.9457C1208.45 35.8244 1209.95 34.5297 1210.03 32.7025L1210.1 31.6007V23.9039L1210.16 22.8032C1210.21 21.9728 1210.34 21.2429 1210.77 20.5926C1211.2 19.9261 1211.83 19.3728 1212.58 18.9882C1213.34 18.6035 1214.19 18.4009 1215.06 18.4005C1215.93 18.4006 1216.79 18.6037 1217.54 18.9893C1218.3 19.3748 1218.92 19.9294 1219.36 20.5972ZM1134.39 35.9469L1135.63 36H1154.25L1154.19 34.9028C1154.02 33.0941 1152.57 31.7728 1150.53 31.655L1149.28 31.6007H1138.12L1153.01 18.3993L1152.94 17.3032C1152.85 15.4761 1151.34 14.1559 1149.28 14.0554L1148.04 14.0058L1129.43 14.0012L1129.49 15.1019C1129.65 16.8932 1131.12 18.2422 1133.15 18.3462L1134.39 18.4005H1145.56L1130.67 31.6018L1130.73 32.7025C1130.85 34.5159 1132.33 35.8291 1134.39 35.9457V35.9469ZM1200.26 17.2212C1201.41 18.2426 1202.33 19.4552 1202.95 20.7898C1203.57 22.1244 1203.89 23.5548 1203.89 24.9994C1203.89 26.444 1203.57 27.8744 1202.95 29.209C1202.33 30.5436 1201.41 31.7562 1200.26 32.7776C1197.93 34.8399 1194.77 35.9983 1191.48 35.9983C1188.19 35.9983 1185.03 34.8399 1182.7 32.7776C1177.86 28.4823 1177.86 21.5166 1182.7 17.2212C1183.85 16.2002 1185.22 15.3902 1186.73 14.8375C1188.23 14.2848 1189.84 14.0002 1191.47 14C1193.1 13.999 1194.72 14.2831 1196.23 14.836C1197.74 15.3889 1199.11 16.1999 1200.26 17.2224V17.2212ZM1196.75 20.3362C1198.14 21.5744 1198.93 23.2531 1198.93 25.0035C1198.93 26.7538 1198.14 28.4326 1196.75 29.6707C1195.35 30.908 1193.46 31.6029 1191.48 31.6029C1189.51 31.6029 1187.61 30.908 1186.21 29.6707C1184.82 28.4326 1184.03 26.7538 1184.03 25.0035C1184.03 23.2531 1184.82 21.5744 1186.21 20.3362C1187.61 19.099 1189.51 18.404 1191.48 18.404C1193.46 18.404 1195.35 19.099 1196.75 20.3362ZM1165.43 14C1167.05 14.0004 1168.67 14.2851 1170.17 14.8381C1171.68 15.391 1173.04 16.2012 1174.2 17.2224C1179.04 21.5166 1179.04 28.4834 1174.2 32.7776C1171.87 34.8399 1168.71 35.9983 1165.42 35.9983C1162.13 35.9983 1158.97 34.8399 1156.64 32.7776C1151.79 28.4823 1151.79 21.5166 1156.64 17.2212C1157.79 16.2002 1159.16 15.3902 1160.66 14.8375C1162.17 14.2848 1163.78 14.0002 1165.41 14H1165.43ZM1170.68 20.3339C1172.08 21.5721 1172.86 23.2511 1172.86 25.0017C1172.86 26.7524 1172.08 28.4314 1170.68 29.6696C1169.29 30.9068 1167.39 31.6018 1165.42 31.6018C1163.44 31.6018 1161.55 30.9068 1160.15 29.6696C1158.76 28.4314 1157.97 26.7527 1157.97 25.0023C1157.97 23.252 1158.76 21.5732 1160.15 20.335C1161.55 19.0978 1163.44 18.4028 1165.42 18.4028C1167.39 18.4028 1169.29 19.0978 1170.68 20.335V20.3339Z" fill="#2D8CFF"/>
</g>
</g>
</g>
<defs>
<clipPath id="clip0_1909_153">
<rect width="1240" height="48" fill="white"/>
</clipPath>
</defs>
</svg>
