<svg width="1120" height="185" viewBox="0 0 1120 185" fill="none" xmlns="http://www.w3.org/2000/svg">
<rect width="126" height="26" rx="7" fill="#B9FF66"/>
<path d="M13.66 20.28C11.9533 20.28 10.6 19.8 9.6 18.84C8.6 17.8667 8.1 16.4667 8.1 14.64V11.36C8.1 9.53333 8.6 8.14 9.6 7.18C10.6 6.20667 11.9533 5.72 13.66 5.72C15.34 5.72 16.6333 6.18667 17.54 7.12C18.46 8.05333 18.92 9.32667 18.92 10.94V11.06H16.78V10.88C16.78 9.93333 16.52 9.16 16 8.56C15.4933 7.96 14.7133 7.66 13.66 7.66C12.5933 7.66 11.76 7.98667 11.16 8.64C10.56 9.28 10.26 10.1733 10.26 11.32V14.68C10.26 15.8133 10.56 16.7067 11.16 17.36C11.76 18.0133 12.5933 18.34 13.66 18.34C14.7133 18.34 15.4933 18.04 16 17.44C16.52 16.8267 16.78 16.0533 16.78 15.12V14.78H18.92V15.06C18.92 16.6733 18.46 17.9467 17.54 18.88C16.6333 19.8133 15.34 20.28 13.66 20.28ZM25.9916 20.28C25.0049 20.28 24.1249 20.08 23.3516 19.68C22.5916 19.2667 21.9916 18.68 21.5516 17.92C21.1116 17.16 20.8916 16.26 20.8916 15.22V14.92C20.8916 13.88 21.1116 12.9867 21.5516 12.24C21.9916 11.48 22.5916 10.8933 23.3516 10.48C24.1249 10.0667 25.0049 9.86 25.9916 9.86C26.9782 9.86 27.8582 10.0667 28.6316 10.48C29.4049 10.8933 30.0116 11.48 30.4516 12.24C30.8916 12.9867 31.1116 13.88 31.1116 14.92V15.22C31.1116 16.26 30.8916 17.16 30.4516 17.92C30.0116 18.68 29.4049 19.2667 28.6316 19.68C27.8582 20.08 26.9782 20.28 25.9916 20.28ZM25.9916 18.44C26.8982 18.44 27.6316 18.1533 28.1916 17.58C28.7649 16.9933 29.0516 16.1867 29.0516 15.16V14.98C29.0516 13.9533 28.7716 13.1533 28.2116 12.58C27.6516 11.9933 26.9116 11.7 25.9916 11.7C25.0982 11.7 24.3649 11.9933 23.7916 12.58C23.2316 13.1533 22.9516 13.9533 22.9516 14.98V15.16C22.9516 16.1867 23.2316 16.9933 23.7916 17.58C24.3649 18.1533 25.0982 18.44 25.9916 18.44ZM33.6763 20V10.14H35.6963V11.62H36.0163C36.2029 11.22 36.5363 10.8467 37.0163 10.5C37.4963 10.1533 38.2096 9.98 39.1563 9.98C39.9029 9.98 40.5629 10.1467 41.1363 10.48C41.7229 10.8133 42.1829 11.2867 42.5163 11.9C42.8496 12.5 43.0163 13.2267 43.0163 14.08V20H40.9563V14.24C40.9563 13.3867 40.7429 12.76 40.3163 12.36C39.8896 11.9467 39.3029 11.74 38.5563 11.74C37.7029 11.74 37.0163 12.02 36.4963 12.58C35.9896 13.14 35.7363 13.9533 35.7363 15.02V20H33.6763ZM49.4075 20C48.8075 20 48.3275 19.82 47.9675 19.46C47.6208 19.1 47.4475 18.62 47.4475 18.02V11.88H44.7275V10.14H47.4475V6.88H49.5075V10.14H52.4475V11.88H49.5075V17.66C49.5075 18.06 49.6942 18.26 50.0675 18.26H52.1275V20H49.4075ZM57.9081 20.28C57.2015 20.28 56.5681 20.16 56.0081 19.92C55.4615 19.68 55.0215 19.3267 54.6881 18.86C54.3681 18.3933 54.2081 17.8267 54.2081 17.16C54.2081 16.48 54.3681 15.92 54.6881 15.48C55.0215 15.0267 55.4681 14.6867 56.0281 14.46C56.6015 14.2333 57.2481 14.12 57.9681 14.12H60.9681V13.48C60.9681 12.9067 60.7948 12.4467 60.4481 12.1C60.1015 11.7533 59.5681 11.58 58.8481 11.58C58.1415 11.58 57.6015 11.7467 57.2281 12.08C56.8548 12.4133 56.6081 12.8467 56.4881 13.38L54.5681 12.76C54.7281 12.2267 54.9815 11.7467 55.3281 11.32C55.6881 10.88 56.1615 10.5267 56.7481 10.26C57.3348 9.99333 58.0415 9.86 58.8681 9.86C60.1481 9.86 61.1548 10.1867 61.8881 10.84C62.6215 11.4933 62.9881 12.42 62.9881 13.62V17.68C62.9881 18.08 63.1748 18.28 63.5481 18.28H64.3881V20H62.8481C62.3815 20 62.0015 19.88 61.7081 19.64C61.4148 19.4 61.2681 19.0733 61.2681 18.66V18.6H60.9681C60.8615 18.8 60.7015 19.0333 60.4881 19.3C60.2748 19.5667 59.9615 19.8 59.5481 20C59.1348 20.1867 58.5881 20.28 57.9081 20.28ZM58.2081 18.58C59.0348 18.58 59.7015 18.3467 60.2081 17.88C60.7148 17.4 60.9681 16.7467 60.9681 15.92V15.72H58.0881C57.5415 15.72 57.1015 15.84 56.7681 16.08C56.4348 16.3067 56.2681 16.6467 56.2681 17.1C56.2681 17.5533 56.4415 17.9133 56.7881 18.18C57.1348 18.4467 57.6081 18.58 58.2081 18.58ZM70.7367 20.28C69.7901 20.28 68.9301 20.08 68.1567 19.68C67.3967 19.28 66.7901 18.7 66.3367 17.94C65.8967 17.18 65.6767 16.2667 65.6767 15.2V14.94C65.6767 13.8733 65.8967 12.9667 66.3367 12.22C66.7901 11.46 67.3967 10.88 68.1567 10.48C68.9301 10.0667 69.7901 9.86 70.7367 9.86C71.6834 9.86 72.4901 10.0333 73.1567 10.38C73.8234 10.7267 74.3567 11.1867 74.7567 11.76C75.1701 12.3333 75.4367 12.9667 75.5567 13.66L73.5567 14.08C73.4901 13.64 73.3501 13.24 73.1367 12.88C72.9234 12.52 72.6234 12.2333 72.2367 12.02C71.8501 11.8067 71.3634 11.7 70.7767 11.7C70.2034 11.7 69.6834 11.8333 69.2167 12.1C68.7634 12.3533 68.4034 12.7267 68.1367 13.22C67.8701 13.7 67.7367 14.2867 67.7367 14.98V15.16C67.7367 15.8533 67.8701 16.4467 68.1367 16.94C68.4034 17.4333 68.7634 17.8067 69.2167 18.06C69.6834 18.3133 70.2034 18.44 70.7767 18.44C71.6434 18.44 72.3034 18.22 72.7567 17.78C73.2101 17.3267 73.4967 16.7533 73.6167 16.06L75.6167 16.52C75.4567 17.2 75.1701 17.8267 74.7567 18.4C74.3567 18.9733 73.8234 19.4333 73.1567 19.78C72.4901 20.1133 71.6834 20.28 70.7367 20.28ZM81.3411 20C80.7411 20 80.2611 19.82 79.9011 19.46C79.5544 19.1 79.3811 18.62 79.3811 18.02V11.88H76.6611V10.14H79.3811V6.88H81.4411V10.14H84.3811V11.88H81.4411V17.66C81.4411 18.06 81.6278 18.26 82.0011 18.26H84.0611V20H81.3411ZM95.6789 20.18C94.9322 20.18 94.2656 20.0133 93.6789 19.68C93.0922 19.3467 92.6322 18.8733 92.2989 18.26C91.9656 17.6467 91.7989 16.9133 91.7989 16.06V10.14H93.8589V15.92C93.8589 16.7733 94.0722 17.4067 94.4989 17.82C94.9256 18.22 95.5189 18.42 96.2789 18.42C97.1189 18.42 97.7922 18.14 98.2989 17.58C98.8189 17.0067 99.0789 16.1867 99.0789 15.12V10.14H101.139V20H99.1189V18.52H98.7989C98.6122 18.92 98.2789 19.3 97.7989 19.66C97.3189 20.0067 96.6122 20.18 95.6789 20.18ZM108.224 20.28C106.971 20.28 105.931 20 105.104 19.44C104.277 18.88 103.771 18.0333 103.584 16.9L105.504 16.44C105.611 16.9867 105.791 17.42 106.044 17.74C106.297 18.06 106.611 18.2867 106.984 18.42C107.371 18.5533 107.784 18.62 108.224 18.62C108.877 18.62 109.377 18.4933 109.724 18.24C110.084 17.9867 110.264 17.66 110.264 17.26C110.264 16.86 110.097 16.5667 109.764 16.38C109.431 16.1933 108.937 16.04 108.284 15.92L107.604 15.8C106.937 15.68 106.331 15.5067 105.784 15.28C105.237 15.0533 104.804 14.74 104.484 14.34C104.164 13.94 104.004 13.4267 104.004 12.8C104.004 11.8667 104.351 11.1467 105.044 10.64C105.737 10.12 106.657 9.86 107.804 9.86C108.911 9.86 109.817 10.1133 110.524 10.62C111.244 11.1133 111.711 11.7867 111.924 12.64L110.004 13.18C109.884 12.58 109.631 12.16 109.244 11.92C108.857 11.6667 108.377 11.54 107.804 11.54C107.244 11.54 106.804 11.6467 106.484 11.86C106.164 12.06 106.004 12.3467 106.004 12.72C106.004 13.12 106.157 13.4133 106.464 13.6C106.784 13.7867 107.211 13.9267 107.744 14.02L108.444 14.14C109.151 14.26 109.797 14.4267 110.384 14.64C110.971 14.8533 111.431 15.16 111.764 15.56C112.111 15.96 112.284 16.4933 112.284 17.16C112.284 18.1467 111.917 18.9133 111.184 19.46C110.451 20.0067 109.464 20.28 108.224 20.28ZM115.932 20.28C115.465 20.28 115.072 20.1267 114.752 19.82C114.445 19.5133 114.292 19.12 114.292 18.64C114.292 18.16 114.445 17.7733 114.752 17.48C115.072 17.1733 115.465 17.02 115.932 17.02C116.399 17.02 116.785 17.1733 117.092 17.48C117.412 17.7867 117.572 18.1733 117.572 18.64C117.572 19.12 117.412 19.5133 117.092 19.82C116.785 20.1267 116.399 20.28 115.932 20.28ZM115.932 13.14C115.465 13.14 115.072 12.9867 114.752 12.68C114.445 12.3733 114.292 11.98 114.292 11.5C114.292 11.02 114.445 10.6333 114.752 10.34C115.072 10.0333 115.465 9.88 115.932 9.88C116.399 9.88 116.785 10.0333 117.092 10.34C117.412 10.6467 117.572 11.0333 117.572 11.5C117.572 11.98 117.412 12.3733 117.092 12.68C116.785 12.9867 116.399 13.14 115.932 13.14Z" fill="black"/>
<path d="M1.44 71V58.4H9.198V59.768H2.952V63.98H8.694V65.348H2.952V69.632H9.288V71H1.44ZM11.6366 71V62.198H13.0226V63.296H13.2746C13.4426 62.984 13.7186 62.696 14.1026 62.432C14.4866 62.168 15.0266 62.036 15.7226 62.036C16.4066 62.036 16.9586 62.186 17.3786 62.486C17.8106 62.786 18.1226 63.152 18.3146 63.584H18.5666C18.7706 63.152 19.0766 62.786 19.4846 62.486C19.9046 62.186 20.4866 62.036 21.2306 62.036C21.8186 62.036 22.3346 62.156 22.7786 62.396C23.2226 62.636 23.5706 62.984 23.8226 63.44C24.0866 63.884 24.2186 64.418 24.2186 65.042V71H22.7966V65.168C22.7966 64.58 22.6226 64.118 22.2746 63.782C21.9386 63.434 21.4646 63.26 20.8526 63.26C20.2046 63.26 19.6706 63.47 19.2506 63.89C18.8426 64.31 18.6386 64.916 18.6386 65.708V71H17.2166V65.168C17.2166 64.58 17.0426 64.118 16.6946 63.782C16.3586 63.434 15.8846 63.26 15.2726 63.26C14.6246 63.26 14.0906 63.47 13.6706 63.89C13.2626 64.31 13.0586 64.916 13.0586 65.708V71H11.6366ZM29.8229 71.252C29.2109 71.252 28.6529 71.144 28.1489 70.928C27.6449 70.712 27.2489 70.4 26.9609 69.992C26.6729 69.584 26.5289 69.086 26.5289 68.498C26.5289 67.898 26.6729 67.406 26.9609 67.022C27.2489 66.626 27.6449 66.332 28.1489 66.14C28.6529 65.936 29.2169 65.834 29.8409 65.834H32.8109V65.186C32.8109 64.562 32.6249 64.07 32.2529 63.71C31.8929 63.35 31.3529 63.17 30.6329 63.17C29.9249 63.17 29.3729 63.344 28.9769 63.692C28.5809 64.028 28.3109 64.484 28.1669 65.06L26.8349 64.628C26.9789 64.136 27.2069 63.692 27.5189 63.296C27.8309 62.888 28.2449 62.564 28.7609 62.324C29.2889 62.072 29.9189 61.946 30.6509 61.946C31.7789 61.946 32.6549 62.24 33.2789 62.828C33.9029 63.404 34.2149 64.22 34.2149 65.276V69.254C34.2149 69.614 34.3829 69.794 34.7189 69.794H35.5289V71H34.2869C33.8909 71 33.5729 70.892 33.3329 70.676C33.0929 70.448 32.9729 70.148 32.9729 69.776V69.686H32.7569C32.6249 69.914 32.4449 70.154 32.2169 70.406C32.0009 70.646 31.7009 70.844 31.3169 71C30.9329 71.168 30.4349 71.252 29.8229 71.252ZM29.9849 70.028C30.8249 70.028 31.5029 69.782 32.0189 69.29C32.5469 68.786 32.8109 68.084 32.8109 67.184V66.986H29.8949C29.3309 66.986 28.8629 67.112 28.4909 67.364C28.1309 67.604 27.9509 67.97 27.9509 68.462C27.9509 68.954 28.1369 69.338 28.5089 69.614C28.8929 69.89 29.3849 70.028 29.9849 70.028ZM37.4764 71V62.198H38.8984V71H37.4764ZM38.1964 60.83C37.8844 60.83 37.6204 60.728 37.4044 60.524C37.2004 60.32 37.0984 60.062 37.0984 59.75C37.0984 59.426 37.2004 59.162 37.4044 58.958C37.6204 58.754 37.8844 58.652 38.1964 58.652C38.5084 58.652 38.7664 58.754 38.9704 58.958C39.1744 59.162 39.2764 59.426 39.2764 59.75C39.2764 60.062 39.1744 60.32 38.9704 60.524C38.7664 60.728 38.5084 60.83 38.1964 60.83ZM41.8885 71V58.4H43.3105V71H41.8885ZM47.0746 71.252C46.7266 71.252 46.4326 71.138 46.1926 70.91C45.9646 70.682 45.8506 70.388 45.8506 70.028C45.8506 69.668 45.9646 69.374 46.1926 69.146C46.4326 68.918 46.7266 68.804 47.0746 68.804C47.4346 68.804 47.7286 68.918 47.9566 69.146C48.1846 69.374 48.2986 69.668 48.2986 70.028C48.2986 70.388 48.1846 70.682 47.9566 70.91C47.7286 71.138 47.4346 71.252 47.0746 71.252ZM47.0746 64.394C46.7266 64.394 46.4326 64.28 46.1926 64.052C45.9646 63.824 45.8506 63.53 45.8506 63.17C45.8506 62.81 45.9646 62.516 46.1926 62.288C46.4326 62.06 46.7266 61.946 47.0746 61.946C47.4346 61.946 47.7286 62.06 47.9566 62.288C48.1846 62.516 48.2986 62.81 48.2986 63.17C48.2986 63.53 48.1846 63.824 47.9566 64.052C47.7286 64.28 47.4346 64.394 47.0746 64.394ZM55.4764 71V62.198H56.8984V71H55.4764ZM56.1964 60.83C55.8844 60.83 55.6204 60.728 55.4044 60.524C55.2004 60.32 55.0984 60.062 55.0984 59.75C55.0984 59.426 55.2004 59.162 55.4044 58.958C55.6204 58.754 55.8844 58.652 56.1964 58.652C56.5084 58.652 56.7664 58.754 56.9704 58.958C57.1744 59.162 57.2764 59.426 57.2764 59.75C57.2764 60.062 57.1744 60.32 56.9704 60.524C56.7664 60.728 56.5084 60.83 56.1964 60.83ZM59.8885 71V62.198H61.2745V63.692H61.5265C61.7185 63.272 62.0425 62.894 62.4985 62.558C62.9665 62.21 63.6505 62.036 64.5505 62.036C65.2105 62.036 65.7985 62.174 66.3145 62.45C66.8425 62.726 67.2625 63.134 67.5745 63.674C67.8865 64.214 68.0425 64.88 68.0425 65.672V71H66.6205V65.78C66.6205 64.904 66.3985 64.268 65.9545 63.872C65.5225 63.476 64.9345 63.278 64.1905 63.278C63.3385 63.278 62.6425 63.554 62.1025 64.106C61.5745 64.658 61.3105 65.48 61.3105 66.572V71H59.8885ZM72.4095 71V63.44H69.7095V62.198H72.4095V59.948C72.4095 59.468 72.5415 59.09 72.8055 58.814C73.0815 58.538 73.4715 58.4 73.9755 58.4H76.1895V59.624H74.3715C74.0115 59.624 73.8315 59.804 73.8315 60.164V62.198H76.6035V63.44H73.8315V71H72.4095ZM82.2729 71.252C81.3849 71.252 80.5989 71.066 79.9149 70.694C79.2429 70.322 78.7149 69.8 78.3309 69.128C77.9589 68.444 77.7729 67.64 77.7729 66.716V66.482C77.7729 65.57 77.9589 64.772 78.3309 64.088C78.7149 63.404 79.2429 62.876 79.9149 62.504C80.5989 62.132 81.3849 61.946 82.2729 61.946C83.1609 61.946 83.9409 62.132 84.6129 62.504C85.2969 62.876 85.8249 63.404 86.1969 64.088C86.5809 64.772 86.7729 65.57 86.7729 66.482V66.716C86.7729 67.64 86.5809 68.444 86.1969 69.128C85.8249 69.8 85.2969 70.322 84.6129 70.694C83.9409 71.066 83.1609 71.252 82.2729 71.252ZM82.2729 69.974C83.2089 69.974 83.9529 69.68 84.5049 69.092C85.0689 68.492 85.3509 67.688 85.3509 66.68V66.518C85.3509 65.51 85.0689 64.712 84.5049 64.124C83.9529 63.524 83.2089 63.224 82.2729 63.224C81.3489 63.224 80.6049 63.524 80.0409 64.124C79.4769 64.712 79.1949 65.51 79.1949 66.518V66.68C79.1949 67.688 79.4769 68.492 80.0409 69.092C80.6049 69.68 81.3489 69.974 82.2729 69.974ZM97.4139 74.6C95.8059 74.6 94.3839 74.288 93.1479 73.664C91.9239 73.04 90.9639 72.14 90.2679 70.964C89.5719 69.776 89.2239 68.336 89.2239 66.644V66.266C89.2239 64.586 89.5539 63.158 90.2139 61.982C90.8739 60.794 91.7919 59.888 92.9679 59.264C94.1559 58.64 95.5299 58.328 97.0899 58.328H97.4679C98.9559 58.328 100.264 58.634 101.392 59.246C102.52 59.846 103.402 60.704 104.038 61.82C104.674 62.936 104.992 64.274 104.992 65.834V66.446C104.992 67.97 104.71 69.11 104.146 69.866C103.594 70.622 102.808 71 101.788 71H101.194C100.702 71 100.33 70.892 100.078 70.676C99.8259 70.448 99.6999 70.148 99.6999 69.776V69.596H99.4479C99.3519 69.848 99.1959 70.1 98.9799 70.352C98.7759 70.592 98.4939 70.796 98.1339 70.964C97.7859 71.132 97.3359 71.216 96.7839 71.216C96.0759 71.216 95.4399 71.024 94.8759 70.64C94.3119 70.256 93.8679 69.728 93.5439 69.056C93.2319 68.384 93.0759 67.634 93.0759 66.806V66.482C93.0759 65.63 93.2319 64.874 93.5439 64.214C93.8559 63.554 94.2879 63.032 94.8399 62.648C95.3919 62.264 96.0219 62.072 96.7299 62.072C97.2699 62.072 97.7139 62.15 98.0619 62.306C98.4099 62.45 98.6859 62.636 98.8899 62.864C99.0939 63.092 99.2559 63.32 99.3759 63.548H99.6279V62.288H101.014V69.272C101.014 69.452 101.044 69.578 101.104 69.65C101.176 69.722 101.296 69.758 101.464 69.758H101.68C102.352 69.758 102.832 69.5 103.12 68.984C103.42 68.456 103.57 67.586 103.57 66.374V65.87C103.57 64.538 103.324 63.41 102.832 62.486C102.34 61.55 101.638 60.836 100.726 60.344C99.8139 59.852 98.7219 59.606 97.4499 59.606H97.1439C95.8359 59.606 94.6959 59.858 93.7239 60.362C92.7519 60.866 91.9959 61.616 91.4559 62.612C90.9159 63.608 90.6459 64.844 90.6459 66.32V66.608C90.6459 68.072 90.9279 69.308 91.4919 70.316C92.0679 71.312 92.8719 72.062 93.9039 72.566C94.9359 73.07 96.1299 73.322 97.4859 73.322H101.014V74.6H97.4139ZM97.0539 69.938C97.8099 69.938 98.4279 69.656 98.9079 69.092C99.3879 68.528 99.6279 67.742 99.6279 66.734V66.554C99.6279 65.546 99.3879 64.76 98.9079 64.196C98.4279 63.62 97.8099 63.332 97.0539 63.332C96.2979 63.332 95.6799 63.62 95.1999 64.196C94.7199 64.772 94.4799 65.552 94.4799 66.536V66.752C94.4799 67.724 94.7199 68.498 95.1999 69.074C95.6799 69.65 96.2979 69.938 97.0539 69.938ZM107.807 74.6V62.198H109.193V63.656H109.445C109.673 63.212 110.039 62.816 110.543 62.468C111.059 62.12 111.773 61.946 112.685 61.946C113.441 61.946 114.131 62.132 114.755 62.504C115.391 62.864 115.895 63.38 116.267 64.052C116.651 64.724 116.843 65.534 116.843 66.482V66.716C116.843 67.652 116.657 68.462 116.285 69.146C115.913 69.83 115.409 70.352 114.773 70.712C114.149 71.072 113.453 71.252 112.685 71.252C112.073 71.252 111.551 71.168 111.119 71C110.699 70.844 110.357 70.64 110.093 70.388C109.829 70.136 109.625 69.878 109.481 69.614H109.229V74.6H107.807ZM112.307 69.992C113.219 69.992 113.957 69.704 114.521 69.128C115.097 68.54 115.385 67.724 115.385 66.68V66.518C115.385 65.474 115.097 64.664 114.521 64.088C113.957 63.5 113.219 63.206 112.307 63.206C111.407 63.206 110.663 63.5 110.075 64.088C109.499 64.664 109.211 65.474 109.211 66.518V66.68C109.211 67.724 109.499 68.54 110.075 69.128C110.663 69.704 111.407 69.992 112.307 69.992ZM123.458 71.252C122.57 71.252 121.784 71.066 121.1 70.694C120.428 70.322 119.9 69.8 119.516 69.128C119.144 68.444 118.958 67.64 118.958 66.716V66.482C118.958 65.57 119.144 64.772 119.516 64.088C119.9 63.404 120.428 62.876 121.1 62.504C121.784 62.132 122.57 61.946 123.458 61.946C124.346 61.946 125.126 62.132 125.798 62.504C126.482 62.876 127.01 63.404 127.382 64.088C127.766 64.772 127.958 65.57 127.958 66.482V66.716C127.958 67.64 127.766 68.444 127.382 69.128C127.01 69.8 126.482 70.322 125.798 70.694C125.126 71.066 124.346 71.252 123.458 71.252ZM123.458 69.974C124.394 69.974 125.138 69.68 125.69 69.092C126.254 68.492 126.536 67.688 126.536 66.68V66.518C126.536 65.51 126.254 64.712 125.69 64.124C125.138 63.524 124.394 63.224 123.458 63.224C122.534 63.224 121.79 63.524 121.226 64.124C120.662 64.712 120.38 65.51 120.38 66.518V66.68C120.38 67.688 120.662 68.492 121.226 69.092C121.79 69.68 122.534 69.974 123.458 69.974ZM134.063 71.252C132.971 71.252 132.047 71 131.291 70.496C130.547 69.992 130.097 69.194 129.941 68.102L131.291 67.796C131.387 68.372 131.567 68.828 131.831 69.164C132.095 69.488 132.419 69.722 132.803 69.866C133.199 69.998 133.619 70.064 134.063 70.064C134.723 70.064 135.245 69.932 135.629 69.668C136.013 69.404 136.205 69.05 136.205 68.606C136.205 68.15 136.019 67.832 135.647 67.652C135.287 67.46 134.789 67.304 134.153 67.184L133.415 67.058C132.851 66.962 132.335 66.812 131.867 66.608C131.399 66.404 131.027 66.128 130.751 65.78C130.475 65.432 130.337 64.994 130.337 64.466C130.337 63.674 130.643 63.056 131.255 62.612C131.867 62.168 132.677 61.946 133.685 61.946C134.681 61.946 135.485 62.174 136.097 62.63C136.721 63.074 137.123 63.704 137.303 64.52L135.971 64.862C135.863 64.226 135.605 63.782 135.197 63.53C134.789 63.266 134.285 63.134 133.685 63.134C133.085 63.134 132.611 63.248 132.263 63.476C131.915 63.692 131.741 64.016 131.741 64.448C131.741 64.868 131.903 65.18 132.227 65.384C132.563 65.576 133.007 65.72 133.559 65.816L134.297 65.942C134.921 66.05 135.479 66.2 135.971 66.392C136.475 66.572 136.871 66.836 137.159 67.184C137.459 67.532 137.609 67.988 137.609 68.552C137.609 69.416 137.285 70.082 136.637 70.55C136.001 71.018 135.143 71.252 134.063 71.252ZM140.01 71V62.198H141.432V71H140.01ZM140.73 60.83C140.418 60.83 140.154 60.728 139.938 60.524C139.734 60.32 139.632 60.062 139.632 59.75C139.632 59.426 139.734 59.162 139.938 58.958C140.154 58.754 140.418 58.652 140.73 58.652C141.042 58.652 141.3 58.754 141.504 58.958C141.708 59.162 141.81 59.426 141.81 59.75C141.81 60.062 141.708 60.32 141.504 60.524C141.3 60.728 141.042 60.83 140.73 60.83ZM147.662 71C147.158 71 146.768 70.862 146.492 70.586C146.228 70.31 146.096 69.932 146.096 69.452V63.44H143.45V62.198H146.096V59.066H147.518V62.198H150.398V63.44H147.518V69.236C147.518 69.596 147.692 69.776 148.04 69.776H150.002V71H147.662ZM152.701 71V62.198H154.123V71H152.701ZM153.421 60.83C153.109 60.83 152.845 60.728 152.629 60.524C152.425 60.32 152.323 60.062 152.323 59.75C152.323 59.426 152.425 59.162 152.629 58.958C152.845 58.754 153.109 58.652 153.421 58.652C153.733 58.652 153.991 58.754 154.195 58.958C154.399 59.162 154.501 59.426 154.501 59.75C154.501 60.062 154.399 60.32 154.195 60.524C153.991 60.728 153.733 60.83 153.421 60.83ZM159.345 71L156.195 62.198H157.707L160.353 69.938H160.605L163.251 62.198H164.763L161.613 71H159.345ZM170.182 71.162C169.546 71.162 168.958 71.024 168.418 70.748C167.89 70.472 167.47 70.064 167.158 69.524C166.858 68.972 166.708 68.306 166.708 67.526V62.198H168.13V67.418C168.13 68.294 168.346 68.93 168.778 69.326C169.222 69.722 169.816 69.92 170.56 69.92C171.4 69.92 172.09 69.644 172.63 69.092C173.17 68.54 173.44 67.718 173.44 66.626V62.198H174.862V71H173.476V69.506H173.224C173.032 69.926 172.702 70.31 172.234 70.658C171.766 70.994 171.082 71.162 170.182 71.162ZM181.384 71.252C180.292 71.252 179.368 71 178.612 70.496C177.868 69.992 177.418 69.194 177.262 68.102L178.612 67.796C178.708 68.372 178.888 68.828 179.152 69.164C179.416 69.488 179.74 69.722 180.124 69.866C180.52 69.998 180.94 70.064 181.384 70.064C182.044 70.064 182.566 69.932 182.95 69.668C183.334 69.404 183.526 69.05 183.526 68.606C183.526 68.15 183.34 67.832 182.968 67.652C182.608 67.46 182.11 67.304 181.474 67.184L180.736 67.058C180.172 66.962 179.656 66.812 179.188 66.608C178.72 66.404 178.348 66.128 178.072 65.78C177.796 65.432 177.658 64.994 177.658 64.466C177.658 63.674 177.964 63.056 178.576 62.612C179.188 62.168 179.998 61.946 181.006 61.946C182.002 61.946 182.806 62.174 183.418 62.63C184.042 63.074 184.444 63.704 184.624 64.52L183.292 64.862C183.184 64.226 182.926 63.782 182.518 63.53C182.11 63.266 181.606 63.134 181.006 63.134C180.406 63.134 179.932 63.248 179.584 63.476C179.236 63.692 179.062 64.016 179.062 64.448C179.062 64.868 179.224 65.18 179.548 65.384C179.884 65.576 180.328 65.72 180.88 65.816L181.618 65.942C182.242 66.05 182.8 66.2 183.292 66.392C183.796 66.572 184.192 66.836 184.48 67.184C184.78 67.532 184.93 67.988 184.93 68.552C184.93 69.416 184.606 70.082 183.958 70.55C183.322 71.018 182.464 71.252 181.384 71.252ZM188.104 71.252C187.756 71.252 187.462 71.138 187.222 70.91C186.994 70.682 186.88 70.388 186.88 70.028C186.88 69.668 186.994 69.374 187.222 69.146C187.462 68.918 187.756 68.804 188.104 68.804C188.464 68.804 188.758 68.918 188.986 69.146C189.214 69.374 189.328 69.668 189.328 70.028C189.328 70.388 189.214 70.682 188.986 70.91C188.758 71.138 188.464 71.252 188.104 71.252ZM195.81 71.252C194.958 71.252 194.19 71.072 193.506 70.712C192.834 70.34 192.3 69.812 191.904 69.128C191.52 68.444 191.328 67.634 191.328 66.698V66.5C191.328 65.552 191.52 64.742 191.904 64.07C192.3 63.386 192.834 62.864 193.506 62.504C194.19 62.132 194.958 61.946 195.81 61.946C196.65 61.946 197.364 62.102 197.952 62.414C198.552 62.726 199.02 63.14 199.356 63.656C199.704 64.172 199.926 64.724 200.022 65.312L198.636 65.6C198.576 65.168 198.432 64.772 198.204 64.412C197.988 64.052 197.682 63.764 197.286 63.548C196.89 63.332 196.404 63.224 195.828 63.224C195.24 63.224 194.712 63.356 194.244 63.62C193.788 63.884 193.422 64.262 193.146 64.754C192.882 65.246 192.75 65.834 192.75 66.518V66.68C192.75 67.364 192.882 67.952 193.146 68.444C193.422 68.936 193.788 69.314 194.244 69.578C194.712 69.842 195.24 69.974 195.828 69.974C196.704 69.974 197.37 69.746 197.826 69.29C198.294 68.834 198.582 68.27 198.69 67.598L200.094 67.904C199.962 68.48 199.722 69.026 199.374 69.542C199.026 70.058 198.552 70.472 197.952 70.784C197.364 71.096 196.65 71.252 195.81 71.252ZM206.585 71.252C205.697 71.252 204.911 71.066 204.227 70.694C203.555 70.322 203.027 69.8 202.643 69.128C202.271 68.444 202.085 67.64 202.085 66.716V66.482C202.085 65.57 202.271 64.772 202.643 64.088C203.027 63.404 203.555 62.876 204.227 62.504C204.911 62.132 205.697 61.946 206.585 61.946C207.473 61.946 208.253 62.132 208.925 62.504C209.609 62.876 210.137 63.404 210.509 64.088C210.893 64.772 211.085 65.57 211.085 66.482V66.716C211.085 67.64 210.893 68.444 210.509 69.128C210.137 69.8 209.609 70.322 208.925 70.694C208.253 71.066 207.473 71.252 206.585 71.252ZM206.585 69.974C207.521 69.974 208.265 69.68 208.817 69.092C209.381 68.492 209.663 67.688 209.663 66.68V66.518C209.663 65.51 209.381 64.712 208.817 64.124C208.265 63.524 207.521 63.224 206.585 63.224C205.661 63.224 204.917 63.524 204.353 64.124C203.789 64.712 203.507 65.51 203.507 66.518V66.68C203.507 67.688 203.789 68.492 204.353 69.092C204.917 69.68 205.661 69.974 206.585 69.974ZM213.644 71V62.198H215.03V63.296H215.282C215.45 62.984 215.726 62.696 216.11 62.432C216.494 62.168 217.034 62.036 217.73 62.036C218.414 62.036 218.966 62.186 219.386 62.486C219.818 62.786 220.13 63.152 220.322 63.584H220.574C220.778 63.152 221.084 62.786 221.492 62.486C221.912 62.186 222.494 62.036 223.238 62.036C223.826 62.036 224.342 62.156 224.786 62.396C225.23 62.636 225.578 62.984 225.83 63.44C226.094 63.884 226.226 64.418 226.226 65.042V71H224.804V65.168C224.804 64.58 224.63 64.118 224.282 63.782C223.946 63.434 223.472 63.26 222.86 63.26C222.212 63.26 221.678 63.47 221.258 63.89C220.85 64.31 220.646 64.916 220.646 65.708V71H219.224V65.168C219.224 64.58 219.05 64.118 218.702 63.782C218.366 63.434 217.892 63.26 217.28 63.26C216.632 63.26 216.098 63.47 215.678 63.89C215.27 64.31 215.066 64.916 215.066 65.708V71H213.644Z" fill="white"/>
<path d="M1.44 114V101.4H6.264C7.02 101.4 7.692 101.55 8.28 101.85C8.88 102.138 9.354 102.552 9.702 103.092C10.05 103.632 10.224 104.286 10.224 105.054V105.288C10.224 106.044 10.044 106.698 9.684 107.25C9.336 107.79 8.862 108.204 8.262 108.492C7.662 108.78 6.996 108.924 6.264 108.924H2.952V114H1.44ZM2.952 107.556H6.102C6.906 107.556 7.542 107.358 8.01 106.962C8.478 106.554 8.712 105.984 8.712 105.252V105.072C8.712 104.34 8.478 103.776 8.01 103.38C7.554 102.972 6.918 102.768 6.102 102.768H2.952V107.556ZM12.3045 114V101.4H13.7265V106.602H13.9785C14.0985 106.338 14.2785 106.092 14.5185 105.864C14.7705 105.624 15.0885 105.426 15.4725 105.27C15.8685 105.114 16.3665 105.036 16.9665 105.036C17.6265 105.036 18.2145 105.18 18.7305 105.468C19.2585 105.744 19.6785 106.152 19.9905 106.692C20.3025 107.22 20.4585 107.88 20.4585 108.672V114H19.0365V108.78C19.0365 107.904 18.8145 107.268 18.3705 106.872C17.9385 106.476 17.3505 106.278 16.6065 106.278C15.7545 106.278 15.0585 106.554 14.5185 107.106C13.9905 107.658 13.7265 108.48 13.7265 109.572V114H12.3045ZM27.4116 114.252C26.5236 114.252 25.7376 114.066 25.0536 113.694C24.3816 113.322 23.8536 112.8 23.4696 112.128C23.0976 111.444 22.9116 110.64 22.9116 109.716V109.482C22.9116 108.57 23.0976 107.772 23.4696 107.088C23.8536 106.404 24.3816 105.876 25.0536 105.504C25.7376 105.132 26.5236 104.946 27.4116 104.946C28.2996 104.946 29.0796 105.132 29.7516 105.504C30.4356 105.876 30.9636 106.404 31.3356 107.088C31.7196 107.772 31.9116 108.57 31.9116 109.482V109.716C31.9116 110.64 31.7196 111.444 31.3356 112.128C30.9636 112.8 30.4356 113.322 29.7516 113.694C29.0796 114.066 28.2996 114.252 27.4116 114.252ZM27.4116 112.974C28.3476 112.974 29.0916 112.68 29.6436 112.092C30.2076 111.492 30.4896 110.688 30.4896 109.68V109.518C30.4896 108.51 30.2076 107.712 29.6436 107.124C29.0916 106.524 28.3476 106.224 27.4116 106.224C26.4876 106.224 25.7436 106.524 25.1796 107.124C24.6156 107.712 24.3336 108.51 24.3336 109.518V109.68C24.3336 110.688 24.6156 111.492 25.1796 112.092C25.7436 112.68 26.4876 112.974 27.4116 112.974ZM34.4706 114V105.198H35.8566V106.692H36.1086C36.3006 106.272 36.6246 105.894 37.0806 105.558C37.5486 105.21 38.2326 105.036 39.1326 105.036C39.7926 105.036 40.3806 105.174 40.8966 105.45C41.4246 105.726 41.8446 106.134 42.1566 106.674C42.4686 107.214 42.6246 107.88 42.6246 108.672V114H41.2026V108.78C41.2026 107.904 40.9806 107.268 40.5366 106.872C40.1046 106.476 39.5166 106.278 38.7726 106.278C37.9206 106.278 37.2246 106.554 36.6846 107.106C36.1566 107.658 35.8926 108.48 35.8926 109.572V114H34.4706ZM49.5416 114.252C48.6536 114.252 47.8736 114.066 47.2016 113.694C46.5296 113.31 46.0076 112.776 45.6356 112.092C45.2636 111.408 45.0776 110.616 45.0776 109.716V109.5C45.0776 108.588 45.2636 107.79 45.6356 107.106C46.0076 106.422 46.5236 105.894 47.1836 105.522C47.8436 105.138 48.5996 104.946 49.4516 104.946C50.2796 104.946 51.0116 105.126 51.6476 105.486C52.2836 105.834 52.7816 106.338 53.1416 106.998C53.5016 107.658 53.6816 108.432 53.6816 109.32V109.968H46.4996C46.5356 110.916 46.8416 111.66 47.4176 112.2C47.9936 112.728 48.7136 112.992 49.5776 112.992C50.3336 112.992 50.9156 112.818 51.3236 112.47C51.7316 112.122 52.0436 111.708 52.2596 111.228L53.4836 111.822C53.3036 112.194 53.0516 112.566 52.7276 112.938C52.4156 113.31 52.0016 113.622 51.4856 113.874C50.9816 114.126 50.3336 114.252 49.5416 114.252ZM46.5176 108.798H52.2416C52.1936 107.982 51.9116 107.346 51.3956 106.89C50.8916 106.434 50.2436 106.206 49.4516 106.206C48.6476 106.206 47.9876 106.434 47.4716 106.89C46.9556 107.346 46.6376 107.982 46.5176 108.798ZM56.936 114.252C56.588 114.252 56.294 114.138 56.054 113.91C55.826 113.682 55.712 113.388 55.712 113.028C55.712 112.668 55.826 112.374 56.054 112.146C56.294 111.918 56.588 111.804 56.936 111.804C57.296 111.804 57.59 111.918 57.818 112.146C58.046 112.374 58.16 112.668 58.16 113.028C58.16 113.388 58.046 113.682 57.818 113.91C57.59 114.138 57.296 114.252 56.936 114.252ZM56.936 107.394C56.588 107.394 56.294 107.28 56.054 107.052C55.826 106.824 55.712 106.53 55.712 106.17C55.712 105.81 55.826 105.516 56.054 105.288C56.294 105.06 56.588 104.946 56.936 104.946C57.296 104.946 57.59 105.06 57.818 105.288C58.046 105.516 58.16 105.81 58.16 106.17C58.16 106.53 58.046 106.824 57.818 107.052C57.59 107.28 57.296 107.394 56.936 107.394ZM69.2798 114.252C68.3558 114.252 67.5578 114.078 66.8858 113.73C66.2138 113.37 65.6918 112.878 65.3198 112.254C64.9478 111.618 64.7618 110.886 64.7618 110.058V109.842H66.2197V110.004C66.2197 110.952 66.4958 111.678 67.0478 112.182C67.5998 112.686 68.3318 112.938 69.2438 112.938C70.2038 112.938 70.9538 112.668 71.4938 112.128C72.0338 111.588 72.3038 110.85 72.3038 109.914V109.752C72.3038 108.852 72.0398 108.138 71.5118 107.61C70.9958 107.07 70.3238 106.8 69.4958 106.8C69.0158 106.8 68.6198 106.878 68.3078 107.034C67.9958 107.178 67.7498 107.364 67.5698 107.592C67.3898 107.808 67.2398 108.018 67.1198 108.222H65.1398V101.4H73.4198V102.714H66.5978V107.07H66.8498C66.9818 106.83 67.1618 106.596 67.3898 106.368C67.6298 106.14 67.9478 105.948 68.3438 105.792C68.7398 105.636 69.2318 105.558 69.8198 105.558C70.5518 105.558 71.2118 105.726 71.7998 106.062C72.3998 106.398 72.8738 106.878 73.2218 107.502C73.5818 108.126 73.7617 108.87 73.7617 109.734V109.932C73.7617 110.784 73.5818 111.534 73.2218 112.182C72.8618 112.83 72.3458 113.34 71.6738 113.712C71.0018 114.072 70.2038 114.252 69.2798 114.252ZM80.0551 114.252C79.1311 114.252 78.3331 114.078 77.6611 113.73C76.9891 113.37 76.4671 112.878 76.0951 112.254C75.7231 111.618 75.5371 110.886 75.5371 110.058V109.842H76.9951V110.004C76.9951 110.952 77.2711 111.678 77.8231 112.182C78.3751 112.686 79.1071 112.938 80.0191 112.938C80.9791 112.938 81.7291 112.668 82.2691 112.128C82.8091 111.588 83.0791 110.85 83.0791 109.914V109.752C83.0791 108.852 82.8151 108.138 82.2871 107.61C81.7711 107.07 81.0991 106.8 80.2711 106.8C79.7911 106.8 79.3951 106.878 79.0831 107.034C78.7711 107.178 78.5251 107.364 78.3451 107.592C78.1651 107.808 78.0151 108.018 77.8951 108.222H75.9151V101.4H84.1951V102.714H77.3731V107.07H77.6251C77.7571 106.83 77.9371 106.596 78.1651 106.368C78.4051 106.14 78.7231 105.948 79.1191 105.792C79.5151 105.636 80.0071 105.558 80.5951 105.558C81.3271 105.558 81.9871 105.726 82.5751 106.062C83.1751 106.398 83.6491 106.878 83.9971 107.502C84.3571 108.126 84.5371 108.87 84.5371 109.734V109.932C84.5371 110.784 84.3571 111.534 83.9971 112.182C83.6371 112.83 83.1211 113.34 82.4491 113.712C81.7771 114.072 80.9791 114.252 80.0551 114.252ZM90.8305 114.252C89.9065 114.252 89.1085 114.078 88.4365 113.73C87.7645 113.37 87.2425 112.878 86.8705 112.254C86.4985 111.618 86.3125 110.886 86.3125 110.058V109.842H87.7705V110.004C87.7705 110.952 88.0465 111.678 88.5985 112.182C89.1505 112.686 89.8825 112.938 90.7945 112.938C91.7545 112.938 92.5045 112.668 93.0445 112.128C93.5845 111.588 93.8545 110.85 93.8545 109.914V109.752C93.8545 108.852 93.5905 108.138 93.0625 107.61C92.5465 107.07 91.8745 106.8 91.0465 106.8C90.5665 106.8 90.1705 106.878 89.8585 107.034C89.5465 107.178 89.3005 107.364 89.1205 107.592C88.9405 107.808 88.7905 108.018 88.6705 108.222H86.6905V101.4H94.9705V102.714H88.1485V107.07H88.4005C88.5325 106.83 88.7125 106.596 88.9405 106.368C89.1805 106.14 89.4985 105.948 89.8945 105.792C90.2905 105.636 90.7825 105.558 91.3705 105.558C92.1025 105.558 92.7625 105.726 93.3505 106.062C93.9505 106.398 94.4245 106.878 94.7725 107.502C95.1325 108.126 95.3125 108.87 95.3125 109.734V109.932C95.3125 110.784 95.1325 111.534 94.7725 112.182C94.4125 112.83 93.8965 113.34 93.2245 113.712C92.5525 114.072 91.7545 114.252 90.8305 114.252ZM97.5919 110.022V108.708H102.92V110.022H97.5919ZM109.797 114.252C108.873 114.252 108.075 114.078 107.403 113.73C106.731 113.37 106.209 112.878 105.837 112.254C105.465 111.618 105.279 110.886 105.279 110.058V109.842H106.737V110.004C106.737 110.952 107.013 111.678 107.565 112.182C108.117 112.686 108.849 112.938 109.761 112.938C110.721 112.938 111.471 112.668 112.011 112.128C112.551 111.588 112.821 110.85 112.821 109.914V109.752C112.821 108.852 112.557 108.138 112.029 107.61C111.513 107.07 110.841 106.8 110.013 106.8C109.533 106.8 109.137 106.878 108.825 107.034C108.513 107.178 108.267 107.364 108.087 107.592C107.907 107.808 107.757 108.018 107.637 108.222H105.657V101.4H113.937V102.714H107.115V107.07H107.367C107.499 106.83 107.679 106.596 107.907 106.368C108.147 106.14 108.465 105.948 108.861 105.792C109.257 105.636 109.749 105.558 110.337 105.558C111.069 105.558 111.729 105.726 112.317 106.062C112.917 106.398 113.391 106.878 113.739 107.502C114.099 108.126 114.279 108.87 114.279 109.734V109.932C114.279 110.784 114.099 111.534 113.739 112.182C113.379 112.83 112.863 113.34 112.191 113.712C111.519 114.072 110.721 114.252 109.797 114.252ZM120.717 114.252C119.853 114.252 119.079 114.084 118.395 113.748C117.723 113.4 117.189 112.908 116.793 112.272C116.409 111.636 116.217 110.88 116.217 110.004V105.612C116.217 104.664 116.403 103.86 116.775 103.2C117.147 102.54 117.669 102.036 118.341 101.688C119.025 101.328 119.835 101.148 120.771 101.148C121.695 101.148 122.481 101.316 123.129 101.652C123.789 101.976 124.287 102.426 124.623 103.002C124.971 103.566 125.145 104.22 125.145 104.964H123.669C123.669 104.22 123.429 103.62 122.949 103.164C122.469 102.696 121.743 102.462 120.771 102.462C119.787 102.462 119.025 102.732 118.485 103.272C117.945 103.8 117.675 104.532 117.675 105.468V107.214H117.927C118.143 106.854 118.503 106.524 119.007 106.224C119.511 105.912 120.213 105.756 121.113 105.756C121.869 105.756 122.559 105.924 123.183 106.26C123.807 106.596 124.305 107.07 124.677 107.682C125.049 108.294 125.235 109.02 125.235 109.86V110.076C125.235 110.928 125.037 111.666 124.641 112.29C124.257 112.914 123.723 113.4 123.039 113.748C122.355 114.084 121.581 114.252 120.717 114.252ZM120.717 112.938C121.629 112.938 122.367 112.68 122.931 112.164C123.495 111.648 123.777 110.946 123.777 110.058V109.914C123.777 109.314 123.645 108.798 123.381 108.366C123.129 107.934 122.775 107.598 122.319 107.358C121.863 107.106 121.329 106.98 120.717 106.98C120.117 106.98 119.589 107.106 119.133 107.358C118.677 107.598 118.317 107.934 118.053 108.366C117.801 108.798 117.675 109.314 117.675 109.914V110.058C117.675 110.946 117.957 111.648 118.521 112.164C119.085 112.68 119.817 112.938 120.717 112.938ZM128.631 114V113.55C128.631 113.13 128.667 112.776 128.739 112.488C128.811 112.2 128.949 111.858 129.153 111.462L133.959 102.912V102.714H126.471V101.4H135.489V103.128L130.467 112.128C130.323 112.38 130.221 112.608 130.161 112.812C130.113 113.016 130.089 113.274 130.089 113.586V114H128.631ZM136.44 110.022V108.708H141.768V110.022H136.44ZM148.807 114.252C147.835 114.252 146.989 114.108 146.269 113.82C145.561 113.52 145.009 113.106 144.613 112.578C144.229 112.038 144.037 111.408 144.037 110.688V110.49C144.037 109.866 144.169 109.35 144.433 108.942C144.697 108.534 145.015 108.222 145.387 108.006C145.771 107.778 146.125 107.634 146.449 107.574V107.34C146.125 107.244 145.789 107.088 145.441 106.872C145.105 106.656 144.823 106.362 144.595 105.99C144.379 105.618 144.271 105.162 144.271 104.622V104.424C144.271 103.74 144.463 103.158 144.847 102.678C145.243 102.186 145.783 101.808 146.467 101.544C147.151 101.28 147.931 101.148 148.807 101.148C149.695 101.148 150.475 101.28 151.147 101.544C151.831 101.808 152.365 102.186 152.749 102.678C153.145 103.158 153.343 103.74 153.343 104.424V104.622C153.343 105.162 153.235 105.618 153.019 105.99C152.803 106.362 152.527 106.656 152.191 106.872C151.855 107.088 151.519 107.244 151.183 107.34V107.574C151.519 107.634 151.873 107.778 152.245 108.006C152.617 108.222 152.929 108.534 153.181 108.942C153.445 109.35 153.577 109.866 153.577 110.49V110.688C153.577 111.408 153.385 112.038 153.001 112.578C152.617 113.106 152.065 113.52 151.345 113.82C150.637 114.108 149.791 114.252 148.807 114.252ZM148.807 112.938C149.827 112.938 150.631 112.74 151.219 112.344C151.819 111.948 152.119 111.372 152.119 110.616V110.472C152.119 109.716 151.825 109.14 151.237 108.744C150.649 108.348 149.839 108.15 148.807 108.15C147.787 108.15 146.983 108.348 146.395 108.744C145.807 109.14 145.513 109.716 145.513 110.472V110.616C145.513 111.372 145.807 111.948 146.395 112.344C146.995 112.74 147.799 112.938 148.807 112.938ZM148.807 106.836C149.767 106.836 150.517 106.656 151.057 106.296C151.609 105.924 151.885 105.402 151.885 104.73V104.586C151.885 103.902 151.609 103.38 151.057 103.02C150.505 102.648 149.755 102.462 148.807 102.462C147.859 102.462 147.109 102.648 146.557 103.02C146.005 103.38 145.729 103.902 145.729 104.586V104.73C145.729 105.402 146.005 105.924 146.557 106.296C147.109 106.656 147.859 106.836 148.807 106.836ZM159.806 114.252C158.882 114.252 158.09 114.09 157.43 113.766C156.782 113.43 156.29 112.974 155.954 112.398C155.618 111.822 155.45 111.168 155.45 110.436H156.908C156.908 111.18 157.154 111.786 157.646 112.254C158.138 112.71 158.858 112.938 159.806 112.938C160.802 112.938 161.564 112.674 162.092 112.146C162.632 111.606 162.902 110.868 162.902 109.932V108.186H162.668C162.44 108.546 162.074 108.882 161.57 109.194C161.078 109.494 160.382 109.644 159.482 109.644C158.726 109.644 158.03 109.476 157.394 109.14C156.77 108.804 156.272 108.33 155.9 107.718C155.528 107.106 155.342 106.38 155.342 105.54V105.324C155.342 104.46 155.54 103.722 155.936 103.11C156.332 102.486 156.866 102.006 157.538 101.67C158.222 101.322 158.996 101.148 159.86 101.148C160.736 101.148 161.51 101.322 162.182 101.67C162.866 102.006 163.4 102.492 163.784 103.128C164.168 103.752 164.36 104.508 164.36 105.396V109.788C164.36 110.724 164.174 111.528 163.802 112.2C163.442 112.86 162.92 113.37 162.236 113.73C161.552 114.078 160.742 114.252 159.806 114.252ZM159.86 108.42C160.46 108.42 160.988 108.3 161.444 108.06C161.9 107.808 162.254 107.466 162.506 107.034C162.77 106.59 162.902 106.074 162.902 105.486V105.342C162.902 104.442 162.62 103.74 162.056 103.236C161.504 102.72 160.772 102.462 159.86 102.462C158.948 102.462 158.21 102.72 157.646 103.236C157.082 103.74 156.8 104.442 156.8 105.342V105.486C156.8 106.074 156.926 106.59 157.178 107.034C157.442 107.466 157.802 107.808 158.258 108.06C158.726 108.3 159.26 108.42 159.86 108.42ZM171.205 114.252C169.777 114.252 168.637 113.832 167.785 112.992C166.945 112.14 166.525 110.868 166.525 109.176V106.224C166.525 104.544 166.945 103.278 167.785 102.426C168.637 101.574 169.777 101.148 171.205 101.148C172.645 101.148 173.785 101.574 174.625 102.426C175.477 103.278 175.903 104.544 175.903 106.224V109.176C175.903 110.868 175.477 112.14 174.625 112.992C173.785 113.832 172.645 114.252 171.205 114.252ZM171.205 112.938C172.285 112.938 173.095 112.614 173.635 111.966C174.175 111.318 174.445 110.412 174.445 109.248V106.134C174.445 104.97 174.169 104.07 173.617 103.434C173.065 102.786 172.261 102.462 171.205 102.462C170.149 102.462 169.345 102.786 168.793 103.434C168.253 104.082 167.983 104.982 167.983 106.134V109.248C167.983 110.424 168.253 111.336 168.793 111.984C169.333 112.62 170.137 112.938 171.205 112.938ZM181.603 114V102.372H181.333L178.885 106.854H177.301L180.307 101.4H183.061V114H181.603Z" fill="white"/>
<path d="M0.45 157L4.338 144.4H7.002L10.89 157H9.324L8.352 153.814H2.988L2.016 157H0.45ZM3.366 152.446H7.956L5.796 145.318H5.544L3.366 152.446ZM16.5579 157.252C15.8019 157.252 15.1059 157.072 14.4699 156.712C13.8339 156.352 13.3299 155.83 12.9579 155.146C12.5859 154.462 12.3999 153.652 12.3999 152.716V152.482C12.3999 151.546 12.5859 150.742 12.9579 150.07C13.3299 149.386 13.8279 148.864 14.4519 148.504C15.0879 148.132 15.7899 147.946 16.5579 147.946C17.1699 147.946 17.6859 148.03 18.1059 148.198C18.5379 148.354 18.8859 148.558 19.1499 148.81C19.4139 149.05 19.6179 149.308 19.7619 149.584H20.0139V144.4H21.4359V157H20.0499V155.542H19.7979C19.5579 155.986 19.1859 156.382 18.6819 156.73C18.1779 157.078 17.4699 157.252 16.5579 157.252ZM16.9359 155.992C17.8479 155.992 18.5859 155.704 19.1499 155.128C19.7259 154.54 20.0139 153.724 20.0139 152.68V152.518C20.0139 151.474 19.7259 150.664 19.1499 150.088C18.5859 149.5 17.8479 149.206 16.9359 149.206C16.0359 149.206 15.2919 149.5 14.7039 150.088C14.1279 150.664 13.8399 151.474 13.8399 152.518V152.68C13.8399 153.724 14.1279 154.54 14.7039 155.128C15.2919 155.704 16.0359 155.992 16.9359 155.992ZM28.1419 157.252C27.3859 157.252 26.6899 157.072 26.0539 156.712C25.4179 156.352 24.9139 155.83 24.5419 155.146C24.1699 154.462 23.9839 153.652 23.9839 152.716V152.482C23.9839 151.546 24.1699 150.742 24.5419 150.07C24.9139 149.386 25.4119 148.864 26.0359 148.504C26.6719 148.132 27.3739 147.946 28.1419 147.946C28.7539 147.946 29.2699 148.03 29.6899 148.198C30.1219 148.354 30.4699 148.558 30.7339 148.81C30.9979 149.05 31.2019 149.308 31.3459 149.584H31.5979V144.4H33.0199V157H31.6339V155.542H31.3819C31.1419 155.986 30.7699 156.382 30.2659 156.73C29.7619 157.078 29.0539 157.252 28.1419 157.252ZM28.5199 155.992C29.4319 155.992 30.1699 155.704 30.7339 155.128C31.3099 154.54 31.5979 153.724 31.5979 152.68V152.518C31.5979 151.474 31.3099 150.664 30.7339 150.088C30.1699 149.5 29.4319 149.206 28.5199 149.206C27.6199 149.206 26.8759 149.5 26.2879 150.088C25.7119 150.664 25.4239 151.474 25.4239 152.518V152.68C25.4239 153.724 25.7119 154.54 26.2879 155.128C26.8759 155.704 27.6199 155.992 28.5199 155.992ZM35.9999 157V148.198H37.3859V149.278H37.6379C37.7939 148.894 38.0339 148.612 38.3579 148.432C38.6819 148.252 39.1079 148.162 39.6359 148.162H40.6799V149.458H39.5459C38.9099 149.458 38.3939 149.638 37.9979 149.998C37.6139 150.346 37.4219 150.892 37.4219 151.636V157H35.9999ZM46.5006 157.252C45.6126 157.252 44.8326 157.066 44.1606 156.694C43.4886 156.31 42.9666 155.776 42.5946 155.092C42.2226 154.408 42.0366 153.616 42.0366 152.716V152.5C42.0366 151.588 42.2226 150.79 42.5946 150.106C42.9666 149.422 43.4826 148.894 44.1426 148.522C44.8026 148.138 45.5586 147.946 46.4106 147.946C47.2386 147.946 47.9706 148.126 48.6066 148.486C49.2426 148.834 49.7406 149.338 50.1006 149.998C50.4606 150.658 50.6406 151.432 50.6406 152.32V152.968H43.4586C43.4946 153.916 43.8006 154.66 44.3766 155.2C44.9526 155.728 45.6726 155.992 46.5366 155.992C47.2926 155.992 47.8746 155.818 48.2826 155.47C48.6906 155.122 49.0026 154.708 49.2186 154.228L50.4426 154.822C50.2626 155.194 50.0106 155.566 49.6866 155.938C49.3746 156.31 48.9606 156.622 48.4446 156.874C47.9406 157.126 47.2926 157.252 46.5006 157.252ZM43.4766 151.798H49.2006C49.1526 150.982 48.8706 150.346 48.3546 149.89C47.8506 149.434 47.2026 149.206 46.4106 149.206C45.6066 149.206 44.9466 149.434 44.4306 149.89C43.9146 150.346 43.5966 150.982 43.4766 151.798ZM56.667 157.252C55.575 157.252 54.651 157 53.895 156.496C53.151 155.992 52.701 155.194 52.545 154.102L53.895 153.796C53.991 154.372 54.171 154.828 54.435 155.164C54.699 155.488 55.023 155.722 55.407 155.866C55.803 155.998 56.223 156.064 56.667 156.064C57.327 156.064 57.849 155.932 58.233 155.668C58.617 155.404 58.809 155.05 58.809 154.606C58.809 154.15 58.623 153.832 58.251 153.652C57.891 153.46 57.393 153.304 56.757 153.184L56.019 153.058C55.455 152.962 54.939 152.812 54.471 152.608C54.003 152.404 53.631 152.128 53.355 151.78C53.079 151.432 52.941 150.994 52.941 150.466C52.941 149.674 53.247 149.056 53.859 148.612C54.471 148.168 55.281 147.946 56.289 147.946C57.285 147.946 58.089 148.174 58.701 148.63C59.325 149.074 59.727 149.704 59.907 150.52L58.575 150.862C58.467 150.226 58.209 149.782 57.801 149.53C57.393 149.266 56.889 149.134 56.289 149.134C55.689 149.134 55.215 149.248 54.867 149.476C54.519 149.692 54.345 150.016 54.345 150.448C54.345 150.868 54.507 151.18 54.831 151.384C55.167 151.576 55.611 151.72 56.163 151.816L56.901 151.942C57.525 152.05 58.083 152.2 58.575 152.392C59.079 152.572 59.475 152.836 59.763 153.184C60.063 153.532 60.213 153.988 60.213 154.552C60.213 155.416 59.889 156.082 59.241 156.55C58.605 157.018 57.747 157.252 56.667 157.252ZM66.1591 157.252C65.0671 157.252 64.1431 157 63.3871 156.496C62.6431 155.992 62.1931 155.194 62.0371 154.102L63.3871 153.796C63.4831 154.372 63.6631 154.828 63.9271 155.164C64.1911 155.488 64.5151 155.722 64.8991 155.866C65.2951 155.998 65.7151 156.064 66.1591 156.064C66.8191 156.064 67.3411 155.932 67.7251 155.668C68.1091 155.404 68.3011 155.05 68.3011 154.606C68.3011 154.15 68.1151 153.832 67.7431 153.652C67.3831 153.46 66.8851 153.304 66.2491 153.184L65.5111 153.058C64.9471 152.962 64.4311 152.812 63.9631 152.608C63.4951 152.404 63.1231 152.128 62.8471 151.78C62.5711 151.432 62.4331 150.994 62.4331 150.466C62.4331 149.674 62.7391 149.056 63.3511 148.612C63.9631 148.168 64.7731 147.946 65.7811 147.946C66.7771 147.946 67.5811 148.174 68.1931 148.63C68.8171 149.074 69.2191 149.704 69.3991 150.52L68.0671 150.862C67.9591 150.226 67.7011 149.782 67.2931 149.53C66.8851 149.266 66.3811 149.134 65.7811 149.134C65.1811 149.134 64.7071 149.248 64.3591 149.476C64.0111 149.692 63.8371 150.016 63.8371 150.448C63.8371 150.868 63.9991 151.18 64.3231 151.384C64.6591 151.576 65.1031 151.72 65.6551 151.816L66.3931 151.942C67.0171 152.05 67.5751 152.2 68.0671 152.392C68.5711 152.572 68.9671 152.836 69.2551 153.184C69.5551 153.532 69.7051 153.988 69.7051 154.552C69.7051 155.416 69.3811 156.082 68.7331 156.55C68.0971 157.018 67.2391 157.252 66.1591 157.252ZM72.8793 157.252C72.5313 157.252 72.2373 157.138 71.9973 156.91C71.7693 156.682 71.6553 156.388 71.6553 156.028C71.6553 155.668 71.7693 155.374 71.9973 155.146C72.2373 154.918 72.5313 154.804 72.8793 154.804C73.2393 154.804 73.5333 154.918 73.7613 155.146C73.9893 155.374 74.1033 155.668 74.1033 156.028C74.1033 156.388 73.9893 156.682 73.7613 156.91C73.5333 157.138 73.2393 157.252 72.8793 157.252ZM72.8793 150.394C72.5313 150.394 72.2373 150.28 71.9973 150.052C71.7693 149.824 71.6553 149.53 71.6553 149.17C71.6553 148.81 71.7693 148.516 71.9973 148.288C72.2373 148.06 72.5313 147.946 72.8793 147.946C73.2393 147.946 73.5333 148.06 73.7613 148.288C73.9893 148.516 74.1033 148.81 74.1033 149.17C74.1033 149.53 73.9893 149.824 73.7613 150.052C73.5333 150.28 73.2393 150.394 72.8793 150.394ZM84.4131 157V145.372H84.1431L81.6951 149.854H80.1111L83.1171 144.4H85.8711V157H84.4131ZM88.2645 157V155.686C88.2645 154.786 88.4205 154.066 88.7325 153.526C89.0565 152.986 89.5005 152.554 90.0645 152.23C90.6405 151.894 91.3245 151.606 92.1165 151.366L93.1065 151.06C93.6465 150.892 94.1205 150.688 94.5285 150.448C94.9365 150.196 95.2545 149.884 95.4825 149.512C95.7105 149.128 95.8245 148.66 95.8245 148.108V148.036C95.8245 147.244 95.5485 146.62 94.9965 146.164C94.4445 145.696 93.7365 145.462 92.8725 145.462C91.9605 145.462 91.2165 145.708 90.6405 146.2C90.0645 146.68 89.7765 147.412 89.7765 148.396V148.648H88.3365V148.414C88.3365 147.502 88.5345 146.728 88.9305 146.092C89.3265 145.456 89.8665 144.976 90.5505 144.652C91.2345 144.316 92.0085 144.148 92.8725 144.148C93.7365 144.148 94.4985 144.31 95.1585 144.634C95.8305 144.958 96.3525 145.408 96.7245 145.984C97.0965 146.56 97.2825 147.232 97.2825 148V148.162C97.2825 148.978 97.1205 149.656 96.7965 150.196C96.4725 150.724 96.0225 151.156 95.4465 151.492C94.8825 151.828 94.2165 152.116 93.4485 152.356L92.4765 152.662C91.8645 152.854 91.3545 153.058 90.9465 153.274C90.5505 153.478 90.2505 153.742 90.0465 154.066C89.8425 154.39 89.7405 154.828 89.7405 155.38V155.686H97.1745V157H88.2645ZM103.54 157.252C102.652 157.252 101.854 157.084 101.146 156.748C100.45 156.412 99.8979 155.926 99.4899 155.29C99.0939 154.654 98.8959 153.886 98.8959 152.986V152.644H100.354V152.968C100.354 153.892 100.648 154.618 101.236 155.146C101.824 155.674 102.592 155.938 103.54 155.938C104.5 155.938 105.244 155.692 105.772 155.2C106.312 154.696 106.582 154.066 106.582 153.31V153.166C106.582 152.614 106.45 152.17 106.186 151.834C105.922 151.486 105.562 151.234 105.106 151.078C104.662 150.91 104.17 150.826 103.63 150.826H101.578V149.008L106.384 145.93V145.714H99.2019V144.4H107.932V146.434L103.234 149.458V149.674H104.134C104.842 149.674 105.49 149.806 106.078 150.07C106.678 150.322 107.152 150.706 107.5 151.222C107.86 151.726 108.04 152.362 108.04 153.13V153.328C108.04 154.12 107.854 154.81 107.482 155.398C107.11 155.986 106.588 156.442 105.916 156.766C105.244 157.09 104.452 157.252 103.54 157.252ZM116.095 157V154.426H109.525V152.698L114.817 144.4H117.553V153.112H119.713V154.426H117.553V157H116.095ZM110.983 153.112H116.095V145.282H115.843L110.983 152.896V153.112ZM126.262 157V144.4H129.142L132.49 156.046H132.724L136.072 144.4H138.952V157H137.494V145.39H137.242L133.912 157H131.302L127.972 145.39H127.72V157H126.262ZM144.59 157.252C143.978 157.252 143.42 157.144 142.916 156.928C142.412 156.712 142.016 156.4 141.728 155.992C141.44 155.584 141.296 155.086 141.296 154.498C141.296 153.898 141.44 153.406 141.728 153.022C142.016 152.626 142.412 152.332 142.916 152.14C143.42 151.936 143.984 151.834 144.608 151.834H147.578V151.186C147.578 150.562 147.392 150.07 147.02 149.71C146.66 149.35 146.12 149.17 145.4 149.17C144.692 149.17 144.14 149.344 143.744 149.692C143.348 150.028 143.078 150.484 142.934 151.06L141.602 150.628C141.746 150.136 141.974 149.692 142.286 149.296C142.598 148.888 143.012 148.564 143.528 148.324C144.056 148.072 144.686 147.946 145.418 147.946C146.546 147.946 147.422 148.24 148.046 148.828C148.67 149.404 148.982 150.22 148.982 151.276V155.254C148.982 155.614 149.15 155.794 149.486 155.794H150.296V157H149.054C148.658 157 148.34 156.892 148.1 156.676C147.86 156.448 147.74 156.148 147.74 155.776V155.686H147.524C147.392 155.914 147.212 156.154 146.984 156.406C146.768 156.646 146.468 156.844 146.084 157C145.7 157.168 145.202 157.252 144.59 157.252ZM144.752 156.028C145.592 156.028 146.27 155.782 146.786 155.29C147.314 154.786 147.578 154.084 147.578 153.184V152.986H144.662C144.098 152.986 143.63 153.112 143.258 153.364C142.898 153.604 142.718 153.97 142.718 154.462C142.718 154.954 142.904 155.338 143.276 155.614C143.66 155.89 144.152 156.028 144.752 156.028ZM152.244 157V148.198H153.666V157H152.244ZM152.964 146.83C152.652 146.83 152.388 146.728 152.172 146.524C151.968 146.32 151.866 146.062 151.866 145.75C151.866 145.426 151.968 145.162 152.172 144.958C152.388 144.754 152.652 144.652 152.964 144.652C153.276 144.652 153.534 144.754 153.738 144.958C153.942 145.162 154.044 145.426 154.044 145.75C154.044 146.062 153.942 146.32 153.738 146.524C153.534 146.728 153.276 146.83 152.964 146.83ZM156.656 157V148.198H158.042V149.692H158.294C158.486 149.272 158.81 148.894 159.266 148.558C159.734 148.21 160.418 148.036 161.318 148.036C161.978 148.036 162.566 148.174 163.082 148.45C163.61 148.726 164.03 149.134 164.342 149.674C164.654 150.214 164.81 150.88 164.81 151.672V157H163.388V151.78C163.388 150.904 163.166 150.268 162.722 149.872C162.29 149.476 161.702 149.278 160.958 149.278C160.106 149.278 159.41 149.554 158.87 150.106C158.342 150.658 158.078 151.48 158.078 152.572V157H156.656ZM176.441 157.252C175.529 157.252 174.713 157.09 173.993 156.766C173.273 156.442 172.703 155.956 172.283 155.308C171.875 154.648 171.671 153.826 171.671 152.842V152.464H173.165V152.842C173.165 153.886 173.471 154.666 174.083 155.182C174.695 155.686 175.481 155.938 176.441 155.938C177.425 155.938 178.175 155.716 178.691 155.272C179.207 154.828 179.465 154.27 179.465 153.598C179.465 153.13 179.345 152.758 179.105 152.482C178.877 152.206 178.553 151.984 178.133 151.816C177.713 151.636 177.221 151.48 176.657 151.348L175.721 151.114C174.989 150.922 174.341 150.688 173.777 150.412C173.213 150.136 172.769 149.776 172.445 149.332C172.133 148.876 171.977 148.294 171.977 147.586C171.977 146.878 172.151 146.266 172.499 145.75C172.859 145.234 173.357 144.838 173.993 144.562C174.641 144.286 175.385 144.148 176.225 144.148C177.077 144.148 177.839 144.298 178.511 144.598C179.195 144.886 179.729 145.318 180.113 145.894C180.509 146.458 180.707 147.172 180.707 148.036V148.792H179.213V148.036C179.213 147.424 179.081 146.932 178.817 146.56C178.565 146.188 178.211 145.912 177.755 145.732C177.311 145.552 176.801 145.462 176.225 145.462C175.397 145.462 174.731 145.648 174.227 146.02C173.723 146.38 173.471 146.896 173.471 147.568C173.471 148.012 173.579 148.372 173.795 148.648C174.011 148.924 174.317 149.152 174.713 149.332C175.109 149.5 175.583 149.65 176.135 149.782L177.071 150.016C177.803 150.172 178.457 150.388 179.033 150.664C179.621 150.928 180.089 151.294 180.437 151.762C180.785 152.218 180.959 152.818 180.959 153.562C180.959 154.306 180.773 154.954 180.401 155.506C180.029 156.058 179.501 156.49 178.817 156.802C178.145 157.102 177.353 157.252 176.441 157.252ZM186.58 157C186.076 157 185.686 156.862 185.41 156.586C185.146 156.31 185.014 155.932 185.014 155.452V149.44H182.368V148.198H185.014V145.066H186.436V148.198H189.316V149.44H186.436V155.236C186.436 155.596 186.61 155.776 186.958 155.776H188.92V157H186.58ZM1.44 180V167.4H4.32L7.668 179.046H7.902L11.25 167.4H14.13V180H12.672V168.39H12.42L9.09 180H6.48L3.15 168.39H2.898V180H1.44ZM21.1362 180.252C20.2482 180.252 19.4622 180.066 18.7782 179.694C18.1062 179.322 17.5782 178.8 17.1942 178.128C16.8222 177.444 16.6362 176.64 16.6362 175.716V175.482C16.6362 174.57 16.8222 173.772 17.1942 173.088C17.5782 172.404 18.1062 171.876 18.7782 171.504C19.4622 171.132 20.2482 170.946 21.1362 170.946C22.0242 170.946 22.8042 171.132 23.4762 171.504C24.1602 171.876 24.6882 172.404 25.0602 173.088C25.4442 173.772 25.6362 174.57 25.6362 175.482V175.716C25.6362 176.64 25.4442 177.444 25.0602 178.128C24.6882 178.8 24.1602 179.322 23.4762 179.694C22.8042 180.066 22.0242 180.252 21.1362 180.252ZM21.1362 178.974C22.0722 178.974 22.8162 178.68 23.3682 178.092C23.9322 177.492 24.2142 176.688 24.2142 175.68V175.518C24.2142 174.51 23.9322 173.712 23.3682 173.124C22.8162 172.524 22.0722 172.224 21.1362 172.224C20.2122 172.224 19.4682 172.524 18.9042 173.124C18.3402 173.712 18.0582 174.51 18.0582 175.518V175.68C18.0582 176.688 18.3402 177.492 18.9042 178.092C19.4682 178.68 20.2122 178.974 21.1362 178.974ZM32.2632 180.252C31.3752 180.252 30.5892 180.066 29.9052 179.694C29.2332 179.322 28.7052 178.8 28.3212 178.128C27.9492 177.444 27.7632 176.64 27.7632 175.716V175.482C27.7632 174.57 27.9492 173.772 28.3212 173.088C28.7052 172.404 29.2332 171.876 29.9052 171.504C30.5892 171.132 31.3752 170.946 32.2632 170.946C33.1512 170.946 33.9312 171.132 34.6032 171.504C35.2872 171.876 35.8152 172.404 36.1872 173.088C36.5712 173.772 36.7632 174.57 36.7632 175.482V175.716C36.7632 176.64 36.5712 177.444 36.1872 178.128C35.8152 178.8 35.2872 179.322 34.6032 179.694C33.9312 180.066 33.1512 180.252 32.2632 180.252ZM32.2632 178.974C33.1992 178.974 33.9432 178.68 34.4952 178.092C35.0592 177.492 35.3412 176.688 35.3412 175.68V175.518C35.3412 174.51 35.0592 173.712 34.4952 173.124C33.9432 172.524 33.1992 172.224 32.2632 172.224C31.3392 172.224 30.5952 172.524 30.0312 173.124C29.4672 173.712 29.1852 174.51 29.1852 175.518V175.68C29.1852 176.688 29.4672 177.492 30.0312 178.092C30.5952 178.68 31.3392 178.974 32.2632 178.974ZM39.3221 180V171.198H40.7081V172.692H40.9601C41.1521 172.272 41.4761 171.894 41.9321 171.558C42.4001 171.21 43.0841 171.036 43.9841 171.036C44.6441 171.036 45.2321 171.174 45.7481 171.45C46.2761 171.726 46.6961 172.134 47.0081 172.674C47.3201 173.214 47.4761 173.88 47.4761 174.672V180H46.0541V174.78C46.0541 173.904 45.8321 173.268 45.3881 172.872C44.9561 172.476 44.3681 172.278 43.6241 172.278C42.7721 172.278 42.0761 172.554 41.5361 173.106C41.0081 173.658 40.7441 174.48 40.7441 175.572V180H39.3221ZM53.9072 180.252C52.8152 180.252 51.8912 180 51.1352 179.496C50.3912 178.992 49.9412 178.194 49.7852 177.102L51.1352 176.796C51.2312 177.372 51.4112 177.828 51.6752 178.164C51.9392 178.488 52.2632 178.722 52.6472 178.866C53.0432 178.998 53.4632 179.064 53.9072 179.064C54.5672 179.064 55.0892 178.932 55.4732 178.668C55.8572 178.404 56.0492 178.05 56.0492 177.606C56.0492 177.15 55.8632 176.832 55.4912 176.652C55.1312 176.46 54.6332 176.304 53.9972 176.184L53.2592 176.058C52.6952 175.962 52.1792 175.812 51.7112 175.608C51.2432 175.404 50.8712 175.128 50.5952 174.78C50.3192 174.432 50.1812 173.994 50.1812 173.466C50.1812 172.674 50.4872 172.056 51.0992 171.612C51.7112 171.168 52.5212 170.946 53.5292 170.946C54.5252 170.946 55.3292 171.174 55.9412 171.63C56.5652 172.074 56.9672 172.704 57.1472 173.52L55.8152 173.862C55.7072 173.226 55.4492 172.782 55.0412 172.53C54.6332 172.266 54.1292 172.134 53.5292 172.134C52.9292 172.134 52.4552 172.248 52.1072 172.476C51.7592 172.692 51.5852 173.016 51.5852 173.448C51.5852 173.868 51.7472 174.18 52.0712 174.384C52.4072 174.576 52.8512 174.72 53.4032 174.816L54.1412 174.942C54.7652 175.05 55.3232 175.2 55.8152 175.392C56.3192 175.572 56.7152 175.836 57.0032 176.184C57.3032 176.532 57.4532 176.988 57.4532 177.552C57.4532 178.416 57.1292 179.082 56.4812 179.55C55.8452 180.018 54.9872 180.252 53.9072 180.252ZM62.9 180C62.396 180 62.006 179.862 61.73 179.586C61.466 179.31 61.334 178.932 61.334 178.452V172.44H58.688V171.198H61.334V168.066H62.756V171.198H65.636V172.44H62.756V178.236C62.756 178.596 62.93 178.776 63.278 178.776H65.24V180H62.9ZM71.6909 180.252C70.8029 180.252 70.0169 180.066 69.3329 179.694C68.6609 179.322 68.1329 178.8 67.7489 178.128C67.3769 177.444 67.1909 176.64 67.1909 175.716V175.482C67.1909 174.57 67.3769 173.772 67.7489 173.088C68.1329 172.404 68.6609 171.876 69.3329 171.504C70.0169 171.132 70.8029 170.946 71.6909 170.946C72.5789 170.946 73.3589 171.132 74.0309 171.504C74.7149 171.876 75.2429 172.404 75.6149 173.088C75.9989 173.772 76.1909 174.57 76.1909 175.482V175.716C76.1909 176.64 75.9989 177.444 75.6149 178.128C75.2429 178.8 74.7149 179.322 74.0309 179.694C73.3589 180.066 72.5789 180.252 71.6909 180.252ZM71.6909 178.974C72.6269 178.974 73.3709 178.68 73.9229 178.092C74.4869 177.492 74.7689 176.688 74.7689 175.68V175.518C74.7689 174.51 74.4869 173.712 73.9229 173.124C73.3709 172.524 72.6269 172.224 71.6909 172.224C70.7669 172.224 70.0229 172.524 69.4589 173.124C68.8949 173.712 68.6129 174.51 68.6129 175.518V175.68C68.6129 176.688 68.8949 177.492 69.4589 178.092C70.0229 178.68 70.7669 178.974 71.6909 178.974ZM78.7499 180V171.198H80.1359V172.692H80.3879C80.5799 172.272 80.9039 171.894 81.3599 171.558C81.8279 171.21 82.5119 171.036 83.4119 171.036C84.0719 171.036 84.6599 171.174 85.1759 171.45C85.7039 171.726 86.1239 172.134 86.4359 172.674C86.7479 173.214 86.9039 173.88 86.9039 174.672V180H85.4819V174.78C85.4819 173.904 85.2599 173.268 84.8159 172.872C84.3839 172.476 83.7959 172.278 83.0519 172.278C82.1999 172.278 81.5039 172.554 80.9639 173.106C80.4359 173.658 80.1719 174.48 80.1719 175.572V180H78.7499ZM93.8209 180.252C92.9329 180.252 92.1529 180.066 91.4809 179.694C90.8089 179.31 90.2869 178.776 89.9149 178.092C89.5429 177.408 89.3569 176.616 89.3569 175.716V175.5C89.3569 174.588 89.5429 173.79 89.9149 173.106C90.2869 172.422 90.8029 171.894 91.4629 171.522C92.1229 171.138 92.8789 170.946 93.7309 170.946C94.5589 170.946 95.2909 171.126 95.9269 171.486C96.5629 171.834 97.0609 172.338 97.4209 172.998C97.7809 173.658 97.9609 174.432 97.9609 175.32V175.968H90.7789C90.8149 176.916 91.1209 177.66 91.6969 178.2C92.2729 178.728 92.9929 178.992 93.8569 178.992C94.6129 178.992 95.1949 178.818 95.6029 178.47C96.0109 178.122 96.3229 177.708 96.5389 177.228L97.7629 177.822C97.5829 178.194 97.3309 178.566 97.0069 178.938C96.6949 179.31 96.2809 179.622 95.7649 179.874C95.2609 180.126 94.6129 180.252 93.8209 180.252ZM90.7969 174.798H96.5209C96.4729 173.982 96.1909 173.346 95.6749 172.89C95.1709 172.434 94.5229 172.206 93.7309 172.206C92.9269 172.206 92.2669 172.434 91.7509 172.89C91.2349 173.346 90.9169 173.982 90.7969 174.798ZM109.564 180.252C108.064 180.252 106.87 179.82 105.982 178.956C105.094 178.08 104.65 176.808 104.65 175.14V172.26C104.65 170.592 105.094 169.326 105.982 168.462C106.87 167.586 108.064 167.148 109.564 167.148C111.052 167.148 112.192 167.562 112.984 168.39C113.788 169.218 114.19 170.352 114.19 171.792V171.882H112.696V171.738C112.696 170.79 112.438 170.016 111.922 169.416C111.418 168.804 110.632 168.498 109.564 168.498C108.496 168.498 107.662 168.828 107.062 169.488C106.462 170.136 106.162 171.048 106.162 172.224V175.176C106.162 176.352 106.462 177.27 107.062 177.93C107.662 178.578 108.496 178.902 109.564 178.902C110.632 178.902 111.418 178.602 111.922 178.002C112.438 177.39 112.696 176.61 112.696 175.662V175.374H114.19V175.608C114.19 177.048 113.788 178.182 112.984 179.01C112.192 179.838 111.052 180.252 109.564 180.252ZM116.613 180V171.198H118.035V180H116.613ZM117.333 169.83C117.021 169.83 116.757 169.728 116.541 169.524C116.337 169.32 116.235 169.062 116.235 168.75C116.235 168.426 116.337 168.162 116.541 167.958C116.757 167.754 117.021 167.652 117.333 167.652C117.645 167.652 117.903 167.754 118.107 167.958C118.311 168.162 118.413 168.426 118.413 168.75C118.413 169.062 118.311 169.32 118.107 169.524C117.903 169.728 117.645 169.83 117.333 169.83ZM124.265 180C123.761 180 123.371 179.862 123.095 179.586C122.831 179.31 122.699 178.932 122.699 178.452V172.44H120.053V171.198H122.699V168.066H124.121V171.198H127.001V172.44H124.121V178.236C124.121 178.596 124.295 178.776 124.643 178.776H126.605V180H124.265ZM130.367 183.6V182.34H135.407C135.755 182.34 135.929 182.16 135.929 181.8V178.596H135.677C135.557 178.848 135.371 179.1 135.119 179.352C134.879 179.592 134.561 179.79 134.165 179.946C133.769 180.09 133.271 180.162 132.671 180.162C132.035 180.162 131.447 180.024 130.907 179.748C130.379 179.472 129.959 179.064 129.647 178.524C129.347 177.984 129.197 177.324 129.197 176.544V171.198H130.619V176.436C130.619 177.3 130.835 177.93 131.267 178.326C131.711 178.722 132.305 178.92 133.049 178.92C133.889 178.92 134.579 178.644 135.119 178.092C135.659 177.54 135.929 176.718 135.929 175.626V171.198H137.351V182.052C137.351 182.532 137.213 182.91 136.937 183.186C136.673 183.462 136.283 183.6 135.767 183.6H130.367ZM140.182 182.25V181.35H140.704C141.136 181.35 141.352 181.134 141.352 180.702V180.126H141.1C140.752 180.126 140.458 180.018 140.218 179.802C139.99 179.586 139.876 179.316 139.876 178.992C139.876 178.644 139.99 178.362 140.218 178.146C140.458 177.93 140.752 177.822 141.1 177.822C141.448 177.822 141.736 177.936 141.964 178.164C142.192 178.392 142.306 178.68 142.306 179.028V180.702C142.306 181.734 141.79 182.25 140.758 182.25H140.182ZM152.991 180.252C152.079 180.252 151.263 180.09 150.543 179.766C149.823 179.442 149.253 178.956 148.833 178.308C148.425 177.648 148.221 176.826 148.221 175.842V175.464H149.715V175.842C149.715 176.886 150.021 177.666 150.633 178.182C151.245 178.686 152.031 178.938 152.991 178.938C153.975 178.938 154.725 178.716 155.241 178.272C155.757 177.828 156.015 177.27 156.015 176.598C156.015 176.13 155.895 175.758 155.655 175.482C155.427 175.206 155.103 174.984 154.683 174.816C154.263 174.636 153.771 174.48 153.207 174.348L152.271 174.114C151.539 173.922 150.891 173.688 150.327 173.412C149.763 173.136 149.319 172.776 148.995 172.332C148.683 171.876 148.527 171.294 148.527 170.586C148.527 169.878 148.701 169.266 149.049 168.75C149.409 168.234 149.907 167.838 150.543 167.562C151.191 167.286 151.935 167.148 152.775 167.148C153.627 167.148 154.389 167.298 155.061 167.598C155.745 167.886 156.279 168.318 156.663 168.894C157.059 169.458 157.257 170.172 157.257 171.036V171.792H155.763V171.036C155.763 170.424 155.631 169.932 155.367 169.56C155.115 169.188 154.761 168.912 154.305 168.732C153.861 168.552 153.351 168.462 152.775 168.462C151.947 168.462 151.281 168.648 150.777 169.02C150.273 169.38 150.021 169.896 150.021 170.568C150.021 171.012 150.129 171.372 150.345 171.648C150.561 171.924 150.867 172.152 151.263 172.332C151.659 172.5 152.133 172.65 152.685 172.782L153.621 173.016C154.353 173.172 155.007 173.388 155.583 173.664C156.171 173.928 156.639 174.294 156.987 174.762C157.335 175.218 157.509 175.818 157.509 176.562C157.509 177.306 157.323 177.954 156.951 178.506C156.579 179.058 156.051 179.49 155.367 179.802C154.695 180.102 153.903 180.252 152.991 180.252ZM163.13 180C162.626 180 162.236 179.862 161.96 179.586C161.696 179.31 161.564 178.932 161.564 178.452V172.44H158.918V171.198H161.564V168.066H162.986V171.198H165.866V172.44H162.986V178.236C162.986 178.596 163.16 178.776 163.508 178.776H165.47V180H163.13ZM170.817 180.252C170.205 180.252 169.647 180.144 169.143 179.928C168.639 179.712 168.243 179.4 167.955 178.992C167.667 178.584 167.523 178.086 167.523 177.498C167.523 176.898 167.667 176.406 167.955 176.022C168.243 175.626 168.639 175.332 169.143 175.14C169.647 174.936 170.211 174.834 170.835 174.834H173.805V174.186C173.805 173.562 173.619 173.07 173.247 172.71C172.887 172.35 172.347 172.17 171.627 172.17C170.919 172.17 170.367 172.344 169.971 172.692C169.575 173.028 169.305 173.484 169.161 174.06L167.829 173.628C167.973 173.136 168.201 172.692 168.513 172.296C168.825 171.888 169.239 171.564 169.755 171.324C170.283 171.072 170.913 170.946 171.645 170.946C172.773 170.946 173.649 171.24 174.273 171.828C174.897 172.404 175.209 173.22 175.209 174.276V178.254C175.209 178.614 175.377 178.794 175.713 178.794H176.523V180H175.281C174.885 180 174.567 179.892 174.327 179.676C174.087 179.448 173.967 179.148 173.967 178.776V178.686H173.751C173.619 178.914 173.439 179.154 173.211 179.406C172.995 179.646 172.695 179.844 172.311 180C171.927 180.168 171.429 180.252 170.817 180.252ZM170.979 179.028C171.819 179.028 172.497 178.782 173.013 178.29C173.541 177.786 173.805 177.084 173.805 176.184V175.986H170.889C170.325 175.986 169.857 176.112 169.485 176.364C169.125 176.604 168.945 176.97 168.945 177.462C168.945 177.954 169.131 178.338 169.503 178.614C169.887 178.89 170.379 179.028 170.979 179.028ZM178.471 180V171.198H179.857V172.278H180.109C180.265 171.894 180.505 171.612 180.829 171.432C181.153 171.252 181.579 171.162 182.107 171.162H183.151V172.458H182.017C181.381 172.458 180.865 172.638 180.469 172.998C180.085 173.346 179.893 173.892 179.893 174.636V180H178.471ZM188.665 180.252C187.909 180.252 187.213 180.072 186.577 179.712C185.941 179.352 185.437 178.83 185.065 178.146C184.693 177.462 184.507 176.652 184.507 175.716V175.482C184.507 174.546 184.693 173.742 185.065 173.07C185.437 172.386 185.935 171.864 186.559 171.504C187.195 171.132 187.897 170.946 188.665 170.946C189.277 170.946 189.793 171.03 190.213 171.198C190.645 171.354 190.993 171.558 191.257 171.81C191.521 172.05 191.725 172.308 191.869 172.584H192.121V167.4H193.543V180H192.157V178.542H191.905C191.665 178.986 191.293 179.382 190.789 179.73C190.285 180.078 189.577 180.252 188.665 180.252ZM189.043 178.992C189.955 178.992 190.693 178.704 191.257 178.128C191.833 177.54 192.121 176.724 192.121 175.68V175.518C192.121 174.474 191.833 173.664 191.257 173.088C190.693 172.5 189.955 172.206 189.043 172.206C188.143 172.206 187.399 172.5 186.811 173.088C186.235 173.664 185.947 174.474 185.947 175.518V175.68C185.947 176.724 186.235 177.54 186.811 178.128C187.399 178.704 188.143 178.992 189.043 178.992ZM199.889 180.162C199.253 180.162 198.665 180.024 198.125 179.748C197.597 179.472 197.177 179.064 196.865 178.524C196.565 177.972 196.415 177.306 196.415 176.526V171.198H197.837V176.418C197.837 177.294 198.053 177.93 198.485 178.326C198.929 178.722 199.523 178.92 200.267 178.92C201.107 178.92 201.797 178.644 202.337 178.092C202.877 177.54 203.147 176.718 203.147 175.626V171.198H204.569V180H203.183V178.506H202.931C202.739 178.926 202.409 179.31 201.941 179.658C201.473 179.994 200.789 180.162 199.889 180.162ZM211.091 180.252C209.999 180.252 209.075 180 208.319 179.496C207.575 178.992 207.125 178.194 206.969 177.102L208.319 176.796C208.415 177.372 208.595 177.828 208.859 178.164C209.123 178.488 209.447 178.722 209.831 178.866C210.227 178.998 210.647 179.064 211.091 179.064C211.751 179.064 212.273 178.932 212.657 178.668C213.041 178.404 213.233 178.05 213.233 177.606C213.233 177.15 213.047 176.832 212.675 176.652C212.315 176.46 211.817 176.304 211.181 176.184L210.443 176.058C209.879 175.962 209.363 175.812 208.895 175.608C208.427 175.404 208.055 175.128 207.779 174.78C207.503 174.432 207.365 173.994 207.365 173.466C207.365 172.674 207.671 172.056 208.283 171.612C208.895 171.168 209.705 170.946 210.713 170.946C211.709 170.946 212.513 171.174 213.125 171.63C213.749 172.074 214.151 172.704 214.331 173.52L212.999 173.862C212.891 173.226 212.633 172.782 212.225 172.53C211.817 172.266 211.313 172.134 210.713 172.134C210.113 172.134 209.639 172.248 209.291 172.476C208.943 172.692 208.769 173.016 208.769 173.448C208.769 173.868 208.931 174.18 209.255 174.384C209.591 174.576 210.035 174.72 210.587 174.816L211.325 174.942C211.949 175.05 212.507 175.2 212.999 175.392C213.503 175.572 213.899 175.836 214.187 176.184C214.487 176.532 214.637 176.988 214.637 177.552C214.637 178.416 214.313 179.082 213.665 179.55C213.029 180.018 212.171 180.252 211.091 180.252ZM220.084 180C219.58 180 219.19 179.862 218.914 179.586C218.65 179.31 218.518 178.932 218.518 178.452V172.44H215.872V171.198H218.518V168.066H219.94V171.198H222.82V172.44H219.94V178.236C219.94 178.596 220.114 178.776 220.462 178.776H222.424V180H220.084ZM233.868 180.252C232.956 180.252 232.14 180.09 231.42 179.766C230.7 179.442 230.13 178.956 229.71 178.308C229.302 177.648 229.098 176.826 229.098 175.842V175.464H230.592V175.842C230.592 176.886 230.898 177.666 231.51 178.182C232.122 178.686 232.908 178.938 233.868 178.938C234.852 178.938 235.602 178.716 236.118 178.272C236.634 177.828 236.892 177.27 236.892 176.598C236.892 176.13 236.772 175.758 236.532 175.482C236.304 175.206 235.98 174.984 235.56 174.816C235.14 174.636 234.648 174.48 234.084 174.348L233.148 174.114C232.416 173.922 231.768 173.688 231.204 173.412C230.64 173.136 230.196 172.776 229.872 172.332C229.56 171.876 229.404 171.294 229.404 170.586C229.404 169.878 229.578 169.266 229.926 168.75C230.286 168.234 230.784 167.838 231.42 167.562C232.068 167.286 232.812 167.148 233.652 167.148C234.504 167.148 235.266 167.298 235.938 167.598C236.622 167.886 237.156 168.318 237.54 168.894C237.936 169.458 238.134 170.172 238.134 171.036V171.792H236.64V171.036C236.64 170.424 236.508 169.932 236.244 169.56C235.992 169.188 235.638 168.912 235.182 168.732C234.738 168.552 234.228 168.462 233.652 168.462C232.824 168.462 232.158 168.648 231.654 169.02C231.15 169.38 230.898 169.896 230.898 170.568C230.898 171.012 231.006 171.372 231.222 171.648C231.438 171.924 231.744 172.152 232.14 172.332C232.536 172.5 233.01 172.65 233.562 172.782L234.498 173.016C235.23 173.172 235.884 173.388 236.46 173.664C237.048 173.928 237.516 174.294 237.864 174.762C238.212 175.218 238.386 175.818 238.386 176.562C238.386 177.306 238.2 177.954 237.828 178.506C237.456 179.058 236.928 179.49 236.244 179.802C235.572 180.102 234.78 180.252 233.868 180.252ZM244.007 180C243.503 180 243.113 179.862 242.837 179.586C242.573 179.31 242.441 178.932 242.441 178.452V172.44H239.795V171.198H242.441V168.066H243.863V171.198H246.743V172.44H243.863V178.236C243.863 178.596 244.037 178.776 244.385 178.776H246.347V180H244.007ZM251.694 180.252C251.082 180.252 250.524 180.144 250.02 179.928C249.516 179.712 249.12 179.4 248.832 178.992C248.544 178.584 248.4 178.086 248.4 177.498C248.4 176.898 248.544 176.406 248.832 176.022C249.12 175.626 249.516 175.332 250.02 175.14C250.524 174.936 251.088 174.834 251.712 174.834H254.682V174.186C254.682 173.562 254.496 173.07 254.124 172.71C253.764 172.35 253.224 172.17 252.504 172.17C251.796 172.17 251.244 172.344 250.848 172.692C250.452 173.028 250.182 173.484 250.038 174.06L248.706 173.628C248.85 173.136 249.078 172.692 249.39 172.296C249.702 171.888 250.116 171.564 250.632 171.324C251.16 171.072 251.79 170.946 252.522 170.946C253.65 170.946 254.526 171.24 255.15 171.828C255.774 172.404 256.086 173.22 256.086 174.276V178.254C256.086 178.614 256.254 178.794 256.59 178.794H257.4V180H256.158C255.762 180 255.444 179.892 255.204 179.676C254.964 179.448 254.844 179.148 254.844 178.776V178.686H254.628C254.496 178.914 254.316 179.154 254.088 179.406C253.872 179.646 253.572 179.844 253.188 180C252.804 180.168 252.306 180.252 251.694 180.252ZM251.856 179.028C252.696 179.028 253.374 178.782 253.89 178.29C254.418 177.786 254.682 177.084 254.682 176.184V175.986H251.766C251.202 175.986 250.734 176.112 250.362 176.364C250.002 176.604 249.822 176.97 249.822 177.462C249.822 177.954 250.008 178.338 250.38 178.614C250.764 178.89 251.256 179.028 251.856 179.028ZM262.007 180C261.503 180 261.113 179.862 260.837 179.586C260.573 179.31 260.441 178.932 260.441 178.452V172.44H257.795V171.198H260.441V168.066H261.863V171.198H264.743V172.44H261.863V178.236C261.863 178.596 262.037 178.776 262.385 178.776H264.347V180H262.007ZM270.762 180.252C269.874 180.252 269.094 180.066 268.422 179.694C267.75 179.31 267.228 178.776 266.856 178.092C266.484 177.408 266.298 176.616 266.298 175.716V175.5C266.298 174.588 266.484 173.79 266.856 173.106C267.228 172.422 267.744 171.894 268.404 171.522C269.064 171.138 269.82 170.946 270.672 170.946C271.5 170.946 272.232 171.126 272.868 171.486C273.504 171.834 274.002 172.338 274.362 172.998C274.722 173.658 274.902 174.432 274.902 175.32V175.968H267.72C267.756 176.916 268.062 177.66 268.638 178.2C269.214 178.728 269.934 178.992 270.798 178.992C271.554 178.992 272.136 178.818 272.544 178.47C272.952 178.122 273.264 177.708 273.48 177.228L274.704 177.822C274.524 178.194 274.272 178.566 273.948 178.938C273.636 179.31 273.222 179.622 272.706 179.874C272.202 180.126 271.554 180.252 270.762 180.252ZM267.738 174.798H273.462C273.414 173.982 273.132 173.346 272.616 172.89C272.112 172.434 271.464 172.206 270.672 172.206C269.868 172.206 269.208 172.434 268.692 172.89C268.176 173.346 267.858 173.982 267.738 174.798ZM285.138 180V168.372H284.868L282.42 172.854H280.836L283.842 167.4H286.596V180H285.138ZM288.989 180V178.686C288.989 177.786 289.145 177.066 289.457 176.526C289.781 175.986 290.225 175.554 290.789 175.23C291.365 174.894 292.049 174.606 292.841 174.366L293.831 174.06C294.371 173.892 294.845 173.688 295.253 173.448C295.661 173.196 295.979 172.884 296.207 172.512C296.435 172.128 296.549 171.66 296.549 171.108V171.036C296.549 170.244 296.273 169.62 295.721 169.164C295.169 168.696 294.461 168.462 293.597 168.462C292.685 168.462 291.941 168.708 291.365 169.2C290.789 169.68 290.501 170.412 290.501 171.396V171.648H289.061V171.414C289.061 170.502 289.259 169.728 289.655 169.092C290.051 168.456 290.591 167.976 291.275 167.652C291.959 167.316 292.733 167.148 293.597 167.148C294.461 167.148 295.223 167.31 295.883 167.634C296.555 167.958 297.077 168.408 297.449 168.984C297.821 169.56 298.007 170.232 298.007 171V171.162C298.007 171.978 297.845 172.656 297.521 173.196C297.197 173.724 296.747 174.156 296.171 174.492C295.607 174.828 294.941 175.116 294.173 175.356L293.201 175.662C292.589 175.854 292.079 176.058 291.671 176.274C291.275 176.478 290.975 176.742 290.771 177.066C290.567 177.39 290.465 177.828 290.465 178.38V178.686H297.899V180H288.989ZM304.265 180.252C303.377 180.252 302.579 180.084 301.871 179.748C301.175 179.412 300.623 178.926 300.215 178.29C299.819 177.654 299.621 176.886 299.621 175.986V175.644H301.079V175.968C301.079 176.892 301.373 177.618 301.961 178.146C302.549 178.674 303.317 178.938 304.265 178.938C305.225 178.938 305.969 178.692 306.497 178.2C307.037 177.696 307.307 177.066 307.307 176.31V176.166C307.307 175.614 307.175 175.17 306.911 174.834C306.647 174.486 306.287 174.234 305.831 174.078C305.387 173.91 304.895 173.826 304.355 173.826H302.303V172.008L307.109 168.93V168.714H299.927V167.4H308.657V169.434L303.959 172.458V172.674H304.859C305.567 172.674 306.215 172.806 306.803 173.07C307.403 173.322 307.877 173.706 308.225 174.222C308.585 174.726 308.765 175.362 308.765 176.13V176.328C308.765 177.12 308.579 177.81 308.207 178.398C307.835 178.986 307.313 179.442 306.641 179.766C305.969 180.09 305.177 180.252 304.265 180.252ZM316.82 180V177.426H310.25V175.698L315.542 167.4H318.278V176.112H320.438V177.426H318.278V180H316.82ZM311.708 176.112H316.82V168.282H316.568L311.708 175.896V176.112ZM326.36 180.252C325.436 180.252 324.638 180.078 323.966 179.73C323.294 179.37 322.772 178.878 322.4 178.254C322.028 177.618 321.842 176.886 321.842 176.058V175.842H323.3V176.004C323.3 176.952 323.576 177.678 324.128 178.182C324.68 178.686 325.412 178.938 326.324 178.938C327.284 178.938 328.034 178.668 328.574 178.128C329.114 177.588 329.384 176.85 329.384 175.914V175.752C329.384 174.852 329.12 174.138 328.592 173.61C328.076 173.07 327.404 172.8 326.576 172.8C326.096 172.8 325.7 172.878 325.388 173.034C325.076 173.178 324.83 173.364 324.65 173.592C324.47 173.808 324.32 174.018 324.2 174.222H322.22V167.4H330.5V168.714H323.678V173.07H323.93C324.062 172.83 324.242 172.596 324.47 172.368C324.71 172.14 325.028 171.948 325.424 171.792C325.82 171.636 326.312 171.558 326.9 171.558C327.632 171.558 328.292 171.726 328.88 172.062C329.48 172.398 329.954 172.878 330.302 173.502C330.662 174.126 330.842 174.87 330.842 175.734V175.932C330.842 176.784 330.662 177.534 330.302 178.182C329.942 178.83 329.426 179.34 328.754 179.712C328.082 180.072 327.284 180.252 326.36 180.252Z" fill="white"/>
<rect x="486" width="634" height="184" rx="14" fill="#292A32"/>
<rect x="526.5" y="58.5" width="284" height="66" rx="13.5" stroke="white"/>
<path d="M562.44 98V85.4H570.198V86.768H563.952V90.98H569.694V92.348H563.952V96.632H570.288V98H562.44ZM572.637 98V89.198H574.023V90.296H574.275C574.443 89.984 574.719 89.696 575.103 89.432C575.487 89.168 576.027 89.036 576.723 89.036C577.407 89.036 577.959 89.186 578.379 89.486C578.811 89.786 579.123 90.152 579.315 90.584H579.567C579.771 90.152 580.077 89.786 580.485 89.486C580.905 89.186 581.487 89.036 582.231 89.036C582.819 89.036 583.335 89.156 583.779 89.396C584.223 89.636 584.571 89.984 584.823 90.44C585.087 90.884 585.219 91.418 585.219 92.042V98H583.797V92.168C583.797 91.58 583.623 91.118 583.275 90.782C582.939 90.434 582.465 90.26 581.853 90.26C581.205 90.26 580.671 90.47 580.251 90.89C579.843 91.31 579.639 91.916 579.639 92.708V98H578.217V92.168C578.217 91.58 578.043 91.118 577.695 90.782C577.359 90.434 576.885 90.26 576.273 90.26C575.625 90.26 575.091 90.47 574.671 90.89C574.263 91.31 574.059 91.916 574.059 92.708V98H572.637ZM590.823 98.252C590.211 98.252 589.653 98.144 589.149 97.928C588.645 97.712 588.249 97.4 587.961 96.992C587.673 96.584 587.529 96.086 587.529 95.498C587.529 94.898 587.673 94.406 587.961 94.022C588.249 93.626 588.645 93.332 589.149 93.14C589.653 92.936 590.217 92.834 590.841 92.834H593.811V92.186C593.811 91.562 593.625 91.07 593.253 90.71C592.893 90.35 592.353 90.17 591.633 90.17C590.925 90.17 590.373 90.344 589.977 90.692C589.581 91.028 589.311 91.484 589.167 92.06L587.835 91.628C587.979 91.136 588.207 90.692 588.519 90.296C588.831 89.888 589.245 89.564 589.761 89.324C590.289 89.072 590.919 88.946 591.651 88.946C592.779 88.946 593.655 89.24 594.279 89.828C594.903 90.404 595.215 91.22 595.215 92.276V96.254C595.215 96.614 595.383 96.794 595.719 96.794H596.529V98H595.287C594.891 98 594.573 97.892 594.333 97.676C594.093 97.448 593.973 97.148 593.973 96.776V96.686H593.757C593.625 96.914 593.445 97.154 593.217 97.406C593.001 97.646 592.701 97.844 592.317 98C591.933 98.168 591.435 98.252 590.823 98.252ZM590.985 97.028C591.825 97.028 592.503 96.782 593.019 96.29C593.547 95.786 593.811 95.084 593.811 94.184V93.986H590.895C590.331 93.986 589.863 94.112 589.491 94.364C589.131 94.604 588.951 94.97 588.951 95.462C588.951 95.954 589.137 96.338 589.509 96.614C589.893 96.89 590.385 97.028 590.985 97.028ZM598.476 98V89.198H599.898V98H598.476ZM599.196 87.83C598.884 87.83 598.62 87.728 598.404 87.524C598.2 87.32 598.098 87.062 598.098 86.75C598.098 86.426 598.2 86.162 598.404 85.958C598.62 85.754 598.884 85.652 599.196 85.652C599.508 85.652 599.766 85.754 599.97 85.958C600.174 86.162 600.276 86.426 600.276 86.75C600.276 87.062 600.174 87.32 599.97 87.524C599.766 87.728 599.508 87.83 599.196 87.83ZM602.889 98V85.4H604.311V98H602.889Z" fill="white"/>
<rect x="831" y="58" width="249" height="68" rx="14" fill="#B9FF66"/>
<path d="M872.317 99.28C871.303 99.28 870.397 99.1 869.597 98.74C868.797 98.38 868.163 97.84 867.697 97.12C867.243 96.3867 867.017 95.4733 867.017 94.38V93.96H868.677V94.38C868.677 95.54 869.017 96.4067 869.697 96.98C870.377 97.54 871.25 97.82 872.317 97.82C873.41 97.82 874.243 97.5733 874.817 97.08C875.39 96.5867 875.677 95.9667 875.677 95.22C875.677 94.7 875.543 94.2867 875.277 93.98C875.023 93.6733 874.663 93.4267 874.197 93.24C873.73 93.04 873.183 92.8667 872.557 92.72L871.517 92.46C870.703 92.2467 869.983 91.9867 869.357 91.68C868.73 91.3733 868.237 90.9733 867.877 90.48C867.53 89.9733 867.357 89.3267 867.357 88.54C867.357 87.7533 867.55 87.0733 867.937 86.5C868.337 85.9267 868.89 85.4867 869.597 85.18C870.317 84.8733 871.143 84.72 872.077 84.72C873.023 84.72 873.87 84.8867 874.617 85.22C875.377 85.54 875.97 86.02 876.397 86.66C876.837 87.2867 877.057 88.08 877.057 89.04V89.88H875.397V89.04C875.397 88.36 875.25 87.8133 874.957 87.4C874.677 86.9867 874.283 86.68 873.777 86.48C873.283 86.28 872.717 86.18 872.077 86.18C871.157 86.18 870.417 86.3867 869.857 86.8C869.297 87.2 869.017 87.7733 869.017 88.52C869.017 89.0133 869.137 89.4133 869.377 89.72C869.617 90.0267 869.957 90.28 870.397 90.48C870.837 90.6667 871.363 90.8333 871.977 90.98L873.017 91.24C873.83 91.4133 874.557 91.6533 875.197 91.96C875.85 92.2533 876.37 92.66 876.757 93.18C877.143 93.6867 877.337 94.3533 877.337 95.18C877.337 96.0067 877.13 96.7267 876.717 97.34C876.303 97.9533 875.717 98.4333 874.957 98.78C874.21 99.1133 873.33 99.28 872.317 99.28ZM883.722 99.18C883.016 99.18 882.362 99.0267 881.762 98.72C881.176 98.4133 880.709 97.96 880.362 97.36C880.029 96.7467 879.862 96.0067 879.862 95.14V89.22H881.442V95.02C881.442 95.9933 881.682 96.7 882.162 97.14C882.656 97.58 883.316 97.8 884.142 97.8C885.076 97.8 885.842 97.4933 886.442 96.88C887.042 96.2667 887.342 95.3533 887.342 94.14V89.22H888.922V99H887.382V97.34H887.102C886.889 97.8067 886.522 98.2333 886.002 98.62C885.482 98.9933 884.722 99.18 883.722 99.18ZM897.648 99.28C896.635 99.28 895.842 99.0867 895.268 98.7C894.708 98.3133 894.302 97.8733 894.048 97.38H893.768V99H892.228V85H893.808V90.76H894.088C894.248 90.4533 894.475 90.1667 894.768 89.9C895.062 89.62 895.442 89.3933 895.908 89.22C896.388 89.0333 896.968 88.94 897.648 88.94C898.502 88.94 899.275 89.1467 899.968 89.56C900.675 89.96 901.235 90.54 901.648 91.3C902.062 92.0467 902.268 92.94 902.268 93.98V94.24C902.268 95.28 902.055 96.18 901.628 96.94C901.215 97.7 900.655 98.28 899.948 98.68C899.255 99.08 898.488 99.28 897.648 99.28ZM897.228 97.88C898.242 97.88 899.062 97.56 899.688 96.92C900.328 96.2667 900.648 95.36 900.648 94.2V94.02C900.648 92.86 900.328 91.96 899.688 91.32C899.062 90.6667 898.242 90.34 897.228 90.34C896.228 90.34 895.402 90.6667 894.748 91.32C894.108 91.96 893.788 92.86 893.788 94.02V94.2C893.788 95.36 894.108 96.2667 894.748 96.92C895.402 97.56 896.228 97.88 897.228 97.88ZM909.039 99.28C907.826 99.28 906.799 99 905.959 98.44C905.133 97.88 904.633 96.9933 904.459 95.78L905.959 95.44C906.066 96.08 906.266 96.5867 906.559 96.96C906.853 97.32 907.213 97.58 907.639 97.74C908.079 97.8867 908.546 97.96 909.039 97.96C909.773 97.96 910.353 97.8133 910.779 97.52C911.206 97.2267 911.419 96.8333 911.419 96.34C911.419 95.8333 911.213 95.48 910.799 95.28C910.399 95.0667 909.846 94.8933 909.139 94.76L908.319 94.62C907.693 94.5133 907.119 94.3467 906.599 94.12C906.079 93.8933 905.666 93.5867 905.359 93.2C905.053 92.8133 904.899 92.3267 904.899 91.74C904.899 90.86 905.239 90.1733 905.919 89.68C906.599 89.1867 907.499 88.94 908.619 88.94C909.726 88.94 910.619 89.1933 911.299 89.7C911.993 90.1933 912.439 90.8933 912.639 91.8L911.159 92.18C911.039 91.4733 910.753 90.98 910.299 90.7C909.846 90.4067 909.286 90.26 908.619 90.26C907.953 90.26 907.426 90.3867 907.039 90.64C906.653 90.88 906.459 91.24 906.459 91.72C906.459 92.1867 906.639 92.5333 906.999 92.76C907.373 92.9733 907.866 93.1333 908.479 93.24L909.299 93.38C909.993 93.5 910.613 93.6667 911.159 93.88C911.719 94.08 912.159 94.3733 912.479 94.76C912.813 95.1467 912.979 95.6533 912.979 96.28C912.979 97.24 912.619 97.98 911.899 98.5C911.193 99.02 910.239 99.28 909.039 99.28ZM920.146 99.28C919.2 99.28 918.346 99.08 917.586 98.68C916.84 98.2667 916.246 97.68 915.806 96.92C915.38 96.16 915.166 95.26 915.166 94.22V94C915.166 92.9467 915.38 92.0467 915.806 91.3C916.246 90.54 916.84 89.96 917.586 89.56C918.346 89.1467 919.2 88.94 920.146 88.94C921.08 88.94 921.873 89.1133 922.526 89.46C923.193 89.8067 923.713 90.2667 924.086 90.84C924.473 91.4133 924.72 92.0267 924.826 92.68L923.286 93C923.22 92.52 923.06 92.08 922.806 91.68C922.566 91.28 922.226 90.96 921.786 90.72C921.346 90.48 920.806 90.36 920.166 90.36C919.513 90.36 918.926 90.5067 918.406 90.8C917.9 91.0933 917.493 91.5133 917.186 92.06C916.893 92.6067 916.746 93.26 916.746 94.02V94.2C916.746 94.96 916.893 95.6133 917.186 96.16C917.493 96.7067 917.9 97.1267 918.406 97.42C918.926 97.7133 919.513 97.86 920.166 97.86C921.14 97.86 921.88 97.6067 922.386 97.1C922.906 96.5933 923.226 95.9667 923.346 95.22L924.906 95.56C924.76 96.2 924.493 96.8067 924.106 97.38C923.72 97.9533 923.193 98.4133 922.526 98.76C921.873 99.1067 921.08 99.28 920.146 99.28ZM927.599 99V89.22H929.139V90.42H929.419C929.593 89.9933 929.859 89.68 930.219 89.48C930.579 89.28 931.053 89.18 931.639 89.18H932.799V90.62H931.539C930.833 90.62 930.259 90.82 929.819 91.22C929.393 91.6067 929.179 92.2133 929.179 93.04V99H927.599ZM935.139 99V89.22H936.719V99H935.139ZM935.939 87.7C935.592 87.7 935.299 87.5867 935.059 87.36C934.832 87.1333 934.719 86.8467 934.719 86.5C934.719 86.14 934.832 85.8467 935.059 85.62C935.299 85.3933 935.592 85.28 935.939 85.28C936.285 85.28 936.572 85.3933 936.799 85.62C937.025 85.8467 937.139 86.14 937.139 86.5C937.139 86.8467 937.025 87.1333 936.799 87.36C936.572 87.5867 936.285 87.7 935.939 87.7ZM945.461 99.28C944.448 99.28 943.654 99.0867 943.081 98.7C942.521 98.3133 942.114 97.8733 941.861 97.38H941.581V99H940.041V85H941.621V90.76H941.901C942.061 90.4533 942.288 90.1667 942.581 89.9C942.874 89.62 943.254 89.3933 943.721 89.22C944.201 89.0333 944.781 88.94 945.461 88.94C946.314 88.94 947.088 89.1467 947.781 89.56C948.488 89.96 949.048 90.54 949.461 91.3C949.874 92.0467 950.081 92.94 950.081 93.98V94.24C950.081 95.28 949.868 96.18 949.441 96.94C949.028 97.7 948.468 98.28 947.761 98.68C947.068 99.08 946.301 99.28 945.461 99.28ZM945.041 97.88C946.054 97.88 946.874 97.56 947.501 96.92C948.141 96.2667 948.461 95.36 948.461 94.2V94.02C948.461 92.86 948.141 91.96 947.501 91.32C946.874 90.6667 946.054 90.34 945.041 90.34C944.041 90.34 943.214 90.6667 942.561 91.32C941.921 91.96 941.601 92.86 941.601 94.02V94.2C941.601 95.36 941.921 96.2667 942.561 96.92C943.214 97.56 944.041 97.88 945.041 97.88ZM957.392 99.28C956.405 99.28 955.539 99.0733 954.792 98.66C954.045 98.2333 953.465 97.64 953.052 96.88C952.639 96.12 952.432 95.24 952.432 94.24V94C952.432 92.9867 952.639 92.1 953.052 91.34C953.465 90.58 954.039 89.9933 954.772 89.58C955.505 89.1533 956.345 88.94 957.292 88.94C958.212 88.94 959.025 89.14 959.732 89.54C960.439 89.9267 960.992 90.4867 961.392 91.22C961.792 91.9533 961.992 92.8133 961.992 93.8V94.52H954.012C954.052 95.5733 954.392 96.4 955.032 97C955.672 97.5867 956.472 97.88 957.432 97.88C958.272 97.88 958.919 97.6867 959.372 97.3C959.825 96.9133 960.172 96.4533 960.412 95.92L961.772 96.58C961.572 96.9933 961.292 97.4067 960.932 97.82C960.585 98.2333 960.125 98.58 959.552 98.86C958.992 99.14 958.272 99.28 957.392 99.28ZM954.032 93.22H960.392C960.339 92.3133 960.025 91.6067 959.452 91.1C958.892 90.5933 958.172 90.34 957.292 90.34C956.399 90.34 955.665 90.5933 955.092 91.1C954.519 91.6067 954.165 92.3133 954.032 93.22ZM973.485 99C972.925 99 972.491 98.8467 972.185 98.54C971.891 98.2333 971.745 97.8133 971.745 97.28V90.6H968.805V89.22H971.745V85.74H973.325V89.22H976.525V90.6H973.325V97.04C973.325 97.44 973.518 97.64 973.905 97.64H976.085V99H973.485ZM983.252 99.28C982.266 99.28 981.392 99.0733 980.632 98.66C979.886 98.2467 979.299 97.6667 978.872 96.92C978.459 96.16 978.252 95.2667 978.252 94.24V93.98C978.252 92.9667 978.459 92.08 978.872 91.32C979.299 90.56 979.886 89.9733 980.632 89.56C981.392 89.1467 982.266 88.94 983.252 88.94C984.239 88.94 985.106 89.1467 985.852 89.56C986.612 89.9733 987.199 90.56 987.612 91.32C988.039 92.08 988.252 92.9667 988.252 93.98V94.24C988.252 95.2667 988.039 96.16 987.612 96.92C987.199 97.6667 986.612 98.2467 985.852 98.66C985.106 99.0733 984.239 99.28 983.252 99.28ZM983.252 97.86C984.292 97.86 985.119 97.5333 985.732 96.88C986.359 96.2133 986.672 95.32 986.672 94.2V94.02C986.672 92.9 986.359 92.0133 985.732 91.36C985.119 90.6933 984.292 90.36 983.252 90.36C982.226 90.36 981.399 90.6933 980.772 91.36C980.146 92.0133 979.832 92.9 979.832 94.02V94.2C979.832 95.32 980.146 96.2133 980.772 96.88C981.399 97.5333 982.226 97.86 983.252 97.86ZM996.232 99V89.22H997.772V90.88H998.052C998.266 90.4133 998.626 89.9933 999.132 89.62C999.652 89.2333 1000.41 89.04 1001.41 89.04C1002.15 89.04 1002.8 89.1933 1003.37 89.5C1003.96 89.8067 1004.43 90.26 1004.77 90.86C1005.12 91.46 1005.29 92.2 1005.29 93.08V99H1003.71V93.2C1003.71 92.2267 1003.47 91.52 1002.97 91.08C1002.49 90.64 1001.84 90.42 1001.01 90.42C1000.07 90.42 999.292 90.7267 998.692 91.34C998.106 91.9533 997.812 92.8667 997.812 94.08V99H996.232ZM1012.98 99.28C1011.99 99.28 1011.12 99.0733 1010.38 98.66C1009.63 98.2333 1009.05 97.64 1008.64 96.88C1008.22 96.12 1008.02 95.24 1008.02 94.24V94C1008.02 92.9867 1008.22 92.1 1008.64 91.34C1009.05 90.58 1009.62 89.9933 1010.36 89.58C1011.09 89.1533 1011.93 88.94 1012.88 88.94C1013.8 88.94 1014.61 89.14 1015.32 89.54C1016.02 89.9267 1016.58 90.4867 1016.98 91.22C1017.38 91.9533 1017.58 92.8133 1017.58 93.8V94.52H1009.6C1009.64 95.5733 1009.98 96.4 1010.62 97C1011.26 97.5867 1012.06 97.88 1013.02 97.88C1013.86 97.88 1014.5 97.6867 1014.96 97.3C1015.41 96.9133 1015.76 96.4533 1016 95.92L1017.36 96.58C1017.16 96.9933 1016.88 97.4067 1016.52 97.82C1016.17 98.2333 1015.71 98.58 1015.14 98.86C1014.58 99.14 1013.86 99.28 1012.98 99.28ZM1009.62 93.22H1015.98C1015.92 92.3133 1015.61 91.6067 1015.04 91.1C1014.48 90.5933 1013.76 90.34 1012.88 90.34C1011.98 90.34 1011.25 90.5933 1010.68 91.1C1010.1 91.6067 1009.75 92.3133 1009.62 93.22ZM1021.5 99L1019.54 89.22H1021.14L1022.76 97.94H1023.04L1025.18 89.22H1027.8L1029.94 97.94H1030.22L1031.84 89.22H1033.44L1031.48 99H1028.78L1026.62 90.28H1026.36L1024.2 99H1021.5ZM1040 99.28C1038.78 99.28 1037.76 99 1036.92 98.44C1036.09 97.88 1035.59 96.9933 1035.42 95.78L1036.92 95.44C1037.02 96.08 1037.22 96.5867 1037.52 96.96C1037.81 97.32 1038.17 97.58 1038.6 97.74C1039.04 97.8867 1039.5 97.96 1040 97.96C1040.73 97.96 1041.31 97.8133 1041.74 97.52C1042.16 97.2267 1042.38 96.8333 1042.38 96.34C1042.38 95.8333 1042.17 95.48 1041.76 95.28C1041.36 95.0667 1040.8 94.8933 1040.1 94.76L1039.28 94.62C1038.65 94.5133 1038.08 94.3467 1037.56 94.12C1037.04 93.8933 1036.62 93.5867 1036.32 93.2C1036.01 92.8133 1035.86 92.3267 1035.86 91.74C1035.86 90.86 1036.2 90.1733 1036.88 89.68C1037.56 89.1867 1038.46 88.94 1039.58 88.94C1040.68 88.94 1041.58 89.1933 1042.26 89.7C1042.95 90.1933 1043.4 90.8933 1043.6 91.8L1042.12 92.18C1042 91.4733 1041.71 90.98 1041.26 90.7C1040.8 90.4067 1040.24 90.26 1039.58 90.26C1038.91 90.26 1038.38 90.3867 1038 90.64C1037.61 90.88 1037.42 91.24 1037.42 91.72C1037.42 92.1867 1037.6 92.5333 1037.96 92.76C1038.33 92.9733 1038.82 93.1333 1039.44 93.24L1040.26 93.38C1040.95 93.5 1041.57 93.6667 1042.12 93.88C1042.68 94.08 1043.12 94.3733 1043.44 94.76C1043.77 95.1467 1043.94 95.6533 1043.94 96.28C1043.94 97.24 1043.58 97.98 1042.86 98.5C1042.15 99.02 1041.2 99.28 1040 99.28Z" fill="black"/>
</svg>
