<svg width="221" height="210" viewBox="0 0 221 210" fill="none" xmlns="http://www.w3.org/2000/svg">
<rect width="221" height="38" rx="7" fill="#B9FF66"/>
<path d="M16.33 29.42C14.75 29.42 13.35 29.14 12.13 28.58C10.91 28.02 9.95 27.2 9.25 26.12C8.57 25.02 8.23 23.69 8.23 22.13V21.38H11.44V22.13C11.44 23.61 11.88 24.72 12.76 25.46C13.66 26.2 14.85 26.57 16.33 26.57C17.83 26.57 18.96 26.26 19.72 25.64C20.48 25 20.86 24.18 20.86 23.18C20.86 22.52 20.68 21.98 20.32 21.56C19.96 21.14 19.45 20.81 18.79 20.57C18.13 20.31 17.34 20.07 16.42 19.85L15.31 19.58C13.97 19.26 12.8 18.87 11.8 18.41C10.82 17.93 10.06 17.3 9.52 16.52C8.98 15.74 8.71 14.74 8.71 13.52C8.71 12.28 9.01 11.22 9.61 10.34C10.23 9.46 11.08 8.78 12.16 8.3C13.24 7.82 14.51 7.58 15.97 7.58C17.43 7.58 18.73 7.83 19.87 8.33C21.03 8.83 21.94 9.57 22.6 10.55C23.26 11.53 23.59 12.76 23.59 14.24V15.32H20.38V14.24C20.38 13.34 20.19 12.61 19.81 12.05C19.45 11.49 18.94 11.08 18.28 10.82C17.62 10.56 16.85 10.43 15.97 10.43C14.69 10.43 13.69 10.7 12.97 11.24C12.27 11.76 11.92 12.49 11.92 13.43C11.92 14.07 12.07 14.6 12.37 15.02C12.69 15.42 13.15 15.75 13.75 16.01C14.35 16.27 15.1 16.5 16 16.7L17.11 16.97C18.47 17.27 19.67 17.66 20.71 18.14C21.75 18.6 22.57 19.23 23.17 20.03C23.77 20.83 24.07 21.86 24.07 23.12C24.07 24.38 23.75 25.48 23.11 26.42C22.49 27.36 21.6 28.1 20.44 28.64C19.28 29.16 17.91 29.42 16.33 29.42ZM34.3413 29.42C32.8413 29.42 31.5313 29.11 30.4113 28.49C29.2913 27.85 28.4113 26.96 27.7713 25.82C27.1513 24.66 26.8413 23.32 26.8413 21.8V21.44C26.8413 19.9 27.1513 18.56 27.7713 17.42C28.3913 16.26 29.2513 15.37 30.3513 14.75C31.4713 14.11 32.7613 13.79 34.2213 13.79C35.6413 13.79 36.8813 14.11 37.9413 14.75C39.0213 15.37 39.8613 16.24 40.4613 17.36C41.0613 18.48 41.3613 19.79 41.3613 21.29V22.46H29.9913C30.0313 23.76 30.4613 24.8 31.2813 25.58C32.1213 26.34 33.1613 26.72 34.4013 26.72C35.5613 26.72 36.4313 26.46 37.0113 25.94C37.6113 25.42 38.0713 24.82 38.3913 24.14L40.9413 25.46C40.6613 26.02 40.2513 26.61 39.7113 27.23C39.1913 27.85 38.5013 28.37 37.6413 28.79C36.7813 29.21 35.6813 29.42 34.3413 29.42ZM30.0213 20.09H38.2113C38.1313 18.97 37.7313 18.1 37.0113 17.48C36.2913 16.84 35.3513 16.52 34.1913 16.52C33.0313 16.52 32.0813 16.84 31.3413 17.48C30.6213 18.1 30.1813 18.97 30.0213 20.09ZM49.6708 29.42C48.6108 29.42 47.6608 29.24 46.8208 28.88C46.0008 28.52 45.3408 27.99 44.8408 27.29C44.3608 26.59 44.1208 25.74 44.1208 24.74C44.1208 23.72 44.3608 22.88 44.8408 22.22C45.3408 21.54 46.0108 21.03 46.8508 20.69C47.7108 20.35 48.6808 20.18 49.7608 20.18H54.2608V19.22C54.2608 18.36 54.0008 17.67 53.4808 17.15C52.9608 16.63 52.1608 16.37 51.0808 16.37C50.0208 16.37 49.2108 16.62 48.6508 17.12C48.0908 17.62 47.7208 18.27 47.5408 19.07L44.6608 18.14C44.9008 17.34 45.2808 16.62 45.8008 15.98C46.3408 15.32 47.0508 14.79 47.9308 14.39C48.8108 13.99 49.8708 13.79 51.1108 13.79C53.0308 13.79 54.5408 14.28 55.6408 15.26C56.7408 16.24 57.2908 17.63 57.2908 19.43V25.52C57.2908 26.12 57.5708 26.42 58.1308 26.42H59.3908V29H57.0808C56.3808 29 55.8108 28.82 55.3708 28.46C54.9308 28.1 54.7108 27.61 54.7108 26.99V26.9H54.2608C54.1008 27.2 53.8608 27.55 53.5408 27.95C53.2208 28.35 52.7508 28.7 52.1308 29C51.5108 29.28 50.6908 29.42 49.6708 29.42ZM50.1208 26.87C51.3608 26.87 52.3608 26.52 53.1208 25.82C53.8808 25.1 54.2608 24.12 54.2608 22.88V22.58H49.9408C49.1208 22.58 48.4608 22.76 47.9608 23.12C47.4608 23.46 47.2108 23.97 47.2108 24.65C47.2108 25.33 47.4708 25.87 47.9908 26.27C48.5108 26.67 49.2208 26.87 50.1208 26.87ZM62.3952 29V14.21H65.4252V15.95H65.9052C66.1452 15.33 66.5252 14.88 67.0452 14.6C67.5852 14.3 68.2452 14.15 69.0252 14.15H70.7952V16.94H68.9052C67.9052 16.94 67.0852 17.22 66.4452 17.78C65.8052 18.32 65.4852 19.16 65.4852 20.3V29H62.3952ZM80.3395 29.42C78.9195 29.42 77.6295 29.12 76.4695 28.52C75.3295 27.92 74.4195 27.05 73.7395 25.91C73.0795 24.77 72.7495 23.4 72.7495 21.8V21.41C72.7495 19.81 73.0795 18.45 73.7395 17.33C74.4195 16.19 75.3295 15.32 76.4695 14.72C77.6295 14.1 78.9195 13.79 80.3395 13.79C81.7595 13.79 82.9695 14.05 83.9695 14.57C84.9695 15.09 85.7695 15.78 86.3695 16.64C86.9895 17.5 87.3895 18.45 87.5695 19.49L84.5695 20.12C84.4695 19.46 84.2595 18.86 83.9395 18.32C83.6195 17.78 83.1695 17.35 82.5895 17.03C82.0095 16.71 81.2795 16.55 80.3995 16.55C79.5395 16.55 78.7595 16.75 78.0595 17.15C77.3795 17.53 76.8395 18.09 76.4395 18.83C76.0395 19.55 75.8395 20.43 75.8395 21.47V21.74C75.8395 22.78 76.0395 23.67 76.4395 24.41C76.8395 25.15 77.3795 25.71 78.0595 26.09C78.7595 26.47 79.5395 26.66 80.3995 26.66C81.6995 26.66 82.6895 26.33 83.3695 25.67C84.0495 24.99 84.4795 24.13 84.6595 23.09L87.6595 23.78C87.4195 24.8 86.9895 25.74 86.3695 26.6C85.7695 27.46 84.9695 28.15 83.9695 28.67C82.9695 29.17 81.7595 29.42 80.3395 29.42ZM91.2234 29V8H94.3134V16.31H94.7934C94.9934 15.93 95.2734 15.56 95.6334 15.2C96.0134 14.84 96.5034 14.55 97.1034 14.33C97.7234 14.09 98.5034 13.97 99.4434 13.97C100.563 13.97 101.553 14.22 102.413 14.72C103.293 15.22 103.983 15.93 104.483 16.85C104.983 17.75 105.233 18.84 105.233 20.12V29H102.143V20.36C102.143 19.08 101.823 18.14 101.183 17.54C100.543 16.92 99.6634 16.61 98.5434 16.61C97.2634 16.61 96.2334 17.03 95.4534 17.87C94.6934 18.71 94.3134 19.93 94.3134 21.53V29H91.2234ZM124.107 29.42C122.607 29.42 121.297 29.11 120.177 28.49C119.057 27.85 118.177 26.96 117.537 25.82C116.917 24.66 116.607 23.32 116.607 21.8V21.44C116.607 19.9 116.917 18.56 117.537 17.42C118.157 16.26 119.017 15.37 120.117 14.75C121.237 14.11 122.527 13.79 123.987 13.79C125.407 13.79 126.647 14.11 127.707 14.75C128.787 15.37 129.627 16.24 130.227 17.36C130.827 18.48 131.127 19.79 131.127 21.29V22.46H119.757C119.797 23.76 120.227 24.8 121.047 25.58C121.887 26.34 122.927 26.72 124.167 26.72C125.327 26.72 126.197 26.46 126.777 25.94C127.377 25.42 127.837 24.82 128.157 24.14L130.707 25.46C130.427 26.02 130.017 26.61 129.477 27.23C128.957 27.85 128.267 28.37 127.407 28.79C126.547 29.21 125.447 29.42 124.107 29.42ZM119.787 20.09H127.977C127.897 18.97 127.497 18.1 126.777 17.48C126.057 16.84 125.117 16.52 123.957 16.52C122.797 16.52 121.847 16.84 121.107 17.48C120.387 18.1 119.947 18.97 119.787 20.09ZM134.846 29V14.21H137.876V16.43H138.356C138.636 15.83 139.136 15.27 139.856 14.75C140.576 14.23 141.646 13.97 143.066 13.97C144.186 13.97 145.176 14.22 146.036 14.72C146.916 15.22 147.606 15.93 148.106 16.85C148.606 17.75 148.856 18.84 148.856 20.12V29H145.766V20.36C145.766 19.08 145.446 18.14 144.806 17.54C144.166 16.92 143.286 16.61 142.166 16.61C140.886 16.61 139.856 17.03 139.076 17.87C138.316 18.71 137.936 19.93 137.936 21.53V29H134.846ZM152.583 21.68V21.23C152.583 19.67 152.893 18.34 153.513 17.24C154.153 16.14 154.993 15.29 156.033 14.69C157.073 14.09 158.213 13.79 159.453 13.79C160.893 13.79 161.993 14.06 162.753 14.6C163.533 15.14 164.103 15.72 164.463 16.34H164.943V14.21H167.943V32.03C167.943 32.93 167.673 33.65 167.133 34.19C166.613 34.73 165.893 35 164.973 35H155.013V32.3H164.013C164.593 32.3 164.883 32 164.883 31.4V26.69H164.403C164.183 27.05 163.873 27.42 163.473 27.8C163.073 28.18 162.543 28.49 161.883 28.73C161.243 28.97 160.433 29.09 159.453 29.09C158.213 29.09 157.063 28.8 156.003 28.22C154.963 27.62 154.133 26.77 153.513 25.67C152.893 24.55 152.583 23.22 152.583 21.68ZM160.293 26.39C161.633 26.39 162.733 25.97 163.593 25.13C164.473 24.27 164.913 23.09 164.913 21.59V21.32C164.913 19.78 164.483 18.6 163.623 17.78C162.763 16.94 161.653 16.52 160.293 16.52C158.973 16.52 157.873 16.94 156.993 17.78C156.133 18.6 155.703 19.78 155.703 21.32V21.59C155.703 23.09 156.133 24.27 156.993 25.13C157.873 25.97 158.973 26.39 160.293 26.39ZM172.493 29V14.21H175.583V29H172.493ZM174.053 12.2C173.453 12.2 172.943 12.01 172.523 11.63C172.123 11.23 171.923 10.72 171.923 10.1C171.923 9.48 172.123 8.98 172.523 8.6C172.943 8.2 173.453 8 174.053 8C174.673 8 175.183 8.2 175.583 8.6C175.983 8.98 176.183 9.48 176.183 10.1C176.183 10.72 175.983 11.23 175.583 11.63C175.183 12.01 174.673 12.2 174.053 12.2ZM180.169 29V14.21H183.199V16.43H183.679C183.959 15.83 184.459 15.27 185.179 14.75C185.899 14.23 186.969 13.97 188.389 13.97C189.509 13.97 190.499 14.22 191.359 14.72C192.239 15.22 192.929 15.93 193.429 16.85C193.929 17.75 194.179 18.84 194.179 20.12V29H191.089V20.36C191.089 19.08 190.769 18.14 190.129 17.54C189.489 16.92 188.609 16.61 187.489 16.61C186.209 16.61 185.179 17.03 184.399 17.87C183.639 18.71 183.259 19.93 183.259 21.53V29H180.169ZM205.406 29.42C203.906 29.42 202.596 29.11 201.476 28.49C200.356 27.85 199.476 26.96 198.836 25.82C198.216 24.66 197.906 23.32 197.906 21.8V21.44C197.906 19.9 198.216 18.56 198.836 17.42C199.456 16.26 200.316 15.37 201.416 14.75C202.536 14.11 203.826 13.79 205.286 13.79C206.706 13.79 207.946 14.11 209.006 14.75C210.086 15.37 210.926 16.24 211.526 17.36C212.126 18.48 212.426 19.79 212.426 21.29V22.46H201.056C201.096 23.76 201.526 24.8 202.346 25.58C203.186 26.34 204.226 26.72 205.466 26.72C206.626 26.72 207.496 26.46 208.076 25.94C208.676 25.42 209.136 24.82 209.456 24.14L212.006 25.46C211.726 26.02 211.316 26.61 210.776 27.23C210.256 27.85 209.566 28.37 208.706 28.79C207.846 29.21 206.746 29.42 205.406 29.42ZM201.086 20.09H209.276C209.196 18.97 208.796 18.1 208.076 17.48C207.356 16.84 206.416 16.52 205.256 16.52C204.096 16.52 203.146 16.84 202.406 17.48C201.686 18.1 201.246 18.97 201.086 20.09Z" fill="black"/>
<rect y="38" width="197" height="38" rx="7" fill="#B9FF66"/>
<path d="M16.21 67.42C14.73 67.42 13.41 67.12 12.25 66.52C11.11 65.9 10.21 65.02 9.55 63.88C8.89 62.74 8.56 61.39 8.56 59.83V59.38C8.56 57.82 8.89 56.48 9.55 55.36C10.21 54.22 11.11 53.34 12.25 52.72C13.41 52.1 14.73 51.79 16.21 51.79C17.69 51.79 19.01 52.1 20.17 52.72C21.33 53.34 22.24 54.22 22.9 55.36C23.56 56.48 23.89 57.82 23.89 59.38V59.83C23.89 61.39 23.56 62.74 22.9 63.88C22.24 65.02 21.33 65.9 20.17 66.52C19.01 67.12 17.69 67.42 16.21 67.42ZM16.21 64.66C17.57 64.66 18.67 64.23 19.51 63.37C20.37 62.49 20.8 61.28 20.8 59.74V59.47C20.8 57.93 20.38 56.73 19.54 55.87C18.7 54.99 17.59 54.55 16.21 54.55C14.87 54.55 13.77 54.99 12.91 55.87C12.07 56.73 11.65 57.93 11.65 59.47V59.74C11.65 61.28 12.07 62.49 12.91 63.37C13.77 64.23 14.87 64.66 16.21 64.66ZM27.737 73V52.21H30.767V54.34H31.247C31.627 53.68 32.197 53.09 32.957 52.57C33.737 52.05 34.847 51.79 36.287 51.79C37.527 51.79 38.657 52.09 39.677 52.69C40.717 53.29 41.547 54.16 42.167 55.3C42.807 56.42 43.127 57.78 43.127 59.38V59.83C43.127 61.43 42.817 62.8 42.197 63.94C41.577 65.06 40.747 65.92 39.707 66.52C38.667 67.12 37.527 67.42 36.287 67.42C35.327 67.42 34.517 67.3 33.857 67.06C33.197 66.82 32.667 66.52 32.267 66.16C31.867 65.78 31.547 65.39 31.307 64.99H30.827V73H27.737ZM35.387 64.72C36.747 64.72 37.857 64.29 38.717 63.43C39.577 62.57 40.007 61.34 40.007 59.74V59.47C40.007 57.89 39.567 56.67 38.687 55.81C37.827 54.95 36.727 54.52 35.387 54.52C34.067 54.52 32.967 54.95 32.087 55.81C31.227 56.67 30.797 57.89 30.797 59.47V59.74C30.797 61.34 31.227 62.57 32.087 63.43C32.967 64.29 34.067 64.72 35.387 64.72ZM51.9491 67C51.0491 67 50.3291 66.73 49.7891 66.19C49.2691 65.65 49.0091 64.93 49.0091 64.03V54.82H44.9291V52.21H49.0091V47.32H52.0991V52.21H56.5091V54.82H52.0991V63.49C52.0991 64.09 52.3791 64.39 52.9391 64.39H56.0291V67H51.9491ZM60.1394 67V52.21H63.2294V67H60.1394ZM61.6994 50.2C61.0994 50.2 60.5894 50.01 60.1694 49.63C59.7694 49.23 59.5694 48.72 59.5694 48.1C59.5694 47.48 59.7694 46.98 60.1694 46.6C60.5894 46.2 61.0994 46 61.6994 46C62.3194 46 62.8294 46.2 63.2294 46.6C63.6294 46.98 63.8294 47.48 63.8294 48.1C63.8294 48.72 63.6294 49.23 63.2294 49.63C62.8294 50.01 62.3194 50.2 61.6994 50.2ZM67.8152 67V52.21H70.8452V53.95H71.3252C71.6052 53.43 72.0552 52.97 72.6752 52.57C73.2952 52.17 74.1352 51.97 75.1952 51.97C76.2952 51.97 77.1752 52.2 77.8352 52.66C78.5152 53.1 79.0252 53.67 79.3652 54.37H79.8452C80.1852 53.69 80.6752 53.12 81.3152 52.66C81.9752 52.2 82.9052 51.97 84.1052 51.97C85.0652 51.97 85.9152 52.17 86.6552 52.57C87.3952 52.95 87.9852 53.53 88.4252 54.31C88.8652 55.07 89.0852 56.02 89.0852 57.16V67H85.9952V57.4C85.9952 56.5 85.7452 55.81 85.2452 55.33C84.7652 54.83 84.0752 54.58 83.1752 54.58C82.2152 54.58 81.4452 54.89 80.8652 55.51C80.2852 56.13 79.9952 57.02 79.9952 58.18V67H76.9052V57.4C76.9052 56.5 76.6552 55.81 76.1552 55.33C75.6752 54.83 74.9852 54.58 74.0852 54.58C73.1252 54.58 72.3552 54.89 71.7752 55.51C71.1952 56.13 70.9052 57.02 70.9052 58.18V67H67.8152ZM93.5378 67V52.21H96.6278V67H93.5378ZM95.0978 50.2C94.4978 50.2 93.9878 50.01 93.5678 49.63C93.1678 49.23 92.9678 48.72 92.9678 48.1C92.9678 47.48 93.1678 46.98 93.5678 46.6C93.9878 46.2 94.4978 46 95.0978 46C95.7178 46 96.2278 46.2 96.6278 46.6C97.0278 46.98 97.2278 47.48 97.2278 48.1C97.2278 48.72 97.0278 49.23 96.6278 49.63C96.2278 50.01 95.7178 50.2 95.0978 50.2ZM100.614 67V63.22L109.344 55.24V54.82H100.914V52.21H112.704V56.02L103.944 64V64.39H112.944V67H100.614ZM121.331 67.42C120.271 67.42 119.321 67.24 118.481 66.88C117.661 66.52 117.001 65.99 116.501 65.29C116.021 64.59 115.781 63.74 115.781 62.74C115.781 61.72 116.021 60.88 116.501 60.22C117.001 59.54 117.671 59.03 118.511 58.69C119.371 58.35 120.341 58.18 121.421 58.18H125.921V57.22C125.921 56.36 125.661 55.67 125.141 55.15C124.621 54.63 123.821 54.37 122.741 54.37C121.681 54.37 120.871 54.62 120.311 55.12C119.751 55.62 119.381 56.27 119.201 57.07L116.321 56.14C116.561 55.34 116.941 54.62 117.461 53.98C118.001 53.32 118.711 52.79 119.591 52.39C120.471 51.99 121.531 51.79 122.771 51.79C124.691 51.79 126.201 52.28 127.301 53.26C128.401 54.24 128.951 55.63 128.951 57.43V63.52C128.951 64.12 129.231 64.42 129.791 64.42H131.051V67H128.741C128.041 67 127.471 66.82 127.031 66.46C126.591 66.1 126.371 65.61 126.371 64.99V64.9H125.921C125.761 65.2 125.521 65.55 125.201 65.95C124.881 66.35 124.411 66.7 123.791 67C123.171 67.28 122.351 67.42 121.331 67.42ZM121.781 64.87C123.021 64.87 124.021 64.52 124.781 63.82C125.541 63.1 125.921 62.12 125.921 60.88V60.58H121.601C120.781 60.58 120.121 60.76 119.621 61.12C119.121 61.46 118.871 61.97 118.871 62.65C118.871 63.33 119.131 63.87 119.651 64.27C120.171 64.67 120.881 64.87 121.781 64.87ZM138.58 67C137.68 67 136.96 66.73 136.42 66.19C135.9 65.65 135.64 64.93 135.64 64.03V54.82H131.56V52.21H135.64V47.32H138.73V52.21H143.14V54.82H138.73V63.49C138.73 64.09 139.01 64.39 139.57 64.39H142.66V67H138.58ZM146.77 67V52.21H149.86V67H146.77ZM148.33 50.2C147.73 50.2 147.22 50.01 146.8 49.63C146.4 49.23 146.2 48.72 146.2 48.1C146.2 47.48 146.4 46.98 146.8 46.6C147.22 46.2 147.73 46 148.33 46C148.95 46 149.46 46.2 149.86 46.6C150.26 46.98 150.46 47.48 150.46 48.1C150.46 48.72 150.26 49.23 149.86 49.63C149.46 50.01 148.95 50.2 148.33 50.2ZM161.376 67.42C159.896 67.42 158.576 67.12 157.416 66.52C156.276 65.9 155.376 65.02 154.716 63.88C154.056 62.74 153.726 61.39 153.726 59.83V59.38C153.726 57.82 154.056 56.48 154.716 55.36C155.376 54.22 156.276 53.34 157.416 52.72C158.576 52.1 159.896 51.79 161.376 51.79C162.856 51.79 164.176 52.1 165.336 52.72C166.496 53.34 167.406 54.22 168.066 55.36C168.726 56.48 169.056 57.82 169.056 59.38V59.83C169.056 61.39 168.726 62.74 168.066 63.88C167.406 65.02 166.496 65.9 165.336 66.52C164.176 67.12 162.856 67.42 161.376 67.42ZM161.376 64.66C162.736 64.66 163.836 64.23 164.676 63.37C165.536 62.49 165.966 61.28 165.966 59.74V59.47C165.966 57.93 165.546 56.73 164.706 55.87C163.866 54.99 162.756 54.55 161.376 54.55C160.036 54.55 158.936 54.99 158.076 55.87C157.236 56.73 156.816 57.93 156.816 59.47V59.74C156.816 61.28 157.236 62.49 158.076 63.37C158.936 64.23 160.036 64.66 161.376 64.66ZM172.903 67V52.21H175.933V54.43H176.413C176.693 53.83 177.193 53.27 177.913 52.75C178.633 52.23 179.703 51.97 181.123 51.97C182.243 51.97 183.233 52.22 184.093 52.72C184.973 53.22 185.663 53.93 186.163 54.85C186.663 55.75 186.913 56.84 186.913 58.12V67H183.823V58.36C183.823 57.08 183.503 56.14 182.863 55.54C182.223 54.92 181.343 54.61 180.223 54.61C178.943 54.61 177.913 55.03 177.133 55.87C176.373 56.71 175.993 57.93 175.993 59.53V67H172.903Z" fill="black"/>
<circle cx="20.5" cy="189.5" r="20.5" fill="#191A23"/>
<path d="M11.25 193.701C10.5326 194.115 10.2867 195.033 10.701 195.75C11.1152 196.467 12.0326 196.713 12.75 196.299L11.25 193.701ZM30.7694 185.388C30.9838 184.588 30.5089 183.766 29.7087 183.551L16.6687 180.057C15.8685 179.843 15.046 180.318 14.8316 181.118C14.6172 181.918 15.0921 182.74 15.8923 182.955L27.4834 186.061L24.3776 197.652C24.1631 198.452 24.638 199.274 25.4382 199.489C26.2384 199.703 27.0609 199.228 27.2753 198.428L30.7694 185.388ZM12.75 196.299L30.0705 186.299L28.5705 183.701L11.25 193.701L12.75 196.299Z" fill="#B9FF66"/>
<path d="M57.6 196.5V182.5H59.28V194.98H66.36V196.5H57.6ZM72.9798 196.78C71.9932 196.78 71.1265 196.573 70.3798 196.16C69.6332 195.733 69.0532 195.14 68.6398 194.38C68.2265 193.62 68.0198 192.74 68.0198 191.74V191.5C68.0198 190.487 68.2265 189.6 68.6398 188.84C69.0532 188.08 69.6265 187.493 70.3598 187.08C71.0932 186.653 71.9332 186.44 72.8798 186.44C73.7998 186.44 74.6132 186.64 75.3198 187.04C76.0265 187.427 76.5798 187.987 76.9798 188.72C77.3798 189.453 77.5798 190.313 77.5798 191.3V192.02H69.5998C69.6398 193.073 69.9798 193.9 70.6198 194.5C71.2598 195.087 72.0598 195.38 73.0198 195.38C73.8598 195.38 74.5065 195.187 74.9598 194.8C75.4132 194.413 75.7598 193.953 75.9998 193.42L77.3598 194.08C77.1598 194.493 76.8798 194.907 76.5198 195.32C76.1732 195.733 75.7132 196.08 75.1398 196.36C74.5798 196.64 73.8598 196.78 72.9798 196.78ZM69.6198 190.72H75.9798C75.9265 189.813 75.6132 189.107 75.0398 188.6C74.4798 188.093 73.7598 187.84 72.8798 187.84C71.9865 187.84 71.2532 188.093 70.6798 188.6C70.1065 189.107 69.7532 189.813 69.6198 190.72ZM83.3358 196.78C82.6558 196.78 82.0358 196.66 81.4758 196.42C80.9158 196.18 80.4758 195.833 80.1558 195.38C79.8358 194.927 79.6758 194.373 79.6758 193.72C79.6758 193.053 79.8358 192.507 80.1558 192.08C80.4758 191.64 80.9158 191.313 81.4758 191.1C82.0358 190.873 82.6624 190.76 83.3558 190.76H86.6558V190.04C86.6558 189.347 86.4491 188.8 86.0358 188.4C85.6358 188 85.0358 187.8 84.2358 187.8C83.4491 187.8 82.8358 187.993 82.3958 188.38C81.9558 188.753 81.6558 189.26 81.4958 189.9L80.0158 189.42C80.1758 188.873 80.4291 188.38 80.7758 187.94C81.1224 187.487 81.5824 187.127 82.1558 186.86C82.7424 186.58 83.4424 186.44 84.2558 186.44C85.5091 186.44 86.4824 186.767 87.1758 187.42C87.8691 188.06 88.2158 188.967 88.2158 190.14V194.56C88.2158 194.96 88.4024 195.16 88.7758 195.16H89.6758V196.5H88.2958C87.8558 196.5 87.5024 196.38 87.2358 196.14C86.9691 195.887 86.8358 195.553 86.8358 195.14V195.04H86.5958C86.4491 195.293 86.2491 195.56 85.9958 195.84C85.7558 196.107 85.4224 196.327 84.9958 196.5C84.5691 196.687 84.0158 196.78 83.3358 196.78ZM83.5158 195.42C84.4491 195.42 85.2024 195.147 85.7758 194.6C86.3624 194.04 86.6558 193.26 86.6558 192.26V192.04H83.4158C82.7891 192.04 82.2691 192.18 81.8558 192.46C81.4558 192.727 81.2558 193.133 81.2558 193.68C81.2558 194.227 81.4624 194.653 81.8758 194.96C82.3024 195.267 82.8491 195.42 83.5158 195.42ZM91.8397 196.5V186.72H93.3797V187.92H93.6597C93.833 187.493 94.0997 187.18 94.4597 186.98C94.8197 186.78 95.293 186.68 95.8797 186.68H97.0397V188.12H95.7797C95.073 188.12 94.4997 188.32 94.0597 188.72C93.633 189.107 93.4197 189.713 93.4197 190.54V196.5H91.8397ZM99.3788 196.5V186.72H100.919V188.38H101.199C101.412 187.913 101.772 187.493 102.279 187.12C102.799 186.733 103.559 186.54 104.559 186.54C105.292 186.54 105.945 186.693 106.519 187C107.105 187.307 107.572 187.76 107.919 188.36C108.265 188.96 108.439 189.7 108.439 190.58V196.5H106.859V190.7C106.859 189.727 106.612 189.02 106.119 188.58C105.639 188.14 104.985 187.92 104.159 187.92C103.212 187.92 102.439 188.227 101.839 188.84C101.252 189.453 100.959 190.367 100.959 191.58V196.5H99.3788ZM116.781 196.5V186.72H118.321V187.94H118.601C118.788 187.593 119.094 187.273 119.521 186.98C119.948 186.687 120.548 186.54 121.321 186.54C122.081 186.54 122.694 186.707 123.161 187.04C123.641 187.373 123.988 187.78 124.201 188.26H124.481C124.708 187.78 125.048 187.373 125.501 187.04C125.968 186.707 126.614 186.54 127.441 186.54C128.094 186.54 128.668 186.673 129.161 186.94C129.654 187.207 130.041 187.593 130.321 188.1C130.614 188.593 130.761 189.187 130.761 189.88V196.5H129.181V190.02C129.181 189.367 128.988 188.853 128.601 188.48C128.228 188.093 127.701 187.9 127.021 187.9C126.301 187.9 125.708 188.133 125.241 188.6C124.788 189.067 124.561 189.74 124.561 190.62V196.5H122.981V190.02C122.981 189.367 122.788 188.853 122.401 188.48C122.028 188.093 121.501 187.9 120.821 187.9C120.101 187.9 119.508 188.133 119.041 188.6C118.588 189.067 118.361 189.74 118.361 190.62V196.5H116.781ZM138.508 196.78C137.521 196.78 136.648 196.573 135.888 196.16C135.141 195.747 134.555 195.167 134.128 194.42C133.715 193.66 133.508 192.767 133.508 191.74V191.48C133.508 190.467 133.715 189.58 134.128 188.82C134.555 188.06 135.141 187.473 135.888 187.06C136.648 186.647 137.521 186.44 138.508 186.44C139.495 186.44 140.361 186.647 141.108 187.06C141.868 187.473 142.455 188.06 142.868 188.82C143.295 189.58 143.508 190.467 143.508 191.48V191.74C143.508 192.767 143.295 193.66 142.868 194.42C142.455 195.167 141.868 195.747 141.108 196.16C140.361 196.573 139.495 196.78 138.508 196.78ZM138.508 195.36C139.548 195.36 140.375 195.033 140.988 194.38C141.615 193.713 141.928 192.82 141.928 191.7V191.52C141.928 190.4 141.615 189.513 140.988 188.86C140.375 188.193 139.548 187.86 138.508 187.86C137.481 187.86 136.655 188.193 136.028 188.86C135.401 189.513 135.088 190.4 135.088 191.52V191.7C135.088 192.82 135.401 193.713 136.028 194.38C136.655 195.033 137.481 195.36 138.508 195.36ZM146.351 196.5V186.72H147.891V187.92H148.171C148.345 187.493 148.611 187.18 148.971 186.98C149.331 186.78 149.805 186.68 150.391 186.68H151.551V188.12H150.291C149.585 188.12 149.011 188.32 148.571 188.72C148.145 189.107 147.931 189.713 147.931 190.54V196.5H146.351ZM158.019 196.78C157.032 196.78 156.166 196.573 155.419 196.16C154.672 195.733 154.092 195.14 153.679 194.38C153.266 193.62 153.059 192.74 153.059 191.74V191.5C153.059 190.487 153.266 189.6 153.679 188.84C154.092 188.08 154.666 187.493 155.399 187.08C156.132 186.653 156.972 186.44 157.919 186.44C158.839 186.44 159.652 186.64 160.359 187.04C161.066 187.427 161.619 187.987 162.019 188.72C162.419 189.453 162.619 190.313 162.619 191.3V192.02H154.639C154.679 193.073 155.019 193.9 155.659 194.5C156.299 195.087 157.099 195.38 158.059 195.38C158.899 195.38 159.546 195.187 159.999 194.8C160.452 194.413 160.799 193.953 161.039 193.42L162.399 194.08C162.199 194.493 161.919 194.907 161.559 195.32C161.212 195.733 160.752 196.08 160.179 196.36C159.619 196.64 158.899 196.78 158.019 196.78ZM154.659 190.72H161.019C160.966 189.813 160.652 189.107 160.079 188.6C159.519 188.093 158.799 187.84 157.919 187.84C157.026 187.84 156.292 188.093 155.719 188.6C155.146 189.107 154.792 189.813 154.659 190.72Z" fill="black"/>
</svg>
