<svg width="164" height="210" viewBox="0 0 164 210" fill="none" xmlns="http://www.w3.org/2000/svg">
<rect width="90" height="38" rx="7" fill="#B9FF66"/>
<path d="M9.19 29V8H22.42V10.94H12.43V16.97H21.58V19.91H12.43V26.06H22.57V29H9.19ZM26.0378 29V14.21H29.0678V15.95H29.5478C29.8278 15.43 30.2778 14.97 30.8978 14.57C31.5178 14.17 32.3578 13.97 33.4178 13.97C34.5178 13.97 35.3978 14.2 36.0578 14.66C36.7378 15.1 37.2478 15.67 37.5878 16.37H38.0678C38.4078 15.69 38.8978 15.12 39.5378 14.66C40.1978 14.2 41.1278 13.97 42.3278 13.97C43.2878 13.97 44.1378 14.17 44.8778 14.57C45.6178 14.95 46.2078 15.53 46.6478 16.31C47.0878 17.07 47.3078 18.02 47.3078 19.16V29H44.2178V19.4C44.2178 18.5 43.9678 17.81 43.4678 17.33C42.9878 16.83 42.2978 16.58 41.3978 16.58C40.4378 16.58 39.6678 16.89 39.0878 17.51C38.5078 18.13 38.2178 19.02 38.2178 20.18V29H35.1278V19.4C35.1278 18.5 34.8778 17.81 34.3778 17.33C33.8978 16.83 33.2078 16.58 32.3078 16.58C31.3478 16.58 30.5778 16.89 29.9978 17.51C29.4178 18.13 29.1278 19.02 29.1278 20.18V29H26.0378ZM56.3505 29.42C55.2905 29.42 54.3405 29.24 53.5005 28.88C52.6805 28.52 52.0205 27.99 51.5205 27.29C51.0405 26.59 50.8005 25.74 50.8005 24.74C50.8005 23.72 51.0405 22.88 51.5205 22.22C52.0205 21.54 52.6905 21.03 53.5305 20.69C54.3905 20.35 55.3605 20.18 56.4405 20.18H60.9405V19.22C60.9405 18.36 60.6805 17.67 60.1605 17.15C59.6405 16.63 58.8405 16.37 57.7605 16.37C56.7005 16.37 55.8905 16.62 55.3305 17.12C54.7705 17.62 54.4005 18.27 54.2205 19.07L51.3405 18.14C51.5805 17.34 51.9605 16.62 52.4805 15.98C53.0205 15.32 53.7305 14.79 54.6105 14.39C55.4905 13.99 56.5505 13.79 57.7905 13.79C59.7105 13.79 61.2205 14.28 62.3205 15.26C63.4205 16.24 63.9705 17.63 63.9705 19.43V25.52C63.9705 26.12 64.2505 26.42 64.8105 26.42H66.0705V29H63.7605C63.0605 29 62.4905 28.82 62.0505 28.46C61.6105 28.1 61.3905 27.61 61.3905 26.99V26.9H60.9405C60.7805 27.2 60.5405 27.55 60.2205 27.95C59.9005 28.35 59.4305 28.7 58.8105 29C58.1905 29.28 57.3705 29.42 56.3505 29.42ZM56.8005 26.87C58.0405 26.87 59.0405 26.52 59.8005 25.82C60.5605 25.1 60.9405 24.12 60.9405 22.88V22.58H56.6205C55.8005 22.58 55.1405 22.76 54.6405 23.12C54.1405 23.46 53.8905 23.97 53.8905 24.65C53.8905 25.33 54.1505 25.87 54.6705 26.27C55.1905 26.67 55.9005 26.87 56.8005 26.87ZM69.0749 29V14.21H72.1649V29H69.0749ZM70.6349 12.2C70.0349 12.2 69.5249 12.01 69.1049 11.63C68.7049 11.23 68.5049 10.72 68.5049 10.1C68.5049 9.48 68.7049 8.98 69.1049 8.6C69.5249 8.2 70.0349 8 70.6349 8C71.2549 8 71.7649 8.2 72.1649 8.6C72.5649 8.98 72.7649 9.48 72.7649 10.1C72.7649 10.72 72.5649 11.23 72.1649 11.63C71.7649 12.01 71.2549 12.2 70.6349 12.2ZM76.7507 29V8H79.8407V29H76.7507Z" fill="black"/>
<rect y="38" width="161" height="38" rx="7" fill="#B9FF66"/>
<path d="M9.19 67V46H15.28L19.87 64.84H20.35L24.94 46H31.03V67H27.88V48.28H27.4L22.84 67H17.38L12.82 48.28H12.34V67H9.19ZM40.0907 67.42C39.0307 67.42 38.0807 67.24 37.2407 66.88C36.4207 66.52 35.7607 65.99 35.2607 65.29C34.7807 64.59 34.5407 63.74 34.5407 62.74C34.5407 61.72 34.7807 60.88 35.2607 60.22C35.7607 59.54 36.4307 59.03 37.2707 58.69C38.1307 58.35 39.1007 58.18 40.1807 58.18H44.6807V57.22C44.6807 56.36 44.4207 55.67 43.9007 55.15C43.3807 54.63 42.5807 54.37 41.5007 54.37C40.4407 54.37 39.6307 54.62 39.0707 55.12C38.5107 55.62 38.1407 56.27 37.9607 57.07L35.0807 56.14C35.3207 55.34 35.7007 54.62 36.2207 53.98C36.7607 53.32 37.4707 52.79 38.3507 52.39C39.2307 51.99 40.2907 51.79 41.5307 51.79C43.4507 51.79 44.9607 52.28 46.0607 53.26C47.1607 54.24 47.7107 55.63 47.7107 57.43V63.52C47.7107 64.12 47.9907 64.42 48.5507 64.42H49.8107V67H47.5007C46.8007 67 46.2307 66.82 45.7907 66.46C45.3507 66.1 45.1307 65.61 45.1307 64.99V64.9H44.6807C44.5207 65.2 44.2807 65.55 43.9607 65.95C43.6407 66.35 43.1707 66.7 42.5507 67C41.9307 67.28 41.1107 67.42 40.0907 67.42ZM40.5407 64.87C41.7807 64.87 42.7807 64.52 43.5407 63.82C44.3007 63.1 44.6807 62.12 44.6807 60.88V60.58H40.3607C39.5407 60.58 38.8807 60.76 38.3807 61.12C37.8807 61.46 37.6307 61.97 37.6307 62.65C37.6307 63.33 37.8907 63.87 38.4107 64.27C38.9307 64.67 39.6407 64.87 40.5407 64.87ZM52.8152 67V52.21H55.8452V53.95H56.3252C56.5652 53.33 56.9452 52.88 57.4652 52.6C58.0052 52.3 58.6652 52.15 59.4452 52.15H61.2152V54.94H59.3252C58.3252 54.94 57.5052 55.22 56.8652 55.78C56.2252 56.32 55.9052 57.16 55.9052 58.3V67H52.8152ZM64.4167 67V46H67.5067V57.97H67.9867L73.8067 52.21H77.9167L70.4467 59.38L78.1567 67H74.0767L67.9867 60.85H67.5067V67H64.4167ZM86.8705 67.42C85.3705 67.42 84.0605 67.11 82.9405 66.49C81.8205 65.85 80.9405 64.96 80.3005 63.82C79.6805 62.66 79.3705 61.32 79.3705 59.8V59.44C79.3705 57.9 79.6805 56.56 80.3005 55.42C80.9205 54.26 81.7805 53.37 82.8805 52.75C84.0005 52.11 85.2905 51.79 86.7505 51.79C88.1705 51.79 89.4105 52.11 90.4705 52.75C91.5505 53.37 92.3905 54.24 92.9905 55.36C93.5905 56.48 93.8905 57.79 93.8905 59.29V60.46H82.5205C82.5605 61.76 82.9905 62.8 83.8105 63.58C84.6505 64.34 85.6905 64.72 86.9305 64.72C88.0905 64.72 88.9605 64.46 89.5405 63.94C90.1405 63.42 90.6005 62.82 90.9205 62.14L93.4705 63.46C93.1905 64.02 92.7805 64.61 92.2405 65.23C91.7205 65.85 91.0305 66.37 90.1705 66.79C89.3105 67.21 88.2105 67.42 86.8705 67.42ZM82.5505 58.09H90.7405C90.6605 56.97 90.2605 56.1 89.5405 55.48C88.8205 54.84 87.8805 54.52 86.7205 54.52C85.5605 54.52 84.6105 54.84 83.8705 55.48C83.1505 56.1 82.7105 56.97 82.5505 58.09ZM102.633 67C101.733 67 101.013 66.73 100.473 66.19C99.9527 65.65 99.6927 64.93 99.6927 64.03V54.82H95.6127V52.21H99.6927V47.32H102.783V52.21H107.193V54.82H102.783V63.49C102.783 64.09 103.063 64.39 103.623 64.39H106.713V67H102.633ZM110.823 67V52.21H113.913V67H110.823ZM112.383 50.2C111.783 50.2 111.273 50.01 110.853 49.63C110.453 49.23 110.253 48.72 110.253 48.1C110.253 47.48 110.453 46.98 110.853 46.6C111.273 46.2 111.783 46 112.383 46C113.003 46 113.513 46.2 113.913 46.6C114.313 46.98 114.513 47.48 114.513 48.1C114.513 48.72 114.313 49.23 113.913 49.63C113.513 50.01 113.003 50.2 112.383 50.2ZM118.499 67V52.21H121.529V54.43H122.009C122.289 53.83 122.789 53.27 123.509 52.75C124.229 52.23 125.299 51.97 126.719 51.97C127.839 51.97 128.829 52.22 129.689 52.72C130.569 53.22 131.259 53.93 131.759 54.85C132.259 55.75 132.509 56.84 132.509 58.12V67H129.419V58.36C129.419 57.08 129.099 56.14 128.459 55.54C127.819 54.92 126.939 54.61 125.819 54.61C124.539 54.61 123.509 55.03 122.729 55.87C121.969 56.71 121.589 57.93 121.589 59.53V67H118.499ZM136.236 59.68V59.23C136.236 57.67 136.546 56.34 137.166 55.24C137.806 54.14 138.646 53.29 139.686 52.69C140.726 52.09 141.866 51.79 143.106 51.79C144.546 51.79 145.646 52.06 146.406 52.6C147.186 53.14 147.756 53.72 148.116 54.34H148.596V52.21H151.596V70.03C151.596 70.93 151.326 71.65 150.786 72.19C150.266 72.73 149.546 73 148.626 73H138.666V70.3H147.666C148.246 70.3 148.536 70 148.536 69.4V64.69H148.056C147.836 65.05 147.526 65.42 147.126 65.8C146.726 66.18 146.196 66.49 145.536 66.73C144.896 66.97 144.086 67.09 143.106 67.09C141.866 67.09 140.716 66.8 139.656 66.22C138.616 65.62 137.786 64.77 137.166 63.67C136.546 62.55 136.236 61.22 136.236 59.68ZM143.946 64.39C145.286 64.39 146.386 63.97 147.246 63.13C148.126 62.27 148.566 61.09 148.566 59.59V59.32C148.566 57.78 148.136 56.6 147.276 55.78C146.416 54.94 145.306 54.52 143.946 54.52C142.626 54.52 141.526 54.94 140.646 55.78C139.786 56.6 139.356 57.78 139.356 59.32V59.59C139.356 61.09 139.786 62.27 140.646 63.13C141.526 63.97 142.626 64.39 143.946 64.39Z" fill="black"/>
<circle cx="20.5" cy="189.5" r="20.5" fill="#191A23"/>
<path d="M11.25 193.701C10.5326 194.115 10.2867 195.033 10.701 195.75C11.1152 196.467 12.0326 196.713 12.75 196.299L11.25 193.701ZM30.7694 185.388C30.9838 184.588 30.5089 183.766 29.7087 183.551L16.6687 180.057C15.8685 179.843 15.046 180.318 14.8316 181.118C14.6172 181.918 15.0921 182.74 15.8923 182.955L27.4834 186.061L24.3776 197.652C24.1631 198.452 24.638 199.274 25.4382 199.489C26.2384 199.703 27.0609 199.228 27.2753 198.428L30.7694 185.388ZM12.75 196.299L30.0705 186.299L28.5705 183.701L11.25 193.701L12.75 196.299Z" fill="#B9FF66"/>
<path d="M57.6 196.5V182.5H59.28V194.98H66.36V196.5H57.6ZM72.9798 196.78C71.9932 196.78 71.1265 196.573 70.3798 196.16C69.6332 195.733 69.0532 195.14 68.6398 194.38C68.2265 193.62 68.0198 192.74 68.0198 191.74V191.5C68.0198 190.487 68.2265 189.6 68.6398 188.84C69.0532 188.08 69.6265 187.493 70.3598 187.08C71.0932 186.653 71.9332 186.44 72.8798 186.44C73.7998 186.44 74.6132 186.64 75.3198 187.04C76.0265 187.427 76.5798 187.987 76.9798 188.72C77.3798 189.453 77.5798 190.313 77.5798 191.3V192.02H69.5998C69.6398 193.073 69.9798 193.9 70.6198 194.5C71.2598 195.087 72.0598 195.38 73.0198 195.38C73.8598 195.38 74.5065 195.187 74.9598 194.8C75.4132 194.413 75.7598 193.953 75.9998 193.42L77.3598 194.08C77.1598 194.493 76.8798 194.907 76.5198 195.32C76.1732 195.733 75.7132 196.08 75.1398 196.36C74.5798 196.64 73.8598 196.78 72.9798 196.78ZM69.6198 190.72H75.9798C75.9265 189.813 75.6132 189.107 75.0398 188.6C74.4798 188.093 73.7598 187.84 72.8798 187.84C71.9865 187.84 71.2532 188.093 70.6798 188.6C70.1065 189.107 69.7532 189.813 69.6198 190.72ZM83.3358 196.78C82.6558 196.78 82.0358 196.66 81.4758 196.42C80.9158 196.18 80.4758 195.833 80.1558 195.38C79.8358 194.927 79.6758 194.373 79.6758 193.72C79.6758 193.053 79.8358 192.507 80.1558 192.08C80.4758 191.64 80.9158 191.313 81.4758 191.1C82.0358 190.873 82.6624 190.76 83.3558 190.76H86.6558V190.04C86.6558 189.347 86.4491 188.8 86.0358 188.4C85.6358 188 85.0358 187.8 84.2358 187.8C83.4491 187.8 82.8358 187.993 82.3958 188.38C81.9558 188.753 81.6558 189.26 81.4958 189.9L80.0158 189.42C80.1758 188.873 80.4291 188.38 80.7758 187.94C81.1224 187.487 81.5824 187.127 82.1558 186.86C82.7424 186.58 83.4424 186.44 84.2558 186.44C85.5091 186.44 86.4824 186.767 87.1758 187.42C87.8691 188.06 88.2158 188.967 88.2158 190.14V194.56C88.2158 194.96 88.4024 195.16 88.7758 195.16H89.6758V196.5H88.2958C87.8558 196.5 87.5024 196.38 87.2358 196.14C86.9691 195.887 86.8358 195.553 86.8358 195.14V195.04H86.5958C86.4491 195.293 86.2491 195.56 85.9958 195.84C85.7558 196.107 85.4224 196.327 84.9958 196.5C84.5691 196.687 84.0158 196.78 83.3358 196.78ZM83.5158 195.42C84.4491 195.42 85.2024 195.147 85.7758 194.6C86.3624 194.04 86.6558 193.26 86.6558 192.26V192.04H83.4158C82.7891 192.04 82.2691 192.18 81.8558 192.46C81.4558 192.727 81.2558 193.133 81.2558 193.68C81.2558 194.227 81.4624 194.653 81.8758 194.96C82.3024 195.267 82.8491 195.42 83.5158 195.42ZM91.8397 196.5V186.72H93.3797V187.92H93.6597C93.833 187.493 94.0997 187.18 94.4597 186.98C94.8197 186.78 95.293 186.68 95.8797 186.68H97.0397V188.12H95.7797C95.073 188.12 94.4997 188.32 94.0597 188.72C93.633 189.107 93.4197 189.713 93.4197 190.54V196.5H91.8397ZM99.3788 196.5V186.72H100.919V188.38H101.199C101.412 187.913 101.772 187.493 102.279 187.12C102.799 186.733 103.559 186.54 104.559 186.54C105.292 186.54 105.945 186.693 106.519 187C107.105 187.307 107.572 187.76 107.919 188.36C108.265 188.96 108.439 189.7 108.439 190.58V196.5H106.859V190.7C106.859 189.727 106.612 189.02 106.119 188.58C105.639 188.14 104.985 187.92 104.159 187.92C103.212 187.92 102.439 188.227 101.839 188.84C101.252 189.453 100.959 190.367 100.959 191.58V196.5H99.3788ZM116.781 196.5V186.72H118.321V187.94H118.601C118.788 187.593 119.094 187.273 119.521 186.98C119.948 186.687 120.548 186.54 121.321 186.54C122.081 186.54 122.694 186.707 123.161 187.04C123.641 187.373 123.988 187.78 124.201 188.26H124.481C124.708 187.78 125.048 187.373 125.501 187.04C125.968 186.707 126.614 186.54 127.441 186.54C128.094 186.54 128.668 186.673 129.161 186.94C129.654 187.207 130.041 187.593 130.321 188.1C130.614 188.593 130.761 189.187 130.761 189.88V196.5H129.181V190.02C129.181 189.367 128.988 188.853 128.601 188.48C128.228 188.093 127.701 187.9 127.021 187.9C126.301 187.9 125.708 188.133 125.241 188.6C124.788 189.067 124.561 189.74 124.561 190.62V196.5H122.981V190.02C122.981 189.367 122.788 188.853 122.401 188.48C122.028 188.093 121.501 187.9 120.821 187.9C120.101 187.9 119.508 188.133 119.041 188.6C118.588 189.067 118.361 189.74 118.361 190.62V196.5H116.781ZM138.508 196.78C137.521 196.78 136.648 196.573 135.888 196.16C135.141 195.747 134.555 195.167 134.128 194.42C133.715 193.66 133.508 192.767 133.508 191.74V191.48C133.508 190.467 133.715 189.58 134.128 188.82C134.555 188.06 135.141 187.473 135.888 187.06C136.648 186.647 137.521 186.44 138.508 186.44C139.495 186.44 140.361 186.647 141.108 187.06C141.868 187.473 142.455 188.06 142.868 188.82C143.295 189.58 143.508 190.467 143.508 191.48V191.74C143.508 192.767 143.295 193.66 142.868 194.42C142.455 195.167 141.868 195.747 141.108 196.16C140.361 196.573 139.495 196.78 138.508 196.78ZM138.508 195.36C139.548 195.36 140.375 195.033 140.988 194.38C141.615 193.713 141.928 192.82 141.928 191.7V191.52C141.928 190.4 141.615 189.513 140.988 188.86C140.375 188.193 139.548 187.86 138.508 187.86C137.481 187.86 136.655 188.193 136.028 188.86C135.401 189.513 135.088 190.4 135.088 191.52V191.7C135.088 192.82 135.401 193.713 136.028 194.38C136.655 195.033 137.481 195.36 138.508 195.36ZM146.351 196.5V186.72H147.891V187.92H148.171C148.345 187.493 148.611 187.18 148.971 186.98C149.331 186.78 149.805 186.68 150.391 186.68H151.551V188.12H150.291C149.585 188.12 149.011 188.32 148.571 188.72C148.145 189.107 147.931 189.713 147.931 190.54V196.5H146.351ZM158.019 196.78C157.032 196.78 156.166 196.573 155.419 196.16C154.672 195.733 154.092 195.14 153.679 194.38C153.266 193.62 153.059 192.74 153.059 191.74V191.5C153.059 190.487 153.266 189.6 153.679 188.84C154.092 188.08 154.666 187.493 155.399 187.08C156.132 186.653 156.972 186.44 157.919 186.44C158.839 186.44 159.652 186.64 160.359 187.04C161.066 187.427 161.619 187.987 162.019 188.72C162.419 189.453 162.619 190.313 162.619 191.3V192.02H154.639C154.679 193.073 155.019 193.9 155.659 194.5C156.299 195.087 157.099 195.38 158.059 195.38C158.899 195.38 159.546 195.187 159.999 194.8C160.452 194.413 160.799 193.953 161.039 193.42L162.399 194.08C162.199 194.493 161.919 194.907 161.559 195.32C161.212 195.733 160.752 196.08 160.179 196.36C159.619 196.64 158.899 196.78 158.019 196.78ZM154.659 190.72H161.019C160.966 189.813 160.652 189.107 160.079 188.6C159.519 188.093 158.799 187.84 157.919 187.84C157.026 187.84 156.292 188.093 155.719 188.6C155.146 189.107 154.792 189.813 154.659 190.72Z" fill="black"/>
</svg>
