<svg width="213" height="210" viewBox="0 0 213 210" fill="none" xmlns="http://www.w3.org/2000/svg">
<rect width="213" height="38" rx="7" fill="#B9FF66"/>
<path d="M7.63 29L13.63 8H19.33L25.3 29H21.97L20.59 24.05H12.37L10.99 29H7.63ZM13.18 21.05H19.78L16.72 10.01H16.24L13.18 21.05ZM28.2351 29V14.21H31.2651V16.43H31.7451C32.0251 15.83 32.5251 15.27 33.2451 14.75C33.9651 14.23 35.0351 13.97 36.4551 13.97C37.5751 13.97 38.5651 14.22 39.4251 14.72C40.3051 15.22 40.9951 15.93 41.4951 16.85C41.9951 17.75 42.2451 18.84 42.2451 20.12V29H39.1551V20.36C39.1551 19.08 38.8351 18.14 38.1951 17.54C37.5551 16.92 36.6751 16.61 35.5551 16.61C34.2751 16.61 33.2451 17.03 32.4651 17.87C31.7051 18.71 31.3251 19.93 31.3251 21.53V29H28.2351ZM51.2821 29.42C50.2221 29.42 49.2721 29.24 48.4321 28.88C47.6121 28.52 46.9521 27.99 46.4521 27.29C45.9721 26.59 45.7321 25.74 45.7321 24.74C45.7321 23.72 45.9721 22.88 46.4521 22.22C46.9521 21.54 47.6221 21.03 48.4621 20.69C49.3221 20.35 50.2921 20.18 51.3721 20.18H55.8721V19.22C55.8721 18.36 55.6121 17.67 55.0921 17.15C54.5721 16.63 53.7721 16.37 52.6921 16.37C51.6321 16.37 50.8221 16.62 50.2621 17.12C49.7021 17.62 49.3321 18.27 49.1521 19.07L46.2721 18.14C46.5121 17.34 46.8921 16.62 47.4121 15.98C47.9521 15.32 48.6621 14.79 49.5421 14.39C50.4221 13.99 51.4821 13.79 52.7221 13.79C54.6421 13.79 56.1521 14.28 57.2521 15.26C58.3521 16.24 58.9021 17.63 58.9021 19.43V25.52C58.9021 26.12 59.1821 26.42 59.7421 26.42H61.0021V29H58.6921C57.9921 29 57.4221 28.82 56.9821 28.46C56.5421 28.1 56.3221 27.61 56.3221 26.99V26.9H55.8721C55.7121 27.2 55.4721 27.55 55.1521 27.95C54.8321 28.35 54.3621 28.7 53.7421 29C53.1221 29.28 52.3021 29.42 51.2821 29.42ZM51.7321 26.87C52.9721 26.87 53.9721 26.52 54.7321 25.82C55.4921 25.1 55.8721 24.12 55.8721 22.88V22.58H51.5521C50.7321 22.58 50.0721 22.76 49.5721 23.12C49.0721 23.46 48.8221 23.97 48.8221 24.65C48.8221 25.33 49.0821 25.87 49.6021 26.27C50.1221 26.67 50.8321 26.87 51.7321 26.87ZM64.0066 29V8H67.0966V29H64.0066ZM73.3923 35V32.3H81.6423C82.2023 32.3 82.4823 32 82.4823 31.4V26.84H82.0023C81.8223 27.24 81.5423 27.63 81.1623 28.01C80.8023 28.37 80.3123 28.67 79.6923 28.91C79.0723 29.15 78.2923 29.27 77.3523 29.27C76.2323 29.27 75.2323 29.02 74.3523 28.52C73.4723 28.02 72.7823 27.31 72.2823 26.39C71.7823 25.47 71.5323 24.38 71.5323 23.12V14.21H74.6223V22.88C74.6223 24.16 74.9423 25.11 75.5823 25.73C76.2223 26.33 77.1123 26.63 78.2523 26.63C79.5123 26.63 80.5223 26.21 81.2823 25.37C82.0623 24.53 82.4523 23.31 82.4523 21.71V14.21H85.5423V32.03C85.5423 32.93 85.2723 33.65 84.7323 34.19C84.2123 34.73 83.4923 35 82.5723 35H73.3923ZM95.6601 29C94.7601 29 94.0401 28.73 93.5001 28.19C92.9801 27.65 92.7201 26.93 92.7201 26.03V16.82H88.6401V14.21H92.7201V9.32H95.8101V14.21H100.22V16.82H95.8101V25.49C95.8101 26.09 96.0901 26.39 96.6501 26.39H99.7401V29H95.6601ZM103.85 29V14.21H106.94V29H103.85ZM105.41 12.2C104.81 12.2 104.3 12.01 103.88 11.63C103.48 11.23 103.28 10.72 103.28 10.1C103.28 9.48 103.48 8.98 103.88 8.6C104.3 8.2 104.81 8 105.41 8C106.03 8 106.54 8.2 106.94 8.6C107.34 8.98 107.54 9.48 107.54 10.1C107.54 10.72 107.34 11.23 106.94 11.63C106.54 12.01 106.03 12.2 105.41 12.2ZM118.396 29.42C116.976 29.42 115.686 29.12 114.526 28.52C113.386 27.92 112.476 27.05 111.796 25.91C111.136 24.77 110.806 23.4 110.806 21.8V21.41C110.806 19.81 111.136 18.45 111.796 17.33C112.476 16.19 113.386 15.32 114.526 14.72C115.686 14.1 116.976 13.79 118.396 13.79C119.816 13.79 121.026 14.05 122.026 14.57C123.026 15.09 123.826 15.78 124.426 16.64C125.046 17.5 125.446 18.45 125.626 19.49L122.626 20.12C122.526 19.46 122.316 18.86 121.996 18.32C121.676 17.78 121.226 17.35 120.646 17.03C120.066 16.71 119.336 16.55 118.456 16.55C117.596 16.55 116.816 16.75 116.116 17.15C115.436 17.53 114.896 18.09 114.496 18.83C114.096 19.55 113.896 20.43 113.896 21.47V21.74C113.896 22.78 114.096 23.67 114.496 24.41C114.896 25.15 115.436 25.71 116.116 26.09C116.816 26.47 117.596 26.66 118.456 26.66C119.756 26.66 120.746 26.33 121.426 25.67C122.106 24.99 122.536 24.13 122.716 23.09L125.716 23.78C125.476 24.8 125.046 25.74 124.426 26.6C123.826 27.46 123.026 28.15 122.026 28.67C121.026 29.17 119.816 29.42 118.396 29.42ZM135.34 29.42C133.46 29.42 131.9 29 130.66 28.16C129.42 27.32 128.66 26.05 128.38 24.35L131.26 23.66C131.42 24.48 131.69 25.13 132.07 25.61C132.45 26.09 132.92 26.43 133.48 26.63C134.06 26.83 134.68 26.93 135.34 26.93C136.32 26.93 137.07 26.74 137.59 26.36C138.13 25.98 138.4 25.49 138.4 24.89C138.4 24.29 138.15 23.85 137.65 23.57C137.15 23.29 136.41 23.06 135.43 22.88L134.41 22.7C133.41 22.52 132.5 22.26 131.68 21.92C130.86 21.58 130.21 21.11 129.73 20.51C129.25 19.91 129.01 19.14 129.01 18.2C129.01 16.8 129.53 15.72 130.57 14.96C131.61 14.18 132.99 13.79 134.71 13.79C136.37 13.79 137.73 14.17 138.79 14.93C139.87 15.67 140.57 16.68 140.89 17.96L138.01 18.77C137.83 17.87 137.45 17.24 136.87 16.88C136.29 16.5 135.57 16.31 134.71 16.31C133.87 16.31 133.21 16.47 132.73 16.79C132.25 17.09 132.01 17.52 132.01 18.08C132.01 18.68 132.24 19.12 132.7 19.4C133.18 19.68 133.82 19.89 134.62 20.03L135.67 20.21C136.73 20.39 137.7 20.64 138.58 20.96C139.46 21.28 140.15 21.74 140.65 22.34C141.17 22.94 141.43 23.74 141.43 24.74C141.43 26.22 140.88 27.37 139.78 28.19C138.68 29.01 137.2 29.42 135.34 29.42ZM157.278 29.42C156.218 29.42 155.268 29.24 154.428 28.88C153.608 28.52 152.948 27.99 152.448 27.29C151.968 26.59 151.728 25.74 151.728 24.74C151.728 23.72 151.968 22.88 152.448 22.22C152.948 21.54 153.618 21.03 154.458 20.69C155.318 20.35 156.288 20.18 157.368 20.18H161.868V19.22C161.868 18.36 161.608 17.67 161.088 17.15C160.568 16.63 159.768 16.37 158.688 16.37C157.628 16.37 156.818 16.62 156.258 17.12C155.698 17.62 155.328 18.27 155.148 19.07L152.268 18.14C152.508 17.34 152.888 16.62 153.408 15.98C153.948 15.32 154.658 14.79 155.538 14.39C156.418 13.99 157.478 13.79 158.718 13.79C160.638 13.79 162.148 14.28 163.248 15.26C164.348 16.24 164.898 17.63 164.898 19.43V25.52C164.898 26.12 165.178 26.42 165.738 26.42H166.998V29H164.688C163.988 29 163.418 28.82 162.978 28.46C162.538 28.1 162.318 27.61 162.318 26.99V26.9H161.868C161.708 27.2 161.468 27.55 161.148 27.95C160.828 28.35 160.358 28.7 159.738 29C159.118 29.28 158.298 29.42 157.278 29.42ZM157.728 26.87C158.968 26.87 159.968 26.52 160.728 25.82C161.488 25.1 161.868 24.12 161.868 22.88V22.58H157.548C156.728 22.58 156.068 22.76 155.568 23.12C155.068 23.46 154.818 23.97 154.818 24.65C154.818 25.33 155.078 25.87 155.598 26.27C156.118 26.67 156.828 26.87 157.728 26.87ZM170.003 29V14.21H173.033V16.43H173.513C173.793 15.83 174.293 15.27 175.013 14.75C175.733 14.23 176.803 13.97 178.223 13.97C179.343 13.97 180.333 14.22 181.193 14.72C182.073 15.22 182.763 15.93 183.263 16.85C183.763 17.75 184.013 18.84 184.013 20.12V29H180.923V20.36C180.923 19.08 180.603 18.14 179.963 17.54C179.323 16.92 178.443 16.61 177.323 16.61C176.043 16.61 175.013 17.03 174.233 17.87C173.473 18.71 173.093 19.93 173.093 21.53V29H170.003ZM194.58 29.42C193.36 29.42 192.23 29.12 191.19 28.52C190.15 27.92 189.31 27.06 188.67 25.94C188.05 24.8 187.74 23.43 187.74 21.83V21.38C187.74 19.8 188.05 18.44 188.67 17.3C189.29 16.16 190.12 15.29 191.16 14.69C192.2 14.09 193.34 13.79 194.58 13.79C195.54 13.79 196.34 13.91 196.98 14.15C197.64 14.39 198.18 14.7 198.6 15.08C199.02 15.44 199.34 15.82 199.56 16.22H200.04V8H203.13V29H200.1V26.9H199.62C199.24 27.54 198.66 28.12 197.88 28.64C197.12 29.16 196.02 29.42 194.58 29.42ZM195.45 26.72C196.79 26.72 197.89 26.29 198.75 25.43C199.63 24.57 200.07 23.34 200.07 21.74V21.47C200.07 19.89 199.64 18.67 198.78 17.81C197.92 16.95 196.81 16.52 195.45 16.52C194.13 16.52 193.03 16.95 192.15 17.81C191.29 18.67 190.86 19.89 190.86 21.47V21.74C190.86 23.34 191.29 24.57 192.15 25.43C193.03 26.29 194.13 26.72 195.45 26.72Z" fill="black"/>
<rect y="38" width="138" height="38" rx="7" fill="#B9FF66"/>
<path d="M14.2 67V48.94H7.75V46H23.89V48.94H17.44V67H14.2ZM24.7488 67V52.21H27.7788V53.95H28.2588C28.4988 53.33 28.8788 52.88 29.3988 52.6C29.9388 52.3 30.5988 52.15 31.3788 52.15H33.1488V54.94H31.2588C30.2588 54.94 29.4388 55.22 28.7988 55.78C28.1588 56.32 27.8388 57.16 27.8388 58.3V67H24.7488ZM40.5302 67.42C39.4702 67.42 38.5202 67.24 37.6802 66.88C36.8602 66.52 36.2002 65.99 35.7002 65.29C35.2202 64.59 34.9802 63.74 34.9802 62.74C34.9802 61.72 35.2202 60.88 35.7002 60.22C36.2002 59.54 36.8702 59.03 37.7102 58.69C38.5702 58.35 39.5402 58.18 40.6202 58.18H45.1202V57.22C45.1202 56.36 44.8602 55.67 44.3402 55.15C43.8202 54.63 43.0202 54.37 41.9402 54.37C40.8802 54.37 40.0702 54.62 39.5102 55.12C38.9502 55.62 38.5802 56.27 38.4002 57.07L35.5202 56.14C35.7602 55.34 36.1402 54.62 36.6602 53.98C37.2002 53.32 37.9102 52.79 38.7902 52.39C39.6702 51.99 40.7302 51.79 41.9702 51.79C43.8902 51.79 45.4002 52.28 46.5002 53.26C47.6002 54.24 48.1502 55.63 48.1502 57.43V63.52C48.1502 64.12 48.4302 64.42 48.9902 64.42H50.2502V67H47.9402C47.2402 67 46.6702 66.82 46.2302 66.46C45.7902 66.1 45.5702 65.61 45.5702 64.99V64.9H45.1202C44.9602 65.2 44.7202 65.55 44.4002 65.95C44.0802 66.35 43.6102 66.7 42.9902 67C42.3702 67.28 41.5502 67.42 40.5302 67.42ZM40.9802 64.87C42.2202 64.87 43.2202 64.52 43.9802 63.82C44.7402 63.1 45.1202 62.12 45.1202 60.88V60.58H40.8002C39.9802 60.58 39.3202 60.76 38.8202 61.12C38.3202 61.46 38.0702 61.97 38.0702 62.65C38.0702 63.33 38.3302 63.87 38.8502 64.27C39.3702 64.67 40.0802 64.87 40.9802 64.87ZM59.773 67.42C58.353 67.42 57.063 67.12 55.903 66.52C54.763 65.92 53.853 65.05 53.173 63.91C52.513 62.77 52.183 61.4 52.183 59.8V59.41C52.183 57.81 52.513 56.45 53.173 55.33C53.853 54.19 54.763 53.32 55.903 52.72C57.063 52.1 58.353 51.79 59.773 51.79C61.193 51.79 62.403 52.05 63.403 52.57C64.403 53.09 65.203 53.78 65.803 54.64C66.423 55.5 66.823 56.45 67.003 57.49L64.003 58.12C63.903 57.46 63.693 56.86 63.373 56.32C63.053 55.78 62.603 55.35 62.023 55.03C61.443 54.71 60.713 54.55 59.833 54.55C58.973 54.55 58.193 54.75 57.493 55.15C56.813 55.53 56.273 56.09 55.873 56.83C55.473 57.55 55.273 58.43 55.273 59.47V59.74C55.273 60.78 55.473 61.67 55.873 62.41C56.273 63.15 56.813 63.71 57.493 64.09C58.193 64.47 58.973 64.66 59.833 64.66C61.133 64.66 62.123 64.33 62.803 63.67C63.483 62.99 63.913 62.13 64.093 61.09L67.093 61.78C66.853 62.8 66.423 63.74 65.803 64.6C65.203 65.46 64.403 66.15 63.403 66.67C62.403 67.17 61.193 67.42 59.773 67.42ZM70.657 67V46H73.747V57.97H74.227L80.047 52.21H84.157L76.687 59.38L84.397 67H80.317L74.227 60.85H73.747V67H70.657ZM87.1804 67V52.21H90.2704V67H87.1804ZM88.7404 50.2C88.1404 50.2 87.6304 50.01 87.2104 49.63C86.8104 49.23 86.6104 48.72 86.6104 48.1C86.6104 47.48 86.8104 46.98 87.2104 46.6C87.6304 46.2 88.1404 46 88.7404 46C89.3604 46 89.8704 46.2 90.2704 46.6C90.6704 46.98 90.8704 47.48 90.8704 48.1C90.8704 48.72 90.6704 49.23 90.2704 49.63C89.8704 50.01 89.3604 50.2 88.7404 50.2ZM94.8562 67V52.21H97.8862V54.43H98.3662C98.6462 53.83 99.1462 53.27 99.8662 52.75C100.586 52.23 101.656 51.97 103.076 51.97C104.196 51.97 105.186 52.22 106.046 52.72C106.926 53.22 107.616 53.93 108.116 54.85C108.616 55.75 108.866 56.84 108.866 58.12V67H105.776V58.36C105.776 57.08 105.456 56.14 104.816 55.54C104.176 54.92 103.296 54.61 102.176 54.61C100.896 54.61 99.8662 55.03 99.0862 55.87C98.3262 56.71 97.9462 57.93 97.9462 59.53V67H94.8562ZM112.593 59.68V59.23C112.593 57.67 112.903 56.34 113.523 55.24C114.163 54.14 115.003 53.29 116.043 52.69C117.083 52.09 118.223 51.79 119.463 51.79C120.903 51.79 122.003 52.06 122.763 52.6C123.543 53.14 124.113 53.72 124.473 54.34H124.953V52.21H127.953V70.03C127.953 70.93 127.683 71.65 127.143 72.19C126.623 72.73 125.903 73 124.983 73H115.023V70.3H124.023C124.603 70.3 124.893 70 124.893 69.4V64.69H124.413C124.193 65.05 123.883 65.42 123.483 65.8C123.083 66.18 122.553 66.49 121.893 66.73C121.253 66.97 120.443 67.09 119.463 67.09C118.223 67.09 117.073 66.8 116.013 66.22C114.973 65.62 114.143 64.77 113.523 63.67C112.903 62.55 112.593 61.22 112.593 59.68ZM120.303 64.39C121.643 64.39 122.743 63.97 123.603 63.13C124.483 62.27 124.923 61.09 124.923 59.59V59.32C124.923 57.78 124.493 56.6 123.633 55.78C122.773 54.94 121.663 54.52 120.303 54.52C118.983 54.52 117.883 54.94 117.003 55.78C116.143 56.6 115.713 57.78 115.713 59.32V59.59C115.713 61.09 116.143 62.27 117.003 63.13C117.883 63.97 118.983 64.39 120.303 64.39Z" fill="black"/>
<circle cx="20.5" cy="189.5" r="20.5" fill="white"/>
<path d="M11.25 193.701C10.5326 194.115 10.2867 195.033 10.701 195.75C11.1152 196.467 12.0326 196.713 12.75 196.299L11.25 193.701ZM30.7694 185.388C30.9838 184.588 30.5089 183.766 29.7087 183.551L16.6687 180.057C15.8685 179.843 15.046 180.318 14.8316 181.118C14.6172 181.918 15.0921 182.74 15.8923 182.955L27.4834 186.061L24.3776 197.652C24.1631 198.452 24.638 199.274 25.4382 199.489C26.2384 199.703 27.0609 199.228 27.2753 198.428L30.7694 185.388ZM12.75 196.299L30.0705 186.299L28.5705 183.701L11.25 193.701L12.75 196.299Z" fill="black"/>
<path d="M57.6 196.5V182.5H59.28V194.98H66.36V196.5H57.6ZM72.9798 196.78C71.9932 196.78 71.1265 196.573 70.3798 196.16C69.6332 195.733 69.0532 195.14 68.6398 194.38C68.2265 193.62 68.0198 192.74 68.0198 191.74V191.5C68.0198 190.487 68.2265 189.6 68.6398 188.84C69.0532 188.08 69.6265 187.493 70.3598 187.08C71.0932 186.653 71.9332 186.44 72.8798 186.44C73.7998 186.44 74.6132 186.64 75.3198 187.04C76.0265 187.427 76.5798 187.987 76.9798 188.72C77.3798 189.453 77.5798 190.313 77.5798 191.3V192.02H69.5998C69.6398 193.073 69.9798 193.9 70.6198 194.5C71.2598 195.087 72.0598 195.38 73.0198 195.38C73.8598 195.38 74.5065 195.187 74.9598 194.8C75.4132 194.413 75.7598 193.953 75.9998 193.42L77.3598 194.08C77.1598 194.493 76.8798 194.907 76.5198 195.32C76.1732 195.733 75.7132 196.08 75.1398 196.36C74.5798 196.64 73.8598 196.78 72.9798 196.78ZM69.6198 190.72H75.9798C75.9265 189.813 75.6132 189.107 75.0398 188.6C74.4798 188.093 73.7598 187.84 72.8798 187.84C71.9865 187.84 71.2532 188.093 70.6798 188.6C70.1065 189.107 69.7532 189.813 69.6198 190.72ZM83.3358 196.78C82.6558 196.78 82.0358 196.66 81.4758 196.42C80.9158 196.18 80.4758 195.833 80.1558 195.38C79.8358 194.927 79.6758 194.373 79.6758 193.72C79.6758 193.053 79.8358 192.507 80.1558 192.08C80.4758 191.64 80.9158 191.313 81.4758 191.1C82.0358 190.873 82.6624 190.76 83.3558 190.76H86.6558V190.04C86.6558 189.347 86.4491 188.8 86.0358 188.4C85.6358 188 85.0358 187.8 84.2358 187.8C83.4491 187.8 82.8358 187.993 82.3958 188.38C81.9558 188.753 81.6558 189.26 81.4958 189.9L80.0158 189.42C80.1758 188.873 80.4291 188.38 80.7758 187.94C81.1224 187.487 81.5824 187.127 82.1558 186.86C82.7424 186.58 83.4424 186.44 84.2558 186.44C85.5091 186.44 86.4824 186.767 87.1758 187.42C87.8691 188.06 88.2158 188.967 88.2158 190.14V194.56C88.2158 194.96 88.4024 195.16 88.7758 195.16H89.6758V196.5H88.2958C87.8558 196.5 87.5024 196.38 87.2358 196.14C86.9691 195.887 86.8358 195.553 86.8358 195.14V195.04H86.5958C86.4491 195.293 86.2491 195.56 85.9958 195.84C85.7558 196.107 85.4224 196.327 84.9958 196.5C84.5691 196.687 84.0158 196.78 83.3358 196.78ZM83.5158 195.42C84.4491 195.42 85.2024 195.147 85.7758 194.6C86.3624 194.04 86.6558 193.26 86.6558 192.26V192.04H83.4158C82.7891 192.04 82.2691 192.18 81.8558 192.46C81.4558 192.727 81.2558 193.133 81.2558 193.68C81.2558 194.227 81.4624 194.653 81.8758 194.96C82.3024 195.267 82.8491 195.42 83.5158 195.42ZM91.8397 196.5V186.72H93.3797V187.92H93.6597C93.833 187.493 94.0997 187.18 94.4597 186.98C94.8197 186.78 95.293 186.68 95.8797 186.68H97.0397V188.12H95.7797C95.073 188.12 94.4997 188.32 94.0597 188.72C93.633 189.107 93.4197 189.713 93.4197 190.54V196.5H91.8397ZM99.3788 196.5V186.72H100.919V188.38H101.199C101.412 187.913 101.772 187.493 102.279 187.12C102.799 186.733 103.559 186.54 104.559 186.54C105.292 186.54 105.945 186.693 106.519 187C107.105 187.307 107.572 187.76 107.919 188.36C108.265 188.96 108.439 189.7 108.439 190.58V196.5H106.859V190.7C106.859 189.727 106.612 189.02 106.119 188.58C105.639 188.14 104.985 187.92 104.159 187.92C103.212 187.92 102.439 188.227 101.839 188.84C101.252 189.453 100.959 190.367 100.959 191.58V196.5H99.3788ZM116.781 196.5V186.72H118.321V187.94H118.601C118.788 187.593 119.094 187.273 119.521 186.98C119.948 186.687 120.548 186.54 121.321 186.54C122.081 186.54 122.694 186.707 123.161 187.04C123.641 187.373 123.988 187.78 124.201 188.26H124.481C124.708 187.78 125.048 187.373 125.501 187.04C125.968 186.707 126.614 186.54 127.441 186.54C128.094 186.54 128.668 186.673 129.161 186.94C129.654 187.207 130.041 187.593 130.321 188.1C130.614 188.593 130.761 189.187 130.761 189.88V196.5H129.181V190.02C129.181 189.367 128.988 188.853 128.601 188.48C128.228 188.093 127.701 187.9 127.021 187.9C126.301 187.9 125.708 188.133 125.241 188.6C124.788 189.067 124.561 189.74 124.561 190.62V196.5H122.981V190.02C122.981 189.367 122.788 188.853 122.401 188.48C122.028 188.093 121.501 187.9 120.821 187.9C120.101 187.9 119.508 188.133 119.041 188.6C118.588 189.067 118.361 189.74 118.361 190.62V196.5H116.781ZM138.508 196.78C137.521 196.78 136.648 196.573 135.888 196.16C135.141 195.747 134.555 195.167 134.128 194.42C133.715 193.66 133.508 192.767 133.508 191.74V191.48C133.508 190.467 133.715 189.58 134.128 188.82C134.555 188.06 135.141 187.473 135.888 187.06C136.648 186.647 137.521 186.44 138.508 186.44C139.495 186.44 140.361 186.647 141.108 187.06C141.868 187.473 142.455 188.06 142.868 188.82C143.295 189.58 143.508 190.467 143.508 191.48V191.74C143.508 192.767 143.295 193.66 142.868 194.42C142.455 195.167 141.868 195.747 141.108 196.16C140.361 196.573 139.495 196.78 138.508 196.78ZM138.508 195.36C139.548 195.36 140.375 195.033 140.988 194.38C141.615 193.713 141.928 192.82 141.928 191.7V191.52C141.928 190.4 141.615 189.513 140.988 188.86C140.375 188.193 139.548 187.86 138.508 187.86C137.481 187.86 136.655 188.193 136.028 188.86C135.401 189.513 135.088 190.4 135.088 191.52V191.7C135.088 192.82 135.401 193.713 136.028 194.38C136.655 195.033 137.481 195.36 138.508 195.36ZM146.351 196.5V186.72H147.891V187.92H148.171C148.345 187.493 148.611 187.18 148.971 186.98C149.331 186.78 149.805 186.68 150.391 186.68H151.551V188.12H150.291C149.585 188.12 149.011 188.32 148.571 188.72C148.145 189.107 147.931 189.713 147.931 190.54V196.5H146.351ZM158.019 196.78C157.032 196.78 156.166 196.573 155.419 196.16C154.672 195.733 154.092 195.14 153.679 194.38C153.266 193.62 153.059 192.74 153.059 191.74V191.5C153.059 190.487 153.266 189.6 153.679 188.84C154.092 188.08 154.666 187.493 155.399 187.08C156.132 186.653 156.972 186.44 157.919 186.44C158.839 186.44 159.652 186.64 160.359 187.04C161.066 187.427 161.619 187.987 162.019 188.72C162.419 189.453 162.619 190.313 162.619 191.3V192.02H154.639C154.679 193.073 155.019 193.9 155.659 194.5C156.299 195.087 157.099 195.38 158.059 195.38C158.899 195.38 159.546 195.187 159.999 194.8C160.452 194.413 160.799 193.953 161.039 193.42L162.399 194.08C162.199 194.493 161.919 194.907 161.559 195.32C161.212 195.733 160.752 196.08 160.179 196.36C159.619 196.64 158.899 196.78 158.019 196.78ZM154.659 190.72H161.019C160.966 189.813 160.652 189.107 160.079 188.6C159.519 188.093 158.799 187.84 157.919 187.84C157.026 187.84 156.292 188.093 155.719 188.6C155.146 189.107 154.792 189.813 154.659 190.72Z" fill="white"/>
</svg>
