<svg width="209" height="210" viewBox="0 0 209 210" fill="none" xmlns="http://www.w3.org/2000/svg">
<rect width="209" height="38" rx="7" fill="white"/>
<path d="M9.19 29V8H17.53C18.81 8 19.95 8.26 20.95 8.78C21.97 9.28 22.76 10 23.32 10.94C23.9 11.86 24.19 12.97 24.19 14.27V14.66C24.19 15.96 23.89 17.08 23.29 18.02C22.71 18.96 21.92 19.68 20.92 20.18C19.92 20.68 18.79 20.93 17.53 20.93H12.43V29H9.19ZM12.43 17.99H17.2C18.34 17.99 19.25 17.69 19.93 17.09C20.61 16.49 20.95 15.67 20.95 14.63V14.33C20.95 13.27 20.61 12.44 19.93 11.84C19.25 11.24 18.34 10.94 17.2 10.94H12.43V17.99ZM31.6239 29.42C30.5639 29.42 29.6139 29.24 28.7739 28.88C27.9539 28.52 27.2939 27.99 26.7939 27.29C26.3139 26.59 26.0739 25.74 26.0739 24.74C26.0739 23.72 26.3139 22.88 26.7939 22.22C27.2939 21.54 27.9639 21.03 28.8039 20.69C29.6639 20.35 30.6339 20.18 31.7139 20.18H36.2139V19.22C36.2139 18.36 35.9539 17.67 35.4339 17.15C34.9139 16.63 34.1139 16.37 33.0339 16.37C31.9739 16.37 31.1639 16.62 30.6039 17.12C30.0439 17.62 29.6739 18.27 29.4939 19.07L26.6139 18.14C26.8539 17.34 27.2339 16.62 27.7539 15.98C28.2939 15.32 29.0039 14.79 29.8839 14.39C30.7639 13.99 31.8239 13.79 33.0639 13.79C34.9839 13.79 36.4939 14.28 37.5939 15.26C38.6939 16.24 39.2439 17.63 39.2439 19.43V25.52C39.2439 26.12 39.5239 26.42 40.0839 26.42H41.3439V29H39.0339C38.3339 29 37.7639 28.82 37.3239 28.46C36.8839 28.1 36.6639 27.61 36.6639 26.99V26.9H36.2139C36.0539 27.2 35.8139 27.55 35.4939 27.95C35.1739 28.35 34.7039 28.7 34.0839 29C33.4639 29.28 32.6439 29.42 31.6239 29.42ZM32.0739 26.87C33.3139 26.87 34.3139 26.52 35.0739 25.82C35.8339 25.1 36.2139 24.12 36.2139 22.88V22.58H31.8939C31.0739 22.58 30.4139 22.76 29.9139 23.12C29.4139 23.46 29.1639 23.97 29.1639 24.65C29.1639 25.33 29.4239 25.87 29.9439 26.27C30.4639 26.67 31.1739 26.87 32.0739 26.87ZM45.6775 35V32.3H53.9275C54.4875 32.3 54.7675 32 54.7675 31.4V26.84H54.2875C54.1075 27.24 53.8275 27.63 53.4475 28.01C53.0875 28.37 52.5975 28.67 51.9775 28.91C51.3575 29.15 50.5775 29.27 49.6375 29.27C48.5175 29.27 47.5175 29.02 46.6375 28.52C45.7575 28.02 45.0675 27.31 44.5675 26.39C44.0675 25.47 43.8175 24.38 43.8175 23.12V14.21H46.9075V22.88C46.9075 24.16 47.2275 25.11 47.8675 25.73C48.5075 26.33 49.3975 26.63 50.5375 26.63C51.7975 26.63 52.8075 26.21 53.5675 25.37C54.3475 24.53 54.7375 23.31 54.7375 21.71V14.21H57.8275V32.03C57.8275 32.93 57.5575 33.65 57.0175 34.19C56.4975 34.73 55.7775 35 54.8575 35H45.6775ZM62.3352 22.73V19.91H71.2152V22.73H62.3352ZM75.696 35V14.21H78.726V16.34H79.206C79.586 15.68 80.156 15.09 80.916 14.57C81.696 14.05 82.806 13.79 84.246 13.79C85.486 13.79 86.616 14.09 87.636 14.69C88.676 15.29 89.506 16.16 90.126 17.3C90.766 18.42 91.086 19.78 91.086 21.38V21.83C91.086 23.43 90.776 24.8 90.156 25.94C89.536 27.06 88.706 27.92 87.666 28.52C86.626 29.12 85.486 29.42 84.246 29.42C83.286 29.42 82.476 29.3 81.816 29.06C81.156 28.82 80.626 28.52 80.226 28.16C79.826 27.78 79.506 27.39 79.266 26.99H78.786V35H75.696ZM83.346 26.72C84.706 26.72 85.816 26.29 86.676 25.43C87.536 24.57 87.966 23.34 87.966 21.74V21.47C87.966 19.89 87.526 18.67 86.646 17.81C85.786 16.95 84.686 16.52 83.346 16.52C82.026 16.52 80.926 16.95 80.046 17.81C79.186 18.67 78.756 19.89 78.756 21.47V21.74C78.756 23.34 79.186 24.57 80.046 25.43C80.926 26.29 82.026 26.72 83.346 26.72ZM101.695 29.42C100.195 29.42 98.8848 29.11 97.7648 28.49C96.6448 27.85 95.7648 26.96 95.1248 25.82C94.5048 24.66 94.1948 23.32 94.1948 21.8V21.44C94.1948 19.9 94.5048 18.56 95.1248 17.42C95.7448 16.26 96.6048 15.37 97.7048 14.75C98.8248 14.11 100.115 13.79 101.575 13.79C102.995 13.79 104.235 14.11 105.295 14.75C106.375 15.37 107.215 16.24 107.815 17.36C108.415 18.48 108.715 19.79 108.715 21.29V22.46H97.3448C97.3848 23.76 97.8148 24.8 98.6348 25.58C99.4748 26.34 100.515 26.72 101.755 26.72C102.915 26.72 103.785 26.46 104.365 25.94C104.965 25.42 105.425 24.82 105.745 24.14L108.295 25.46C108.015 26.02 107.605 26.61 107.065 27.23C106.545 27.85 105.855 28.37 104.995 28.79C104.135 29.21 103.035 29.42 101.695 29.42ZM97.3748 20.09H105.565C105.485 18.97 105.085 18.1 104.365 17.48C103.645 16.84 102.705 16.52 101.545 16.52C100.385 16.52 99.4348 16.84 98.6948 17.48C97.9748 18.1 97.5348 18.97 97.3748 20.09ZM112.434 29V14.21H115.464V15.95H115.944C116.184 15.33 116.564 14.88 117.084 14.6C117.624 14.3 118.284 14.15 119.064 14.15H120.834V16.94H118.944C117.944 16.94 117.124 17.22 116.484 17.78C115.844 18.32 115.524 19.16 115.524 20.3V29H112.434ZM123.478 22.73V19.91H132.358V22.73H123.478ZM143.709 29.42C142.289 29.42 140.999 29.12 139.839 28.52C138.699 27.92 137.789 27.05 137.109 25.91C136.449 24.77 136.119 23.4 136.119 21.8V21.41C136.119 19.81 136.449 18.45 137.109 17.33C137.789 16.19 138.699 15.32 139.839 14.72C140.999 14.1 142.289 13.79 143.709 13.79C145.129 13.79 146.339 14.05 147.339 14.57C148.339 15.09 149.139 15.78 149.739 16.64C150.359 17.5 150.759 18.45 150.939 19.49L147.939 20.12C147.839 19.46 147.629 18.86 147.309 18.32C146.989 17.78 146.539 17.35 145.959 17.03C145.379 16.71 144.649 16.55 143.769 16.55C142.909 16.55 142.129 16.75 141.429 17.15C140.749 17.53 140.209 18.09 139.809 18.83C139.409 19.55 139.209 20.43 139.209 21.47V21.74C139.209 22.78 139.409 23.67 139.809 24.41C140.209 25.15 140.749 25.71 141.429 26.09C142.129 26.47 142.909 26.66 143.769 26.66C145.069 26.66 146.059 26.33 146.739 25.67C147.419 24.99 147.849 24.13 148.029 23.09L151.029 23.78C150.789 24.8 150.359 25.74 149.739 26.6C149.139 27.46 148.339 28.15 147.339 28.67C146.339 29.17 145.129 29.42 143.709 29.42ZM154.593 29V8H157.683V29H154.593ZM162.268 29V14.21H165.358V29H162.268ZM163.828 12.2C163.228 12.2 162.718 12.01 162.298 11.63C161.898 11.23 161.698 10.72 161.698 10.1C161.698 9.48 161.898 8.98 162.298 8.6C162.718 8.2 163.228 8 163.828 8C164.448 8 164.958 8.2 165.358 8.6C165.758 8.98 165.958 9.48 165.958 10.1C165.958 10.72 165.758 11.23 165.358 11.63C164.958 12.01 164.448 12.2 163.828 12.2ZM176.814 29.42C175.394 29.42 174.104 29.12 172.944 28.52C171.804 27.92 170.894 27.05 170.214 25.91C169.554 24.77 169.224 23.4 169.224 21.8V21.41C169.224 19.81 169.554 18.45 170.214 17.33C170.894 16.19 171.804 15.32 172.944 14.72C174.104 14.1 175.394 13.79 176.814 13.79C178.234 13.79 179.444 14.05 180.444 14.57C181.444 15.09 182.244 15.78 182.844 16.64C183.464 17.5 183.864 18.45 184.044 19.49L181.044 20.12C180.944 19.46 180.734 18.86 180.414 18.32C180.094 17.78 179.644 17.35 179.064 17.03C178.484 16.71 177.754 16.55 176.874 16.55C176.014 16.55 175.234 16.75 174.534 17.15C173.854 17.53 173.314 18.09 172.914 18.83C172.514 19.55 172.314 20.43 172.314 21.47V21.74C172.314 22.78 172.514 23.67 172.914 24.41C173.314 25.15 173.854 25.71 174.534 26.09C175.234 26.47 176.014 26.66 176.874 26.66C178.174 26.66 179.164 26.33 179.844 25.67C180.524 24.99 180.954 24.13 181.134 23.09L184.134 23.78C183.894 24.8 183.464 25.74 182.844 26.6C182.244 27.46 181.444 28.15 180.444 28.67C179.444 29.17 178.234 29.42 176.814 29.42ZM187.698 29V8H190.788V19.97H191.268L197.088 14.21H201.198L193.728 21.38L201.438 29H197.358L191.268 22.85H190.788V29H187.698Z" fill="black"/>
<rect y="38" width="178" height="38" rx="7" fill="white"/>
<path d="M13.87 67.42C12.81 67.42 11.86 67.24 11.02 66.88C10.2 66.52 9.54 65.99 9.04 65.29C8.56 64.59 8.32 63.74 8.32 62.74C8.32 61.72 8.56 60.88 9.04 60.22C9.54 59.54 10.21 59.03 11.05 58.69C11.91 58.35 12.88 58.18 13.96 58.18H18.46V57.22C18.46 56.36 18.2 55.67 17.68 55.15C17.16 54.63 16.36 54.37 15.28 54.37C14.22 54.37 13.41 54.62 12.85 55.12C12.29 55.62 11.92 56.27 11.74 57.07L8.86 56.14C9.1 55.34 9.48 54.62 10 53.98C10.54 53.32 11.25 52.79 12.13 52.39C13.01 51.99 14.07 51.79 15.31 51.79C17.23 51.79 18.74 52.28 19.84 53.26C20.94 54.24 21.49 55.63 21.49 57.43V63.52C21.49 64.12 21.77 64.42 22.33 64.42H23.59V67H21.28C20.58 67 20.01 66.82 19.57 66.46C19.13 66.1 18.91 65.61 18.91 64.99V64.9H18.46C18.3 65.2 18.06 65.55 17.74 65.95C17.42 66.35 16.95 66.7 16.33 67C15.71 67.28 14.89 67.42 13.87 67.42ZM14.32 64.87C15.56 64.87 16.56 64.52 17.32 63.82C18.08 63.1 18.46 62.12 18.46 60.88V60.58H14.14C13.32 60.58 12.66 60.76 12.16 61.12C11.66 61.46 11.41 61.97 11.41 62.65C11.41 63.33 11.67 63.87 12.19 64.27C12.71 64.67 13.42 64.87 14.32 64.87ZM32.3629 67.42C31.1429 67.42 30.0129 67.12 28.9729 66.52C27.9329 65.92 27.0929 65.06 26.4529 63.94C25.8329 62.8 25.5229 61.43 25.5229 59.83V59.38C25.5229 57.8 25.8329 56.44 26.4529 55.3C27.0729 54.16 27.9029 53.29 28.9429 52.69C29.9829 52.09 31.1229 51.79 32.3629 51.79C33.3229 51.79 34.1229 51.91 34.7629 52.15C35.4229 52.39 35.9629 52.7 36.3829 53.08C36.8029 53.44 37.1229 53.82 37.3429 54.22H37.8229V46H40.9129V67H37.8829V64.9H37.4029C37.0229 65.54 36.4429 66.12 35.6629 66.64C34.9029 67.16 33.8029 67.42 32.3629 67.42ZM33.2329 64.72C34.5729 64.72 35.6729 64.29 36.5329 63.43C37.4129 62.57 37.8529 61.34 37.8529 59.74V59.47C37.8529 57.89 37.4229 56.67 36.5629 55.81C35.7029 54.95 34.5929 54.52 33.2329 54.52C31.9129 54.52 30.8129 54.95 29.9329 55.81C29.0729 56.67 28.6429 57.89 28.6429 59.47V59.74C28.6429 61.34 29.0729 62.57 29.9329 63.43C30.8129 64.29 31.9129 64.72 33.2329 64.72ZM48.8816 67L43.9016 52.21H47.1716L51.1016 64.72H51.5816L55.5116 52.21H58.7816L53.8016 67H48.8816ZM68.062 67.42C66.562 67.42 65.252 67.11 64.132 66.49C63.012 65.85 62.132 64.96 61.492 63.82C60.872 62.66 60.562 61.32 60.562 59.8V59.44C60.562 57.9 60.872 56.56 61.492 55.42C62.112 54.26 62.972 53.37 64.072 52.75C65.192 52.11 66.482 51.79 67.942 51.79C69.362 51.79 70.602 52.11 71.662 52.75C72.742 53.37 73.582 54.24 74.182 55.36C74.782 56.48 75.082 57.79 75.082 59.29V60.46H63.712C63.752 61.76 64.182 62.8 65.002 63.58C65.842 64.34 66.882 64.72 68.122 64.72C69.282 64.72 70.152 64.46 70.732 63.94C71.332 63.42 71.792 62.82 72.112 62.14L74.662 63.46C74.382 64.02 73.972 64.61 73.432 65.23C72.912 65.85 72.222 66.37 71.362 66.79C70.502 67.21 69.402 67.42 68.062 67.42ZM63.742 58.09H71.932C71.852 56.97 71.452 56.1 70.732 55.48C70.012 54.84 69.072 54.52 67.912 54.52C66.752 54.52 65.802 54.84 65.062 55.48C64.342 56.1 63.902 56.97 63.742 58.09ZM78.8015 67V52.21H81.8315V53.95H82.3115C82.5515 53.33 82.9315 52.88 83.4515 52.6C83.9915 52.3 84.6515 52.15 85.4315 52.15H87.2015V54.94H85.3115C84.3115 54.94 83.4915 55.22 82.8515 55.78C82.2115 56.32 81.8915 57.16 81.8915 58.3V67H78.8015ZM95.953 67C95.053 67 94.333 66.73 93.793 66.19C93.273 65.65 93.013 64.93 93.013 64.03V54.82H88.933V52.21H93.013V47.32H96.103V52.21H100.513V54.82H96.103V63.49C96.103 64.09 96.383 64.39 96.943 64.39H100.033V67H95.953ZM104.143 67V52.21H107.233V67H104.143ZM105.703 50.2C105.103 50.2 104.593 50.01 104.173 49.63C103.773 49.23 103.573 48.72 103.573 48.1C103.573 47.48 103.773 46.98 104.173 46.6C104.593 46.2 105.103 46 105.703 46C106.323 46 106.833 46.2 107.233 46.6C107.633 46.98 107.833 47.48 107.833 48.1C107.833 48.72 107.633 49.23 107.233 49.63C106.833 50.01 106.323 50.2 105.703 50.2ZM117.879 67.42C115.999 67.42 114.439 67 113.199 66.16C111.959 65.32 111.199 64.05 110.919 62.35L113.799 61.66C113.959 62.48 114.229 63.13 114.609 63.61C114.989 64.09 115.459 64.43 116.019 64.63C116.599 64.83 117.219 64.93 117.879 64.93C118.859 64.93 119.609 64.74 120.129 64.36C120.669 63.98 120.939 63.49 120.939 62.89C120.939 62.29 120.689 61.85 120.189 61.57C119.689 61.29 118.949 61.06 117.969 60.88L116.949 60.7C115.949 60.52 115.039 60.26 114.219 59.92C113.399 59.58 112.749 59.11 112.269 58.51C111.789 57.91 111.549 57.14 111.549 56.2C111.549 54.8 112.069 53.72 113.109 52.96C114.149 52.18 115.529 51.79 117.249 51.79C118.909 51.79 120.269 52.17 121.329 52.93C122.409 53.67 123.109 54.68 123.429 55.96L120.549 56.77C120.369 55.87 119.989 55.24 119.409 54.88C118.829 54.5 118.109 54.31 117.249 54.31C116.409 54.31 115.749 54.47 115.269 54.79C114.789 55.09 114.549 55.52 114.549 56.08C114.549 56.68 114.779 57.12 115.239 57.4C115.719 57.68 116.359 57.89 117.159 58.03L118.209 58.21C119.269 58.39 120.239 58.64 121.119 58.96C121.999 59.28 122.689 59.74 123.189 60.34C123.709 60.94 123.969 61.74 123.969 62.74C123.969 64.22 123.419 65.37 122.319 66.19C121.219 67.01 119.739 67.42 117.879 67.42ZM127.581 67V52.21H130.671V67H127.581ZM129.141 50.2C128.541 50.2 128.031 50.01 127.611 49.63C127.211 49.23 127.011 48.72 127.011 48.1C127.011 47.48 127.211 46.98 127.611 46.6C128.031 46.2 128.541 46 129.141 46C129.761 46 130.271 46.2 130.671 46.6C131.071 46.98 131.271 47.48 131.271 48.1C131.271 48.72 131.071 49.23 130.671 49.63C130.271 50.01 129.761 50.2 129.141 50.2ZM135.257 67V52.21H138.287V54.43H138.767C139.047 53.83 139.547 53.27 140.267 52.75C140.987 52.23 142.057 51.97 143.477 51.97C144.597 51.97 145.587 52.22 146.447 52.72C147.327 53.22 148.017 53.93 148.517 54.85C149.017 55.75 149.267 56.84 149.267 58.12V67H146.177V58.36C146.177 57.08 145.857 56.14 145.217 55.54C144.577 54.92 143.697 54.61 142.577 54.61C141.297 54.61 140.267 55.03 139.487 55.87C138.727 56.71 138.347 57.93 138.347 59.53V67H135.257ZM152.994 59.68V59.23C152.994 57.67 153.304 56.34 153.924 55.24C154.564 54.14 155.404 53.29 156.444 52.69C157.484 52.09 158.624 51.79 159.864 51.79C161.304 51.79 162.404 52.06 163.164 52.6C163.944 53.14 164.514 53.72 164.874 54.34H165.354V52.21H168.354V70.03C168.354 70.93 168.084 71.65 167.544 72.19C167.024 72.73 166.304 73 165.384 73H155.424V70.3H164.424C165.004 70.3 165.294 70 165.294 69.4V64.69H164.814C164.594 65.05 164.284 65.42 163.884 65.8C163.484 66.18 162.954 66.49 162.294 66.73C161.654 66.97 160.844 67.09 159.864 67.09C158.624 67.09 157.474 66.8 156.414 66.22C155.374 65.62 154.544 64.77 153.924 63.67C153.304 62.55 152.994 61.22 152.994 59.68ZM160.704 64.39C162.044 64.39 163.144 63.97 164.004 63.13C164.884 62.27 165.324 61.09 165.324 59.59V59.32C165.324 57.78 164.894 56.6 164.034 55.78C163.174 54.94 162.064 54.52 160.704 54.52C159.384 54.52 158.284 54.94 157.404 55.78C156.544 56.6 156.114 57.78 156.114 59.32V59.59C156.114 61.09 156.544 62.27 157.404 63.13C158.284 63.97 159.384 64.39 160.704 64.39Z" fill="black"/>
<circle cx="20.5" cy="189.5" r="20.5" fill="#191A23"/>
<path d="M11.25 193.701C10.5326 194.115 10.2867 195.033 10.701 195.75C11.1152 196.467 12.0326 196.713 12.75 196.299L11.25 193.701ZM30.7694 185.388C30.9838 184.588 30.5089 183.766 29.7087 183.551L16.6687 180.057C15.8685 179.843 15.046 180.318 14.8316 181.118C14.6172 181.918 15.0921 182.74 15.8923 182.955L27.4834 186.061L24.3776 197.652C24.1631 198.452 24.638 199.274 25.4382 199.489C26.2384 199.703 27.0609 199.228 27.2753 198.428L30.7694 185.388ZM12.75 196.299L30.0705 186.299L28.5705 183.701L11.25 193.701L12.75 196.299Z" fill="#B9FF66"/>
<path d="M57.6 196.5V182.5H59.28V194.98H66.36V196.5H57.6ZM72.9798 196.78C71.9932 196.78 71.1265 196.573 70.3798 196.16C69.6332 195.733 69.0532 195.14 68.6398 194.38C68.2265 193.62 68.0198 192.74 68.0198 191.74V191.5C68.0198 190.487 68.2265 189.6 68.6398 188.84C69.0532 188.08 69.6265 187.493 70.3598 187.08C71.0932 186.653 71.9332 186.44 72.8798 186.44C73.7998 186.44 74.6132 186.64 75.3198 187.04C76.0265 187.427 76.5798 187.987 76.9798 188.72C77.3798 189.453 77.5798 190.313 77.5798 191.3V192.02H69.5998C69.6398 193.073 69.9798 193.9 70.6198 194.5C71.2598 195.087 72.0598 195.38 73.0198 195.38C73.8598 195.38 74.5065 195.187 74.9598 194.8C75.4132 194.413 75.7598 193.953 75.9998 193.42L77.3598 194.08C77.1598 194.493 76.8798 194.907 76.5198 195.32C76.1732 195.733 75.7132 196.08 75.1398 196.36C74.5798 196.64 73.8598 196.78 72.9798 196.78ZM69.6198 190.72H75.9798C75.9265 189.813 75.6132 189.107 75.0398 188.6C74.4798 188.093 73.7598 187.84 72.8798 187.84C71.9865 187.84 71.2532 188.093 70.6798 188.6C70.1065 189.107 69.7532 189.813 69.6198 190.72ZM83.3358 196.78C82.6558 196.78 82.0358 196.66 81.4758 196.42C80.9158 196.18 80.4758 195.833 80.1558 195.38C79.8358 194.927 79.6758 194.373 79.6758 193.72C79.6758 193.053 79.8358 192.507 80.1558 192.08C80.4758 191.64 80.9158 191.313 81.4758 191.1C82.0358 190.873 82.6624 190.76 83.3558 190.76H86.6558V190.04C86.6558 189.347 86.4491 188.8 86.0358 188.4C85.6358 188 85.0358 187.8 84.2358 187.8C83.4491 187.8 82.8358 187.993 82.3958 188.38C81.9558 188.753 81.6558 189.26 81.4958 189.9L80.0158 189.42C80.1758 188.873 80.4291 188.38 80.7758 187.94C81.1224 187.487 81.5824 187.127 82.1558 186.86C82.7424 186.58 83.4424 186.44 84.2558 186.44C85.5091 186.44 86.4824 186.767 87.1758 187.42C87.8691 188.06 88.2158 188.967 88.2158 190.14V194.56C88.2158 194.96 88.4024 195.16 88.7758 195.16H89.6758V196.5H88.2958C87.8558 196.5 87.5024 196.38 87.2358 196.14C86.9691 195.887 86.8358 195.553 86.8358 195.14V195.04H86.5958C86.4491 195.293 86.2491 195.56 85.9958 195.84C85.7558 196.107 85.4224 196.327 84.9958 196.5C84.5691 196.687 84.0158 196.78 83.3358 196.78ZM83.5158 195.42C84.4491 195.42 85.2024 195.147 85.7758 194.6C86.3624 194.04 86.6558 193.26 86.6558 192.26V192.04H83.4158C82.7891 192.04 82.2691 192.18 81.8558 192.46C81.4558 192.727 81.2558 193.133 81.2558 193.68C81.2558 194.227 81.4624 194.653 81.8758 194.96C82.3024 195.267 82.8491 195.42 83.5158 195.42ZM91.8397 196.5V186.72H93.3797V187.92H93.6597C93.833 187.493 94.0997 187.18 94.4597 186.98C94.8197 186.78 95.293 186.68 95.8797 186.68H97.0397V188.12H95.7797C95.073 188.12 94.4997 188.32 94.0597 188.72C93.633 189.107 93.4197 189.713 93.4197 190.54V196.5H91.8397ZM99.3788 196.5V186.72H100.919V188.38H101.199C101.412 187.913 101.772 187.493 102.279 187.12C102.799 186.733 103.559 186.54 104.559 186.54C105.292 186.54 105.945 186.693 106.519 187C107.105 187.307 107.572 187.76 107.919 188.36C108.265 188.96 108.439 189.7 108.439 190.58V196.5H106.859V190.7C106.859 189.727 106.612 189.02 106.119 188.58C105.639 188.14 104.985 187.92 104.159 187.92C103.212 187.92 102.439 188.227 101.839 188.84C101.252 189.453 100.959 190.367 100.959 191.58V196.5H99.3788ZM116.781 196.5V186.72H118.321V187.94H118.601C118.788 187.593 119.094 187.273 119.521 186.98C119.948 186.687 120.548 186.54 121.321 186.54C122.081 186.54 122.694 186.707 123.161 187.04C123.641 187.373 123.988 187.78 124.201 188.26H124.481C124.708 187.78 125.048 187.373 125.501 187.04C125.968 186.707 126.614 186.54 127.441 186.54C128.094 186.54 128.668 186.673 129.161 186.94C129.654 187.207 130.041 187.593 130.321 188.1C130.614 188.593 130.761 189.187 130.761 189.88V196.5H129.181V190.02C129.181 189.367 128.988 188.853 128.601 188.48C128.228 188.093 127.701 187.9 127.021 187.9C126.301 187.9 125.708 188.133 125.241 188.6C124.788 189.067 124.561 189.74 124.561 190.62V196.5H122.981V190.02C122.981 189.367 122.788 188.853 122.401 188.48C122.028 188.093 121.501 187.9 120.821 187.9C120.101 187.9 119.508 188.133 119.041 188.6C118.588 189.067 118.361 189.74 118.361 190.62V196.5H116.781ZM138.508 196.78C137.521 196.78 136.648 196.573 135.888 196.16C135.141 195.747 134.555 195.167 134.128 194.42C133.715 193.66 133.508 192.767 133.508 191.74V191.48C133.508 190.467 133.715 189.58 134.128 188.82C134.555 188.06 135.141 187.473 135.888 187.06C136.648 186.647 137.521 186.44 138.508 186.44C139.495 186.44 140.361 186.647 141.108 187.06C141.868 187.473 142.455 188.06 142.868 188.82C143.295 189.58 143.508 190.467 143.508 191.48V191.74C143.508 192.767 143.295 193.66 142.868 194.42C142.455 195.167 141.868 195.747 141.108 196.16C140.361 196.573 139.495 196.78 138.508 196.78ZM138.508 195.36C139.548 195.36 140.375 195.033 140.988 194.38C141.615 193.713 141.928 192.82 141.928 191.7V191.52C141.928 190.4 141.615 189.513 140.988 188.86C140.375 188.193 139.548 187.86 138.508 187.86C137.481 187.86 136.655 188.193 136.028 188.86C135.401 189.513 135.088 190.4 135.088 191.52V191.7C135.088 192.82 135.401 193.713 136.028 194.38C136.655 195.033 137.481 195.36 138.508 195.36ZM146.351 196.5V186.72H147.891V187.92H148.171C148.345 187.493 148.611 187.18 148.971 186.98C149.331 186.78 149.805 186.68 150.391 186.68H151.551V188.12H150.291C149.585 188.12 149.011 188.32 148.571 188.72C148.145 189.107 147.931 189.713 147.931 190.54V196.5H146.351ZM158.019 196.78C157.032 196.78 156.166 196.573 155.419 196.16C154.672 195.733 154.092 195.14 153.679 194.38C153.266 193.62 153.059 192.74 153.059 191.74V191.5C153.059 190.487 153.266 189.6 153.679 188.84C154.092 188.08 154.666 187.493 155.399 187.08C156.132 186.653 156.972 186.44 157.919 186.44C158.839 186.44 159.652 186.64 160.359 187.04C161.066 187.427 161.619 187.987 162.019 188.72C162.419 189.453 162.619 190.313 162.619 191.3V192.02H154.639C154.679 193.073 155.019 193.9 155.659 194.5C156.299 195.087 157.099 195.38 158.059 195.38C158.899 195.38 159.546 195.187 159.999 194.8C160.452 194.413 160.799 193.953 161.039 193.42L162.399 194.08C162.199 194.493 161.919 194.907 161.559 195.32C161.212 195.733 160.752 196.08 160.179 196.36C159.619 196.64 158.899 196.78 158.019 196.78ZM154.659 190.72H161.019C160.966 189.813 160.652 189.107 160.079 188.6C159.519 188.093 158.799 187.84 157.919 187.84C157.026 187.84 156.292 188.093 155.719 188.6C155.146 189.107 154.792 189.813 154.659 190.72Z" fill="black"/>
</svg>
