<svg width="197" height="210" viewBox="0 0 197 210" fill="none" xmlns="http://www.w3.org/2000/svg">
<rect width="197" height="38" rx="7" fill="white"/>
<path d="M16.33 29.42C14.75 29.42 13.35 29.14 12.13 28.58C10.91 28.02 9.95 27.2 9.25 26.12C8.57 25.02 8.23 23.69 8.23 22.13V21.38H11.44V22.13C11.44 23.61 11.88 24.72 12.76 25.46C13.66 26.2 14.85 26.57 16.33 26.57C17.83 26.57 18.96 26.26 19.72 25.64C20.48 25 20.86 24.18 20.86 23.18C20.86 22.52 20.68 21.98 20.32 21.56C19.96 21.14 19.45 20.81 18.79 20.57C18.13 20.31 17.34 20.07 16.42 19.85L15.31 19.58C13.97 19.26 12.8 18.87 11.8 18.41C10.82 17.93 10.06 17.3 9.52 16.52C8.98 15.74 8.71 14.74 8.71 13.52C8.71 12.28 9.01 11.22 9.61 10.34C10.23 9.46 11.08 8.78 12.16 8.3C13.24 7.82 14.51 7.58 15.97 7.58C17.43 7.58 18.73 7.83 19.87 8.33C21.03 8.83 21.94 9.57 22.6 10.55C23.26 11.53 23.59 12.76 23.59 14.24V15.32H20.38V14.24C20.38 13.34 20.19 12.61 19.81 12.05C19.45 11.49 18.94 11.08 18.28 10.82C17.62 10.56 16.85 10.43 15.97 10.43C14.69 10.43 13.69 10.7 12.97 11.24C12.27 11.76 11.92 12.49 11.92 13.43C11.92 14.07 12.07 14.6 12.37 15.02C12.69 15.42 13.15 15.75 13.75 16.01C14.35 16.27 15.1 16.5 16 16.7L17.11 16.97C18.47 17.27 19.67 17.66 20.71 18.14C21.75 18.6 22.57 19.23 23.17 20.03C23.77 20.83 24.07 21.86 24.07 23.12C24.07 24.38 23.75 25.48 23.11 26.42C22.49 27.36 21.6 28.1 20.44 28.64C19.28 29.16 17.91 29.42 16.33 29.42ZM34.4913 29.42C33.0113 29.42 31.6913 29.12 30.5313 28.52C29.3913 27.9 28.4913 27.02 27.8313 25.88C27.1713 24.74 26.8413 23.39 26.8413 21.83V21.38C26.8413 19.82 27.1713 18.48 27.8313 17.36C28.4913 16.22 29.3913 15.34 30.5313 14.72C31.6913 14.1 33.0113 13.79 34.4913 13.79C35.9713 13.79 37.2913 14.1 38.4513 14.72C39.6113 15.34 40.5213 16.22 41.1813 17.36C41.8413 18.48 42.1713 19.82 42.1713 21.38V21.83C42.1713 23.39 41.8413 24.74 41.1813 25.88C40.5213 27.02 39.6113 27.9 38.4513 28.52C37.2913 29.12 35.9713 29.42 34.4913 29.42ZM34.4913 26.66C35.8513 26.66 36.9513 26.23 37.7913 25.37C38.6513 24.49 39.0813 23.28 39.0813 21.74V21.47C39.0813 19.93 38.6613 18.73 37.8213 17.87C36.9813 16.99 35.8713 16.55 34.4913 16.55C33.1513 16.55 32.0513 16.99 31.1913 17.87C30.3513 18.73 29.9313 19.93 29.9313 21.47V21.74C29.9313 23.28 30.3513 24.49 31.1913 25.37C32.0513 26.23 33.1513 26.66 34.4913 26.66ZM52.8883 29.42C51.4683 29.42 50.1783 29.12 49.0183 28.52C47.8783 27.92 46.9683 27.05 46.2883 25.91C45.6283 24.77 45.2983 23.4 45.2983 21.8V21.41C45.2983 19.81 45.6283 18.45 46.2883 17.33C46.9683 16.19 47.8783 15.32 49.0183 14.72C50.1783 14.1 51.4683 13.79 52.8883 13.79C54.3083 13.79 55.5183 14.05 56.5183 14.57C57.5183 15.09 58.3183 15.78 58.9183 16.64C59.5383 17.5 59.9383 18.45 60.1183 19.49L57.1183 20.12C57.0183 19.46 56.8083 18.86 56.4883 18.32C56.1683 17.78 55.7183 17.35 55.1383 17.03C54.5583 16.71 53.8283 16.55 52.9483 16.55C52.0883 16.55 51.3083 16.75 50.6083 17.15C49.9283 17.53 49.3883 18.09 48.9883 18.83C48.5883 19.55 48.3883 20.43 48.3883 21.47V21.74C48.3883 22.78 48.5883 23.67 48.9883 24.41C49.3883 25.15 49.9283 25.71 50.6083 26.09C51.3083 26.47 52.0883 26.66 52.9483 26.66C54.2483 26.66 55.2383 26.33 55.9183 25.67C56.5983 24.99 57.0283 24.13 57.2083 23.09L60.2083 23.78C59.9683 24.8 59.5383 25.74 58.9183 26.6C58.3183 27.46 57.5183 28.15 56.5183 28.67C55.5183 29.17 54.3083 29.42 52.8883 29.42ZM63.7722 29V14.21H66.8622V29H63.7722ZM65.3322 12.2C64.7322 12.2 64.2222 12.01 63.8022 11.63C63.4022 11.23 63.2022 10.72 63.2022 10.1C63.2022 9.48 63.4022 8.98 63.8022 8.6C64.2222 8.2 64.7322 8 65.3322 8C65.9522 8 66.4622 8.2 66.8622 8.6C67.2622 8.98 67.4622 9.48 67.4622 10.1C67.4622 10.72 67.2622 11.23 66.8622 11.63C66.4622 12.01 65.9522 12.2 65.3322 12.2ZM76.038 29.42C74.978 29.42 74.028 29.24 73.188 28.88C72.368 28.52 71.708 27.99 71.208 27.29C70.728 26.59 70.488 25.74 70.488 24.74C70.488 23.72 70.728 22.88 71.208 22.22C71.708 21.54 72.378 21.03 73.218 20.69C74.078 20.35 75.048 20.18 76.128 20.18H80.628V19.22C80.628 18.36 80.368 17.67 79.848 17.15C79.328 16.63 78.528 16.37 77.448 16.37C76.388 16.37 75.578 16.62 75.018 17.12C74.458 17.62 74.088 18.27 73.908 19.07L71.028 18.14C71.268 17.34 71.648 16.62 72.168 15.98C72.708 15.32 73.418 14.79 74.298 14.39C75.178 13.99 76.238 13.79 77.478 13.79C79.398 13.79 80.908 14.28 82.008 15.26C83.108 16.24 83.658 17.63 83.658 19.43V25.52C83.658 26.12 83.938 26.42 84.498 26.42H85.758V29H83.448C82.748 29 82.178 28.82 81.738 28.46C81.298 28.1 81.078 27.61 81.078 26.99V26.9H80.628C80.468 27.2 80.228 27.55 79.908 27.95C79.588 28.35 79.118 28.7 78.498 29C77.878 29.28 77.058 29.42 76.038 29.42ZM76.488 26.87C77.728 26.87 78.728 26.52 79.488 25.82C80.248 25.1 80.628 24.12 80.628 22.88V22.58H76.308C75.488 22.58 74.828 22.76 74.328 23.12C73.828 23.46 73.578 23.97 73.578 24.65C73.578 25.33 73.838 25.87 74.358 26.27C74.878 26.67 75.588 26.87 76.488 26.87ZM88.7624 29V8H91.8524V29H88.7624ZM103.995 29V8H110.085L114.675 26.84H115.155L119.745 8H125.835V29H122.685V10.28H122.205L117.645 29H112.185L107.625 10.28H107.145V29H103.995ZM137.085 29.42C135.585 29.42 134.275 29.11 133.155 28.49C132.035 27.85 131.155 26.96 130.515 25.82C129.895 24.66 129.585 23.32 129.585 21.8V21.44C129.585 19.9 129.895 18.56 130.515 17.42C131.135 16.26 131.995 15.37 133.095 14.75C134.215 14.11 135.505 13.79 136.965 13.79C138.385 13.79 139.625 14.11 140.685 14.75C141.765 15.37 142.605 16.24 143.205 17.36C143.805 18.48 144.105 19.79 144.105 21.29V22.46H132.735C132.775 23.76 133.205 24.8 134.025 25.58C134.865 26.34 135.905 26.72 137.145 26.72C138.305 26.72 139.175 26.46 139.755 25.94C140.355 25.42 140.815 24.82 141.135 24.14L143.685 25.46C143.405 26.02 142.995 26.61 142.455 27.23C141.935 27.85 141.245 28.37 140.385 28.79C139.525 29.21 138.425 29.42 137.085 29.42ZM132.765 20.09H140.955C140.875 18.97 140.475 18.1 139.755 17.48C139.035 16.84 138.095 16.52 136.935 16.52C135.775 16.52 134.825 16.84 134.085 17.48C133.365 18.1 132.925 18.97 132.765 20.09ZM153.945 29.42C152.725 29.42 151.595 29.12 150.555 28.52C149.515 27.92 148.675 27.06 148.035 25.94C147.415 24.8 147.105 23.43 147.105 21.83V21.38C147.105 19.8 147.415 18.44 148.035 17.3C148.655 16.16 149.485 15.29 150.525 14.69C151.565 14.09 152.705 13.79 153.945 13.79C154.905 13.79 155.705 13.91 156.345 14.15C157.005 14.39 157.545 14.7 157.965 15.08C158.385 15.44 158.705 15.82 158.925 16.22H159.405V8H162.495V29H159.465V26.9H158.985C158.605 27.54 158.025 28.12 157.245 28.64C156.485 29.16 155.385 29.42 153.945 29.42ZM154.815 26.72C156.155 26.72 157.255 26.29 158.115 25.43C158.995 24.57 159.435 23.34 159.435 21.74V21.47C159.435 19.89 159.005 18.67 158.145 17.81C157.285 16.95 156.175 16.52 154.815 16.52C153.495 16.52 152.395 16.95 151.515 17.81C150.655 18.67 150.225 19.89 150.225 21.47V21.74C150.225 23.34 150.655 24.57 151.515 25.43C152.395 26.29 153.495 26.72 154.815 26.72ZM167.044 29V14.21H170.134V29H167.044ZM168.604 12.2C168.004 12.2 167.494 12.01 167.074 11.63C166.674 11.23 166.474 10.72 166.474 10.1C166.474 9.48 166.674 8.98 167.074 8.6C167.494 8.2 168.004 8 168.604 8C169.224 8 169.734 8.2 170.134 8.6C170.534 8.98 170.734 9.48 170.734 10.1C170.734 10.72 170.534 11.23 170.134 11.63C169.734 12.01 169.224 12.2 168.604 12.2ZM179.309 29.42C178.249 29.42 177.299 29.24 176.459 28.88C175.639 28.52 174.979 27.99 174.479 27.29C173.999 26.59 173.759 25.74 173.759 24.74C173.759 23.72 173.999 22.88 174.479 22.22C174.979 21.54 175.649 21.03 176.489 20.69C177.349 20.35 178.319 20.18 179.399 20.18H183.899V19.22C183.899 18.36 183.639 17.67 183.119 17.15C182.599 16.63 181.799 16.37 180.719 16.37C179.659 16.37 178.849 16.62 178.289 17.12C177.729 17.62 177.359 18.27 177.179 19.07L174.299 18.14C174.539 17.34 174.919 16.62 175.439 15.98C175.979 15.32 176.689 14.79 177.569 14.39C178.449 13.99 179.509 13.79 180.749 13.79C182.669 13.79 184.179 14.28 185.279 15.26C186.379 16.24 186.929 17.63 186.929 19.43V25.52C186.929 26.12 187.209 26.42 187.769 26.42H189.029V29H186.719C186.019 29 185.449 28.82 185.009 28.46C184.569 28.1 184.349 27.61 184.349 26.99V26.9H183.899C183.739 27.2 183.499 27.55 183.179 27.95C182.859 28.35 182.389 28.7 181.769 29C181.149 29.28 180.329 29.42 179.309 29.42ZM179.759 26.87C180.999 26.87 181.999 26.52 182.759 25.82C183.519 25.1 183.899 24.12 183.899 22.88V22.58H179.579C178.759 22.58 178.099 22.76 177.599 23.12C177.099 23.46 176.849 23.97 176.849 24.65C176.849 25.33 177.109 25.87 177.629 26.27C178.149 26.67 178.859 26.87 179.759 26.87Z" fill="black"/>
<rect y="38" width="161" height="38" rx="7" fill="white"/>
<path d="M9.19 67V46H15.28L19.87 64.84H20.35L24.94 46H31.03V67H27.88V48.28H27.4L22.84 67H17.38L12.82 48.28H12.34V67H9.19ZM40.0907 67.42C39.0307 67.42 38.0807 67.24 37.2407 66.88C36.4207 66.52 35.7607 65.99 35.2607 65.29C34.7807 64.59 34.5407 63.74 34.5407 62.74C34.5407 61.72 34.7807 60.88 35.2607 60.22C35.7607 59.54 36.4307 59.03 37.2707 58.69C38.1307 58.35 39.1007 58.18 40.1807 58.18H44.6807V57.22C44.6807 56.36 44.4207 55.67 43.9007 55.15C43.3807 54.63 42.5807 54.37 41.5007 54.37C40.4407 54.37 39.6307 54.62 39.0707 55.12C38.5107 55.62 38.1407 56.27 37.9607 57.07L35.0807 56.14C35.3207 55.34 35.7007 54.62 36.2207 53.98C36.7607 53.32 37.4707 52.79 38.3507 52.39C39.2307 51.99 40.2907 51.79 41.5307 51.79C43.4507 51.79 44.9607 52.28 46.0607 53.26C47.1607 54.24 47.7107 55.63 47.7107 57.43V63.52C47.7107 64.12 47.9907 64.42 48.5507 64.42H49.8107V67H47.5007C46.8007 67 46.2307 66.82 45.7907 66.46C45.3507 66.1 45.1307 65.61 45.1307 64.99V64.9H44.6807C44.5207 65.2 44.2807 65.55 43.9607 65.95C43.6407 66.35 43.1707 66.7 42.5507 67C41.9307 67.28 41.1107 67.42 40.0907 67.42ZM40.5407 64.87C41.7807 64.87 42.7807 64.52 43.5407 63.82C44.3007 63.1 44.6807 62.12 44.6807 60.88V60.58H40.3607C39.5407 60.58 38.8807 60.76 38.3807 61.12C37.8807 61.46 37.6307 61.97 37.6307 62.65C37.6307 63.33 37.8907 63.87 38.4107 64.27C38.9307 64.67 39.6407 64.87 40.5407 64.87ZM52.8152 67V52.21H55.8452V53.95H56.3252C56.5652 53.33 56.9452 52.88 57.4652 52.6C58.0052 52.3 58.6652 52.15 59.4452 52.15H61.2152V54.94H59.3252C58.3252 54.94 57.5052 55.22 56.8652 55.78C56.2252 56.32 55.9052 57.16 55.9052 58.3V67H52.8152ZM64.4167 67V46H67.5067V57.97H67.9867L73.8067 52.21H77.9167L70.4467 59.38L78.1567 67H74.0767L67.9867 60.85H67.5067V67H64.4167ZM86.8705 67.42C85.3705 67.42 84.0605 67.11 82.9405 66.49C81.8205 65.85 80.9405 64.96 80.3005 63.82C79.6805 62.66 79.3705 61.32 79.3705 59.8V59.44C79.3705 57.9 79.6805 56.56 80.3005 55.42C80.9205 54.26 81.7805 53.37 82.8805 52.75C84.0005 52.11 85.2905 51.79 86.7505 51.79C88.1705 51.79 89.4105 52.11 90.4705 52.75C91.5505 53.37 92.3905 54.24 92.9905 55.36C93.5905 56.48 93.8905 57.79 93.8905 59.29V60.46H82.5205C82.5605 61.76 82.9905 62.8 83.8105 63.58C84.6505 64.34 85.6905 64.72 86.9305 64.72C88.0905 64.72 88.9605 64.46 89.5405 63.94C90.1405 63.42 90.6005 62.82 90.9205 62.14L93.4705 63.46C93.1905 64.02 92.7805 64.61 92.2405 65.23C91.7205 65.85 91.0305 66.37 90.1705 66.79C89.3105 67.21 88.2105 67.42 86.8705 67.42ZM82.5505 58.09H90.7405C90.6605 56.97 90.2605 56.1 89.5405 55.48C88.8205 54.84 87.8805 54.52 86.7205 54.52C85.5605 54.52 84.6105 54.84 83.8705 55.48C83.1505 56.1 82.7105 56.97 82.5505 58.09ZM102.633 67C101.733 67 101.013 66.73 100.473 66.19C99.9527 65.65 99.6927 64.93 99.6927 64.03V54.82H95.6127V52.21H99.6927V47.32H102.783V52.21H107.193V54.82H102.783V63.49C102.783 64.09 103.063 64.39 103.623 64.39H106.713V67H102.633ZM110.823 67V52.21H113.913V67H110.823ZM112.383 50.2C111.783 50.2 111.273 50.01 110.853 49.63C110.453 49.23 110.253 48.72 110.253 48.1C110.253 47.48 110.453 46.98 110.853 46.6C111.273 46.2 111.783 46 112.383 46C113.003 46 113.513 46.2 113.913 46.6C114.313 46.98 114.513 47.48 114.513 48.1C114.513 48.72 114.313 49.23 113.913 49.63C113.513 50.01 113.003 50.2 112.383 50.2ZM118.499 67V52.21H121.529V54.43H122.009C122.289 53.83 122.789 53.27 123.509 52.75C124.229 52.23 125.299 51.97 126.719 51.97C127.839 51.97 128.829 52.22 129.689 52.72C130.569 53.22 131.259 53.93 131.759 54.85C132.259 55.75 132.509 56.84 132.509 58.12V67H129.419V58.36C129.419 57.08 129.099 56.14 128.459 55.54C127.819 54.92 126.939 54.61 125.819 54.61C124.539 54.61 123.509 55.03 122.729 55.87C121.969 56.71 121.589 57.93 121.589 59.53V67H118.499ZM136.236 59.68V59.23C136.236 57.67 136.546 56.34 137.166 55.24C137.806 54.14 138.646 53.29 139.686 52.69C140.726 52.09 141.866 51.79 143.106 51.79C144.546 51.79 145.646 52.06 146.406 52.6C147.186 53.14 147.756 53.72 148.116 54.34H148.596V52.21H151.596V70.03C151.596 70.93 151.326 71.65 150.786 72.19C150.266 72.73 149.546 73 148.626 73H138.666V70.3H147.666C148.246 70.3 148.536 70 148.536 69.4V64.69H148.056C147.836 65.05 147.526 65.42 147.126 65.8C146.726 66.18 146.196 66.49 145.536 66.73C144.896 66.97 144.086 67.09 143.106 67.09C141.866 67.09 140.716 66.8 139.656 66.22C138.616 65.62 137.786 64.77 137.166 63.67C136.546 62.55 136.236 61.22 136.236 59.68ZM143.946 64.39C145.286 64.39 146.386 63.97 147.246 63.13C148.126 62.27 148.566 61.09 148.566 59.59V59.32C148.566 57.78 148.136 56.6 147.276 55.78C146.416 54.94 145.306 54.52 143.946 54.52C142.626 54.52 141.526 54.94 140.646 55.78C139.786 56.6 139.356 57.78 139.356 59.32V59.59C139.356 61.09 139.786 62.27 140.646 63.13C141.526 63.97 142.626 64.39 143.946 64.39Z" fill="black"/>
<circle cx="20.5" cy="189.5" r="20.5" fill="white"/>
<path d="M11.25 193.701C10.5326 194.115 10.2867 195.033 10.701 195.75C11.1152 196.467 12.0326 196.713 12.75 196.299L11.25 193.701ZM30.7694 185.388C30.9838 184.588 30.5089 183.766 29.7087 183.551L16.6687 180.057C15.8685 179.843 15.046 180.318 14.8316 181.118C14.6172 181.918 15.0921 182.74 15.8923 182.955L27.4834 186.061L24.3776 197.652C24.1631 198.452 24.638 199.274 25.4382 199.489C26.2384 199.703 27.0609 199.228 27.2753 198.428L30.7694 185.388ZM12.75 196.299L30.0705 186.299L28.5705 183.701L11.25 193.701L12.75 196.299Z" fill="black"/>
<path d="M57.6 196.5V182.5H59.28V194.98H66.36V196.5H57.6ZM72.9798 196.78C71.9932 196.78 71.1265 196.573 70.3798 196.16C69.6332 195.733 69.0532 195.14 68.6398 194.38C68.2265 193.62 68.0198 192.74 68.0198 191.74V191.5C68.0198 190.487 68.2265 189.6 68.6398 188.84C69.0532 188.08 69.6265 187.493 70.3598 187.08C71.0932 186.653 71.9332 186.44 72.8798 186.44C73.7998 186.44 74.6132 186.64 75.3198 187.04C76.0265 187.427 76.5798 187.987 76.9798 188.72C77.3798 189.453 77.5798 190.313 77.5798 191.3V192.02H69.5998C69.6398 193.073 69.9798 193.9 70.6198 194.5C71.2598 195.087 72.0598 195.38 73.0198 195.38C73.8598 195.38 74.5065 195.187 74.9598 194.8C75.4132 194.413 75.7598 193.953 75.9998 193.42L77.3598 194.08C77.1598 194.493 76.8798 194.907 76.5198 195.32C76.1732 195.733 75.7132 196.08 75.1398 196.36C74.5798 196.64 73.8598 196.78 72.9798 196.78ZM69.6198 190.72H75.9798C75.9265 189.813 75.6132 189.107 75.0398 188.6C74.4798 188.093 73.7598 187.84 72.8798 187.84C71.9865 187.84 71.2532 188.093 70.6798 188.6C70.1065 189.107 69.7532 189.813 69.6198 190.72ZM83.3358 196.78C82.6558 196.78 82.0358 196.66 81.4758 196.42C80.9158 196.18 80.4758 195.833 80.1558 195.38C79.8358 194.927 79.6758 194.373 79.6758 193.72C79.6758 193.053 79.8358 192.507 80.1558 192.08C80.4758 191.64 80.9158 191.313 81.4758 191.1C82.0358 190.873 82.6624 190.76 83.3558 190.76H86.6558V190.04C86.6558 189.347 86.4491 188.8 86.0358 188.4C85.6358 188 85.0358 187.8 84.2358 187.8C83.4491 187.8 82.8358 187.993 82.3958 188.38C81.9558 188.753 81.6558 189.26 81.4958 189.9L80.0158 189.42C80.1758 188.873 80.4291 188.38 80.7758 187.94C81.1224 187.487 81.5824 187.127 82.1558 186.86C82.7424 186.58 83.4424 186.44 84.2558 186.44C85.5091 186.44 86.4824 186.767 87.1758 187.42C87.8691 188.06 88.2158 188.967 88.2158 190.14V194.56C88.2158 194.96 88.4024 195.16 88.7758 195.16H89.6758V196.5H88.2958C87.8558 196.5 87.5024 196.38 87.2358 196.14C86.9691 195.887 86.8358 195.553 86.8358 195.14V195.04H86.5958C86.4491 195.293 86.2491 195.56 85.9958 195.84C85.7558 196.107 85.4224 196.327 84.9958 196.5C84.5691 196.687 84.0158 196.78 83.3358 196.78ZM83.5158 195.42C84.4491 195.42 85.2024 195.147 85.7758 194.6C86.3624 194.04 86.6558 193.26 86.6558 192.26V192.04H83.4158C82.7891 192.04 82.2691 192.18 81.8558 192.46C81.4558 192.727 81.2558 193.133 81.2558 193.68C81.2558 194.227 81.4624 194.653 81.8758 194.96C82.3024 195.267 82.8491 195.42 83.5158 195.42ZM91.8397 196.5V186.72H93.3797V187.92H93.6597C93.833 187.493 94.0997 187.18 94.4597 186.98C94.8197 186.78 95.293 186.68 95.8797 186.68H97.0397V188.12H95.7797C95.073 188.12 94.4997 188.32 94.0597 188.72C93.633 189.107 93.4197 189.713 93.4197 190.54V196.5H91.8397ZM99.3788 196.5V186.72H100.919V188.38H101.199C101.412 187.913 101.772 187.493 102.279 187.12C102.799 186.733 103.559 186.54 104.559 186.54C105.292 186.54 105.945 186.693 106.519 187C107.105 187.307 107.572 187.76 107.919 188.36C108.265 188.96 108.439 189.7 108.439 190.58V196.5H106.859V190.7C106.859 189.727 106.612 189.02 106.119 188.58C105.639 188.14 104.985 187.92 104.159 187.92C103.212 187.92 102.439 188.227 101.839 188.84C101.252 189.453 100.959 190.367 100.959 191.58V196.5H99.3788ZM116.781 196.5V186.72H118.321V187.94H118.601C118.788 187.593 119.094 187.273 119.521 186.98C119.948 186.687 120.548 186.54 121.321 186.54C122.081 186.54 122.694 186.707 123.161 187.04C123.641 187.373 123.988 187.78 124.201 188.26H124.481C124.708 187.78 125.048 187.373 125.501 187.04C125.968 186.707 126.614 186.54 127.441 186.54C128.094 186.54 128.668 186.673 129.161 186.94C129.654 187.207 130.041 187.593 130.321 188.1C130.614 188.593 130.761 189.187 130.761 189.88V196.5H129.181V190.02C129.181 189.367 128.988 188.853 128.601 188.48C128.228 188.093 127.701 187.9 127.021 187.9C126.301 187.9 125.708 188.133 125.241 188.6C124.788 189.067 124.561 189.74 124.561 190.62V196.5H122.981V190.02C122.981 189.367 122.788 188.853 122.401 188.48C122.028 188.093 121.501 187.9 120.821 187.9C120.101 187.9 119.508 188.133 119.041 188.6C118.588 189.067 118.361 189.74 118.361 190.62V196.5H116.781ZM138.508 196.78C137.521 196.78 136.648 196.573 135.888 196.16C135.141 195.747 134.555 195.167 134.128 194.42C133.715 193.66 133.508 192.767 133.508 191.74V191.48C133.508 190.467 133.715 189.58 134.128 188.82C134.555 188.06 135.141 187.473 135.888 187.06C136.648 186.647 137.521 186.44 138.508 186.44C139.495 186.44 140.361 186.647 141.108 187.06C141.868 187.473 142.455 188.06 142.868 188.82C143.295 189.58 143.508 190.467 143.508 191.48V191.74C143.508 192.767 143.295 193.66 142.868 194.42C142.455 195.167 141.868 195.747 141.108 196.16C140.361 196.573 139.495 196.78 138.508 196.78ZM138.508 195.36C139.548 195.36 140.375 195.033 140.988 194.38C141.615 193.713 141.928 192.82 141.928 191.7V191.52C141.928 190.4 141.615 189.513 140.988 188.86C140.375 188.193 139.548 187.86 138.508 187.86C137.481 187.86 136.655 188.193 136.028 188.86C135.401 189.513 135.088 190.4 135.088 191.52V191.7C135.088 192.82 135.401 193.713 136.028 194.38C136.655 195.033 137.481 195.36 138.508 195.36ZM146.351 196.5V186.72H147.891V187.92H148.171C148.345 187.493 148.611 187.18 148.971 186.98C149.331 186.78 149.805 186.68 150.391 186.68H151.551V188.12H150.291C149.585 188.12 149.011 188.32 148.571 188.72C148.145 189.107 147.931 189.713 147.931 190.54V196.5H146.351ZM158.019 196.78C157.032 196.78 156.166 196.573 155.419 196.16C154.672 195.733 154.092 195.14 153.679 194.38C153.266 193.62 153.059 192.74 153.059 191.74V191.5C153.059 190.487 153.266 189.6 153.679 188.84C154.092 188.08 154.666 187.493 155.399 187.08C156.132 186.653 156.972 186.44 157.919 186.44C158.839 186.44 159.652 186.64 160.359 187.04C161.066 187.427 161.619 187.987 162.019 188.72C162.419 189.453 162.619 190.313 162.619 191.3V192.02H154.639C154.679 193.073 155.019 193.9 155.659 194.5C156.299 195.087 157.099 195.38 158.059 195.38C158.899 195.38 159.546 195.187 159.999 194.8C160.452 194.413 160.799 193.953 161.039 193.42L162.399 194.08C162.199 194.493 161.919 194.907 161.559 195.32C161.212 195.733 160.752 196.08 160.179 196.36C159.619 196.64 158.899 196.78 158.019 196.78ZM154.659 190.72H161.019C160.966 189.813 160.652 189.107 160.079 188.6C159.519 188.093 158.799 187.84 157.919 187.84C157.026 187.84 156.292 188.093 155.719 188.6C155.146 189.107 154.792 189.813 154.659 190.72Z" fill="white"/>
</svg>
