<svg width="1120" height="79" viewBox="0 0 1120 79" fill="none" xmlns="http://www.w3.org/2000/svg">
<line y1="0.5" x2="1120" y2="0.5" stroke="white"/>
<path d="M6.228 71.216C5.196 71.216 4.29 71.018 3.51 70.622C2.742 70.214 2.142 69.602 1.71 68.786C1.29 67.97 1.08 66.938 1.08 65.69V63.71C1.08 62.462 1.29 61.43 1.71 60.614C2.142 59.798 2.742 59.192 3.51 58.796C4.29 58.388 5.196 58.184 6.228 58.184H6.462C7.506 58.184 8.412 58.388 9.18 58.796C9.948 59.192 10.542 59.798 10.962 60.614C11.382 61.43 11.592 62.462 11.592 63.71V65.69C11.592 66.938 11.382 67.97 10.962 68.786C10.542 69.602 9.948 70.214 9.18 70.622C8.412 71.018 7.506 71.216 6.462 71.216H6.228ZM6.264 70.046H6.444C7.668 70.046 8.622 69.698 9.306 69.002C10.002 68.294 10.35 67.19 10.35 65.69V63.71C10.35 62.21 10.002 61.112 9.306 60.416C8.622 59.708 7.668 59.354 6.444 59.354H6.264C5.028 59.354 4.062 59.708 3.366 60.416C2.682 61.112 2.34 62.21 2.34 63.71V65.69C2.34 67.19 2.682 68.294 3.366 69.002C4.062 69.698 5.028 70.046 6.264 70.046ZM6.444 68.606C5.628 68.606 4.98 68.366 4.5 67.886C4.032 67.406 3.798 66.698 3.798 65.762V63.674C3.798 62.714 4.038 61.988 4.518 61.496C5.01 61.004 5.64 60.758 6.408 60.758C7.236 60.758 7.866 61.004 8.298 61.496C8.73 61.976 8.946 62.6 8.946 63.368V63.71H7.704V63.26C7.704 62.876 7.608 62.552 7.416 62.288C7.224 62.024 6.894 61.892 6.426 61.892C6.03 61.892 5.7 62.024 5.436 62.288C5.172 62.54 5.04 62.912 5.04 63.404V66.032C5.04 66.5 5.178 66.854 5.454 67.094C5.73 67.334 6.054 67.454 6.426 67.454C6.834 67.454 7.146 67.34 7.362 67.112C7.59 66.884 7.704 66.53 7.704 66.05V65.672H8.946V66.014C8.946 66.782 8.736 67.406 8.316 67.886C7.896 68.366 7.272 68.606 6.444 68.606ZM18.2509 71V69.686C18.2509 68.786 18.4069 68.066 18.7189 67.526C19.0429 66.986 19.4869 66.554 20.0509 66.23C20.6269 65.894 21.3109 65.606 22.1029 65.366L23.0929 65.06C23.6329 64.892 24.1069 64.688 24.5149 64.448C24.9229 64.196 25.2409 63.884 25.4689 63.512C25.6969 63.128 25.8109 62.66 25.8109 62.108V62.036C25.8109 61.244 25.5349 60.62 24.9829 60.164C24.4309 59.696 23.7229 59.462 22.8589 59.462C21.9469 59.462 21.2029 59.708 20.6269 60.2C20.0509 60.68 19.7629 61.412 19.7629 62.396V62.648H18.3229V62.414C18.3229 61.502 18.5209 60.728 18.9169 60.092C19.3129 59.456 19.8529 58.976 20.5369 58.652C21.2209 58.316 21.9949 58.148 22.8589 58.148C23.7229 58.148 24.4849 58.31 25.1449 58.634C25.8169 58.958 26.3389 59.408 26.7109 59.984C27.0829 60.56 27.2689 61.232 27.2689 62V62.162C27.2689 62.978 27.1069 63.656 26.7829 64.196C26.4589 64.724 26.0089 65.156 25.4329 65.492C24.8689 65.828 24.2029 66.116 23.4349 66.356L22.4629 66.662C21.8509 66.854 21.3409 67.058 20.9329 67.274C20.5369 67.478 20.2369 67.742 20.0329 68.066C19.8289 68.39 19.7269 68.828 19.7269 69.38V69.686H27.1609V71H18.2509ZM33.9026 71.252C32.4746 71.252 31.3346 70.832 30.4826 69.992C29.6426 69.14 29.2226 67.868 29.2226 66.176V63.224C29.2226 61.544 29.6426 60.278 30.4826 59.426C31.3346 58.574 32.4746 58.148 33.9026 58.148C35.3426 58.148 36.4826 58.574 37.3226 59.426C38.1746 60.278 38.6006 61.544 38.6006 63.224V66.176C38.6006 67.868 38.1746 69.14 37.3226 69.992C36.4826 70.832 35.3426 71.252 33.9026 71.252ZM33.9026 69.938C34.9826 69.938 35.7926 69.614 36.3326 68.966C36.8726 68.318 37.1426 67.412 37.1426 66.248V63.134C37.1426 61.97 36.8666 61.07 36.3146 60.434C35.7626 59.786 34.9586 59.462 33.9026 59.462C32.8466 59.462 32.0426 59.786 31.4906 60.434C30.9506 61.082 30.6806 61.982 30.6806 63.134V66.248C30.6806 67.424 30.9506 68.336 31.4906 68.984C32.0306 69.62 32.8346 69.938 33.9026 69.938ZM40.6278 71V69.686C40.6278 68.786 40.7838 68.066 41.0958 67.526C41.4198 66.986 41.8638 66.554 42.4278 66.23C43.0038 65.894 43.6878 65.606 44.4798 65.366L45.4698 65.06C46.0098 64.892 46.4838 64.688 46.8918 64.448C47.2998 64.196 47.6178 63.884 47.8458 63.512C48.0738 63.128 48.1878 62.66 48.1878 62.108V62.036C48.1878 61.244 47.9118 60.62 47.3598 60.164C46.8078 59.696 46.0998 59.462 45.2358 59.462C44.3238 59.462 43.5798 59.708 43.0038 60.2C42.4278 60.68 42.1398 61.412 42.1398 62.396V62.648H40.6998V62.414C40.6998 61.502 40.8978 60.728 41.2938 60.092C41.6898 59.456 42.2298 58.976 42.9138 58.652C43.5978 58.316 44.3718 58.148 45.2358 58.148C46.0998 58.148 46.8618 58.31 47.5218 58.634C48.1938 58.958 48.7158 59.408 49.0878 59.984C49.4598 60.56 49.6458 61.232 49.6458 62V62.162C49.6458 62.978 49.4838 63.656 49.1598 64.196C48.8358 64.724 48.3858 65.156 47.8098 65.492C47.2458 65.828 46.5798 66.116 45.8118 66.356L44.8398 66.662C44.2278 66.854 43.7178 67.058 43.3098 67.274C42.9138 67.478 42.6138 67.742 42.4098 68.066C42.2058 68.39 42.1038 68.828 42.1038 69.38V69.686H49.5378V71H40.6278ZM55.9032 71.252C55.0152 71.252 54.2172 71.084 53.5092 70.748C52.8132 70.412 52.2612 69.926 51.8532 69.29C51.4572 68.654 51.2592 67.886 51.2592 66.986V66.644H52.7172V66.968C52.7172 67.892 53.0112 68.618 53.5992 69.146C54.1872 69.674 54.9552 69.938 55.9032 69.938C56.8632 69.938 57.6072 69.692 58.1352 69.2C58.6752 68.696 58.9452 68.066 58.9452 67.31V67.166C58.9452 66.614 58.8132 66.17 58.5492 65.834C58.2852 65.486 57.9252 65.234 57.4692 65.078C57.0252 64.91 56.5332 64.826 55.9932 64.826H53.9412V63.008L58.7472 59.93V59.714H51.5652V58.4H60.2952V60.434L55.5972 63.458V63.674H56.4972C57.2052 63.674 57.8532 63.806 58.4412 64.07C59.0412 64.322 59.5152 64.706 59.8632 65.222C60.2232 65.726 60.4032 66.362 60.4032 67.13V67.328C60.4032 68.12 60.2172 68.81 59.8452 69.398C59.4732 69.986 58.9512 70.442 58.2792 70.766C57.6072 71.09 56.8152 71.252 55.9032 71.252ZM67.3755 71V58.4H72.1995C72.9555 58.4 73.6275 58.55 74.2155 58.85C74.8155 59.138 75.2895 59.552 75.6375 60.092C75.9855 60.632 76.1595 61.286 76.1595 62.054V62.288C76.1595 63.044 75.9795 63.698 75.6195 64.25C75.2715 64.79 74.7975 65.204 74.1975 65.492C73.5975 65.78 72.9315 65.924 72.1995 65.924H68.8875V71H67.3755ZM68.8875 64.556H72.0375C72.8415 64.556 73.4775 64.358 73.9455 63.962C74.4135 63.554 74.6475 62.984 74.6475 62.252V62.072C74.6475 61.34 74.4135 60.776 73.9455 60.38C73.4895 59.972 72.8535 59.768 72.0375 59.768H68.8875V64.556ZM82.0268 71.252C81.1388 71.252 80.3528 71.066 79.6688 70.694C78.9968 70.322 78.4688 69.8 78.0848 69.128C77.7128 68.444 77.5268 67.64 77.5268 66.716V66.482C77.5268 65.57 77.7128 64.772 78.0848 64.088C78.4688 63.404 78.9968 62.876 79.6688 62.504C80.3528 62.132 81.1388 61.946 82.0268 61.946C82.9148 61.946 83.6948 62.132 84.3668 62.504C85.0508 62.876 85.5788 63.404 85.9508 64.088C86.3348 64.772 86.5268 65.57 86.5268 66.482V66.716C86.5268 67.64 86.3348 68.444 85.9508 69.128C85.5788 69.8 85.0508 70.322 84.3668 70.694C83.6948 71.066 82.9148 71.252 82.0268 71.252ZM82.0268 69.974C82.9628 69.974 83.7068 69.68 84.2588 69.092C84.8228 68.492 85.1048 67.688 85.1048 66.68V66.518C85.1048 65.51 84.8228 64.712 84.2588 64.124C83.7068 63.524 82.9628 63.224 82.0268 63.224C81.1028 63.224 80.3588 63.524 79.7948 64.124C79.2308 64.712 78.9488 65.51 78.9488 66.518V66.68C78.9488 67.688 79.2308 68.492 79.7948 69.092C80.3588 69.68 81.1028 69.974 82.0268 69.974ZM92.6318 71.252C91.5398 71.252 90.6158 71 89.8598 70.496C89.1158 69.992 88.6658 69.194 88.5098 68.102L89.8598 67.796C89.9558 68.372 90.1358 68.828 90.3998 69.164C90.6638 69.488 90.9878 69.722 91.3718 69.866C91.7678 69.998 92.1878 70.064 92.6318 70.064C93.2918 70.064 93.8138 69.932 94.1978 69.668C94.5818 69.404 94.7738 69.05 94.7738 68.606C94.7738 68.15 94.5878 67.832 94.2158 67.652C93.8558 67.46 93.3578 67.304 92.7218 67.184L91.9838 67.058C91.4198 66.962 90.9038 66.812 90.4358 66.608C89.9678 66.404 89.5958 66.128 89.3198 65.78C89.0438 65.432 88.9058 64.994 88.9058 64.466C88.9058 63.674 89.2118 63.056 89.8238 62.612C90.4358 62.168 91.2458 61.946 92.2538 61.946C93.2498 61.946 94.0538 62.174 94.6658 62.63C95.2898 63.074 95.6918 63.704 95.8718 64.52L94.5398 64.862C94.4318 64.226 94.1738 63.782 93.7658 63.53C93.3578 63.266 92.8538 63.134 92.2538 63.134C91.6538 63.134 91.1798 63.248 90.8318 63.476C90.4838 63.692 90.3098 64.016 90.3098 64.448C90.3098 64.868 90.4718 65.18 90.7958 65.384C91.1318 65.576 91.5758 65.72 92.1278 65.816L92.8658 65.942C93.4898 66.05 94.0478 66.2 94.5398 66.392C95.0438 66.572 95.4398 66.836 95.7278 67.184C96.0278 67.532 96.1778 67.988 96.1778 68.552C96.1778 69.416 95.8538 70.082 95.2058 70.55C94.5698 71.018 93.7118 71.252 92.6318 71.252ZM98.578 71V62.198H100V71H98.578ZM99.298 60.83C98.986 60.83 98.722 60.728 98.506 60.524C98.302 60.32 98.2 60.062 98.2 59.75C98.2 59.426 98.302 59.162 98.506 58.958C98.722 58.754 98.986 58.652 99.298 58.652C99.61 58.652 99.868 58.754 100.072 58.958C100.276 59.162 100.378 59.426 100.378 59.75C100.378 60.062 100.276 60.32 100.072 60.524C99.868 60.728 99.61 60.83 99.298 60.83ZM106.23 71C105.726 71 105.336 70.862 105.06 70.586C104.796 70.31 104.664 69.932 104.664 69.452V63.44H102.018V62.198H104.664V59.066H106.086V62.198H108.966V63.44H106.086V69.236C106.086 69.596 106.26 69.776 106.608 69.776H108.57V71H106.23ZM111.269 71V62.198H112.691V71H111.269ZM111.989 60.83C111.677 60.83 111.413 60.728 111.197 60.524C110.993 60.32 110.891 60.062 110.891 59.75C110.891 59.426 110.993 59.162 111.197 58.958C111.413 58.754 111.677 58.652 111.989 58.652C112.301 58.652 112.559 58.754 112.763 58.958C112.967 59.162 113.069 59.426 113.069 59.75C113.069 60.062 112.967 60.32 112.763 60.524C112.559 60.728 112.301 60.83 111.989 60.83ZM117.914 71L114.764 62.198H116.276L118.922 69.938H119.174L121.82 62.198H123.332L120.182 71H117.914ZM128.751 71.162C128.115 71.162 127.527 71.024 126.987 70.748C126.459 70.472 126.039 70.064 125.727 69.524C125.427 68.972 125.277 68.306 125.277 67.526V62.198H126.699V67.418C126.699 68.294 126.915 68.93 127.347 69.326C127.791 69.722 128.385 69.92 129.129 69.92C129.969 69.92 130.659 69.644 131.199 69.092C131.739 68.54 132.009 67.718 132.009 66.626V62.198H133.431V71H132.045V69.506H131.793C131.601 69.926 131.271 70.31 130.803 70.658C130.335 70.994 129.651 71.162 128.751 71.162ZM139.952 71.252C138.86 71.252 137.936 71 137.18 70.496C136.436 69.992 135.986 69.194 135.83 68.102L137.18 67.796C137.276 68.372 137.456 68.828 137.72 69.164C137.984 69.488 138.308 69.722 138.692 69.866C139.088 69.998 139.508 70.064 139.952 70.064C140.612 70.064 141.134 69.932 141.518 69.668C141.902 69.404 142.094 69.05 142.094 68.606C142.094 68.15 141.908 67.832 141.536 67.652C141.176 67.46 140.678 67.304 140.042 67.184L139.304 67.058C138.74 66.962 138.224 66.812 137.756 66.608C137.288 66.404 136.916 66.128 136.64 65.78C136.364 65.432 136.226 64.994 136.226 64.466C136.226 63.674 136.532 63.056 137.144 62.612C137.756 62.168 138.566 61.946 139.574 61.946C140.57 61.946 141.374 62.174 141.986 62.63C142.61 63.074 143.012 63.704 143.192 64.52L141.86 64.862C141.752 64.226 141.494 63.782 141.086 63.53C140.678 63.266 140.174 63.134 139.574 63.134C138.974 63.134 138.5 63.248 138.152 63.476C137.804 63.692 137.63 64.016 137.63 64.448C137.63 64.868 137.792 65.18 138.116 65.384C138.452 65.576 138.896 65.72 139.448 65.816L140.186 65.942C140.81 66.05 141.368 66.2 141.86 66.392C142.364 66.572 142.76 66.836 143.048 67.184C143.348 67.532 143.498 67.988 143.498 68.552C143.498 69.416 143.174 70.082 142.526 70.55C141.89 71.018 141.032 71.252 139.952 71.252ZM146.672 71.252C146.324 71.252 146.03 71.138 145.79 70.91C145.562 70.682 145.448 70.388 145.448 70.028C145.448 69.668 145.562 69.374 145.79 69.146C146.03 68.918 146.324 68.804 146.672 68.804C147.032 68.804 147.326 68.918 147.554 69.146C147.782 69.374 147.896 69.668 147.896 70.028C147.896 70.388 147.782 70.682 147.554 70.91C147.326 71.138 147.032 71.252 146.672 71.252ZM153.204 71L157.092 58.4H159.756L163.644 71H162.078L161.106 67.814H155.742L154.77 71H153.204ZM156.12 66.446H160.71L158.55 59.318H158.298L156.12 66.446ZM165.586 71V58.4H167.008V71H165.586ZM169.998 71V58.4H171.42V71H169.998ZM178.979 71V58.4H184.073C184.853 58.4 185.537 58.538 186.125 58.814C186.725 59.078 187.193 59.462 187.529 59.966C187.865 60.458 188.033 61.052 188.033 61.748V61.946C188.033 62.774 187.835 63.428 187.439 63.908C187.043 64.388 186.575 64.712 186.035 64.88V65.132C186.467 65.144 186.821 65.288 187.097 65.564C187.385 65.828 187.529 66.23 187.529 66.77V71H186.035V66.95C186.035 66.59 185.933 66.314 185.729 66.122C185.537 65.93 185.243 65.834 184.847 65.834H180.491V71H178.979ZM180.491 64.466H183.929C184.757 64.466 185.393 64.268 185.837 63.872C186.293 63.464 186.521 62.9 186.521 62.18V62.054C186.521 61.334 186.299 60.776 185.855 60.38C185.411 59.972 184.769 59.768 183.929 59.768H180.491V64.466ZM190.389 71V62.198H191.811V71H190.389ZM191.109 60.83C190.797 60.83 190.533 60.728 190.317 60.524C190.113 60.32 190.011 60.062 190.011 59.75C190.011 59.426 190.113 59.162 190.317 58.958C190.533 58.754 190.797 58.652 191.109 58.652C191.421 58.652 191.679 58.754 191.883 58.958C192.087 59.162 192.189 59.426 192.189 59.75C192.189 60.062 192.087 60.32 191.883 60.524C191.679 60.728 191.421 60.83 191.109 60.83ZM194.369 66.644V66.392C194.369 65.468 194.555 64.676 194.927 64.016C195.299 63.356 195.803 62.846 196.439 62.486C197.075 62.126 197.771 61.946 198.527 61.946C199.451 61.946 200.159 62.126 200.651 62.486C201.155 62.834 201.527 63.224 201.767 63.656H202.019V62.198H203.369V73.052C203.369 73.532 203.237 73.91 202.973 74.186C202.709 74.462 202.325 74.6 201.821 74.6H195.845V73.34H201.443C201.803 73.34 201.983 73.16 201.983 72.8V69.452H201.731C201.587 69.716 201.383 69.974 201.119 70.226C200.855 70.478 200.513 70.688 200.093 70.856C199.673 71.012 199.151 71.09 198.527 71.09C197.771 71.09 197.075 70.91 196.439 70.55C195.803 70.19 195.299 69.68 194.927 69.02C194.555 68.348 194.369 67.556 194.369 66.644ZM198.905 69.83C199.817 69.83 200.555 69.542 201.119 68.966C201.695 68.39 201.983 67.598 201.983 66.59V66.446C201.983 65.426 201.695 64.634 201.119 64.07C200.555 63.494 199.817 63.206 198.905 63.206C198.005 63.206 197.261 63.494 196.673 64.07C196.097 64.634 195.809 65.426 195.809 66.446V66.59C195.809 67.598 196.097 68.39 196.673 68.966C197.261 69.542 198.005 69.83 198.905 69.83ZM206.349 71V58.4H207.771V63.602H208.023C208.143 63.338 208.323 63.092 208.563 62.864C208.815 62.624 209.133 62.426 209.517 62.27C209.913 62.114 210.411 62.036 211.011 62.036C211.671 62.036 212.259 62.18 212.775 62.468C213.303 62.744 213.723 63.152 214.035 63.692C214.347 64.22 214.503 64.88 214.503 65.672V71H213.081V65.78C213.081 64.904 212.859 64.268 212.415 63.872C211.983 63.476 211.395 63.278 210.651 63.278C209.799 63.278 209.103 63.554 208.563 64.106C208.035 64.658 207.771 65.48 207.771 66.572V71H206.349ZM220.382 71C219.878 71 219.488 70.862 219.212 70.586C218.948 70.31 218.816 69.932 218.816 69.452V63.44H216.17V62.198H218.816V59.066H220.238V62.198H223.118V63.44H220.238V69.236C220.238 69.596 220.412 69.776 220.76 69.776H222.722V71H220.382ZM228.968 71.252C227.876 71.252 226.952 71 226.196 70.496C225.452 69.992 225.002 69.194 224.846 68.102L226.196 67.796C226.292 68.372 226.472 68.828 226.736 69.164C227 69.488 227.324 69.722 227.708 69.866C228.104 69.998 228.524 70.064 228.968 70.064C229.628 70.064 230.15 69.932 230.534 69.668C230.918 69.404 231.11 69.05 231.11 68.606C231.11 68.15 230.924 67.832 230.552 67.652C230.192 67.46 229.694 67.304 229.058 67.184L228.32 67.058C227.756 66.962 227.24 66.812 226.772 66.608C226.304 66.404 225.932 66.128 225.656 65.78C225.38 65.432 225.242 64.994 225.242 64.466C225.242 63.674 225.548 63.056 226.16 62.612C226.772 62.168 227.582 61.946 228.59 61.946C229.586 61.946 230.39 62.174 231.002 62.63C231.626 63.074 232.028 63.704 232.208 64.52L230.876 64.862C230.768 64.226 230.51 63.782 230.102 63.53C229.694 63.266 229.19 63.134 228.59 63.134C227.99 63.134 227.516 63.248 227.168 63.476C226.82 63.692 226.646 64.016 226.646 64.448C226.646 64.868 226.808 65.18 227.132 65.384C227.468 65.576 227.912 65.72 228.464 65.816L229.202 65.942C229.826 66.05 230.384 66.2 230.876 66.392C231.38 66.572 231.776 66.836 232.064 67.184C232.364 67.532 232.514 67.988 232.514 68.552C232.514 69.416 232.19 70.082 231.542 70.55C230.906 71.018 230.048 71.252 228.968 71.252ZM239.483 71V58.4H244.577C245.357 58.4 246.041 58.538 246.629 58.814C247.229 59.078 247.697 59.462 248.033 59.966C248.369 60.458 248.537 61.052 248.537 61.748V61.946C248.537 62.774 248.339 63.428 247.943 63.908C247.547 64.388 247.079 64.712 246.539 64.88V65.132C246.971 65.144 247.325 65.288 247.601 65.564C247.889 65.828 248.033 66.23 248.033 66.77V71H246.539V66.95C246.539 66.59 246.437 66.314 246.233 66.122C246.041 65.93 245.747 65.834 245.351 65.834H240.995V71H239.483ZM240.995 64.466H244.433C245.261 64.466 245.897 64.268 246.341 63.872C246.797 63.464 247.025 62.9 247.025 62.18V62.054C247.025 61.334 246.803 60.776 246.359 60.38C245.915 59.972 245.273 59.768 244.433 59.768H240.995V64.466ZM254.924 71.252C254.036 71.252 253.256 71.066 252.584 70.694C251.912 70.31 251.39 69.776 251.018 69.092C250.646 68.408 250.46 67.616 250.46 66.716V66.5C250.46 65.588 250.646 64.79 251.018 64.106C251.39 63.422 251.906 62.894 252.566 62.522C253.226 62.138 253.982 61.946 254.834 61.946C255.662 61.946 256.394 62.126 257.03 62.486C257.666 62.834 258.164 63.338 258.524 63.998C258.884 64.658 259.064 65.432 259.064 66.32V66.968H251.882C251.918 67.916 252.224 68.66 252.8 69.2C253.376 69.728 254.096 69.992 254.96 69.992C255.716 69.992 256.298 69.818 256.706 69.47C257.114 69.122 257.426 68.708 257.642 68.228L258.866 68.822C258.686 69.194 258.434 69.566 258.11 69.938C257.798 70.31 257.384 70.622 256.868 70.874C256.364 71.126 255.716 71.252 254.924 71.252ZM251.9 65.798H257.624C257.576 64.982 257.294 64.346 256.778 63.89C256.274 63.434 255.626 63.206 254.834 63.206C254.03 63.206 253.37 63.434 252.854 63.89C252.338 64.346 252.02 64.982 251.9 65.798ZM265.091 71.252C263.999 71.252 263.075 71 262.319 70.496C261.575 69.992 261.125 69.194 260.969 68.102L262.319 67.796C262.415 68.372 262.595 68.828 262.859 69.164C263.123 69.488 263.447 69.722 263.831 69.866C264.227 69.998 264.647 70.064 265.091 70.064C265.751 70.064 266.273 69.932 266.657 69.668C267.041 69.404 267.233 69.05 267.233 68.606C267.233 68.15 267.047 67.832 266.675 67.652C266.315 67.46 265.817 67.304 265.181 67.184L264.443 67.058C263.879 66.962 263.363 66.812 262.895 66.608C262.427 66.404 262.055 66.128 261.779 65.78C261.503 65.432 261.365 64.994 261.365 64.466C261.365 63.674 261.671 63.056 262.283 62.612C262.895 62.168 263.705 61.946 264.713 61.946C265.709 61.946 266.513 62.174 267.125 62.63C267.749 63.074 268.151 63.704 268.331 64.52L266.999 64.862C266.891 64.226 266.633 63.782 266.225 63.53C265.817 63.266 265.313 63.134 264.713 63.134C264.113 63.134 263.639 63.248 263.291 63.476C262.943 63.692 262.769 64.016 262.769 64.448C262.769 64.868 262.931 65.18 263.255 65.384C263.591 65.576 264.035 65.72 264.587 65.816L265.325 65.942C265.949 66.05 266.507 66.2 266.999 66.392C267.503 66.572 267.899 66.836 268.187 67.184C268.487 67.532 268.637 67.988 268.637 68.552C268.637 69.416 268.313 70.082 267.665 70.55C267.029 71.018 266.171 71.252 265.091 71.252ZM275.069 71.252C274.181 71.252 273.401 71.066 272.729 70.694C272.057 70.31 271.535 69.776 271.163 69.092C270.791 68.408 270.605 67.616 270.605 66.716V66.5C270.605 65.588 270.791 64.79 271.163 64.106C271.535 63.422 272.051 62.894 272.711 62.522C273.371 62.138 274.127 61.946 274.979 61.946C275.807 61.946 276.539 62.126 277.175 62.486C277.811 62.834 278.309 63.338 278.669 63.998C279.029 64.658 279.209 65.432 279.209 66.32V66.968H272.027C272.063 67.916 272.369 68.66 272.945 69.2C273.521 69.728 274.241 69.992 275.105 69.992C275.861 69.992 276.443 69.818 276.851 69.47C277.259 69.122 277.571 68.708 277.787 68.228L279.011 68.822C278.831 69.194 278.579 69.566 278.255 69.938C277.943 70.31 277.529 70.622 277.013 70.874C276.509 71.126 275.861 71.252 275.069 71.252ZM272.045 65.798H277.769C277.721 64.982 277.439 64.346 276.923 63.89C276.419 63.434 275.771 63.206 274.979 63.206C274.175 63.206 273.515 63.434 272.999 63.89C272.483 64.346 272.165 64.982 272.045 65.798ZM281.689 71V62.198H283.075V63.278H283.327C283.483 62.894 283.723 62.612 284.047 62.432C284.371 62.252 284.797 62.162 285.325 62.162H286.369V63.458H285.235C284.599 63.458 284.083 63.638 283.687 63.998C283.303 64.346 283.111 64.892 283.111 65.636V71H281.689ZM290.706 71L287.556 62.198H289.068L291.714 69.938H291.966L294.612 62.198H296.124L292.974 71H290.706ZM301.858 71.252C300.97 71.252 300.19 71.066 299.518 70.694C298.846 70.31 298.324 69.776 297.952 69.092C297.58 68.408 297.394 67.616 297.394 66.716V66.5C297.394 65.588 297.58 64.79 297.952 64.106C298.324 63.422 298.84 62.894 299.5 62.522C300.16 62.138 300.916 61.946 301.768 61.946C302.596 61.946 303.328 62.126 303.964 62.486C304.6 62.834 305.098 63.338 305.458 63.998C305.818 64.658 305.998 65.432 305.998 66.32V66.968H298.816C298.852 67.916 299.158 68.66 299.734 69.2C300.31 69.728 301.03 69.992 301.894 69.992C302.65 69.992 303.232 69.818 303.64 69.47C304.048 69.122 304.36 68.708 304.576 68.228L305.8 68.822C305.62 69.194 305.368 69.566 305.044 69.938C304.732 70.31 304.318 70.622 303.802 70.874C303.298 71.126 302.65 71.252 301.858 71.252ZM298.834 65.798H304.558C304.51 64.982 304.228 64.346 303.712 63.89C303.208 63.434 302.56 63.206 301.768 63.206C300.964 63.206 300.304 63.434 299.788 63.89C299.272 64.346 298.954 64.982 298.834 65.798ZM312.204 71.252C311.448 71.252 310.752 71.072 310.116 70.712C309.48 70.352 308.976 69.83 308.604 69.146C308.232 68.462 308.046 67.652 308.046 66.716V66.482C308.046 65.546 308.232 64.742 308.604 64.07C308.976 63.386 309.474 62.864 310.098 62.504C310.734 62.132 311.436 61.946 312.204 61.946C312.816 61.946 313.332 62.03 313.752 62.198C314.184 62.354 314.532 62.558 314.796 62.81C315.06 63.05 315.264 63.308 315.408 63.584H315.66V58.4H317.082V71H315.696V69.542H315.444C315.204 69.986 314.832 70.382 314.328 70.73C313.824 71.078 313.116 71.252 312.204 71.252ZM312.582 69.992C313.494 69.992 314.232 69.704 314.796 69.128C315.372 68.54 315.66 67.724 315.66 66.68V66.518C315.66 65.474 315.372 64.664 314.796 64.088C314.232 63.5 313.494 63.206 312.582 63.206C311.682 63.206 310.938 63.5 310.35 64.088C309.774 64.664 309.486 65.474 309.486 66.518V66.68C309.486 67.724 309.774 68.54 310.35 69.128C310.938 69.704 311.682 69.992 312.582 69.992ZM320.836 71.252C320.488 71.252 320.194 71.138 319.954 70.91C319.726 70.682 319.612 70.388 319.612 70.028C319.612 69.668 319.726 69.374 319.954 69.146C320.194 68.918 320.488 68.804 320.836 68.804C321.196 68.804 321.49 68.918 321.718 69.146C321.946 69.374 322.06 69.668 322.06 70.028C322.06 70.388 321.946 70.682 321.718 70.91C321.49 71.138 321.196 71.252 320.836 71.252Z" fill="white"/>
<path d="M365.44 71V58.4H370.264C371.02 58.4 371.692 58.55 372.28 58.85C372.88 59.138 373.354 59.552 373.702 60.092C374.05 60.632 374.224 61.286 374.224 62.054V62.288C374.224 63.044 374.044 63.698 373.684 64.25C373.336 64.79 372.862 65.204 372.262 65.492C371.662 65.78 370.996 65.924 370.264 65.924H366.952V71H365.44ZM366.952 64.556H370.102C370.906 64.556 371.542 64.358 372.01 63.962C372.478 63.554 372.712 62.984 372.712 62.252V62.072C372.712 61.34 372.478 60.776 372.01 60.38C371.554 59.972 370.918 59.768 370.102 59.768H366.952V64.556ZM376.305 71V62.198H377.691V63.278H377.943C378.099 62.894 378.339 62.612 378.663 62.432C378.987 62.252 379.413 62.162 379.941 62.162H380.985V63.458H379.851C379.215 63.458 378.699 63.638 378.303 63.998C377.919 64.346 377.727 64.892 377.727 65.636V71H376.305ZM383.09 71V62.198H384.512V71H383.09ZM383.81 60.83C383.498 60.83 383.234 60.728 383.018 60.524C382.814 60.32 382.712 60.062 382.712 59.75C382.712 59.426 382.814 59.162 383.018 58.958C383.234 58.754 383.498 58.652 383.81 58.652C384.122 58.652 384.38 58.754 384.584 58.958C384.788 59.162 384.89 59.426 384.89 59.75C384.89 60.062 384.788 60.32 384.584 60.524C384.38 60.728 384.122 60.83 383.81 60.83ZM389.734 71L386.584 62.198H388.096L390.742 69.938H390.994L393.64 62.198H395.152L392.002 71H389.734ZM399.624 71.252C399.012 71.252 398.454 71.144 397.95 70.928C397.446 70.712 397.05 70.4 396.762 69.992C396.474 69.584 396.33 69.086 396.33 68.498C396.33 67.898 396.474 67.406 396.762 67.022C397.05 66.626 397.446 66.332 397.95 66.14C398.454 65.936 399.018 65.834 399.642 65.834H402.612V65.186C402.612 64.562 402.426 64.07 402.054 63.71C401.694 63.35 401.154 63.17 400.434 63.17C399.726 63.17 399.174 63.344 398.778 63.692C398.382 64.028 398.112 64.484 397.968 65.06L396.636 64.628C396.78 64.136 397.008 63.692 397.32 63.296C397.632 62.888 398.046 62.564 398.562 62.324C399.09 62.072 399.72 61.946 400.452 61.946C401.58 61.946 402.456 62.24 403.08 62.828C403.704 63.404 404.016 64.22 404.016 65.276V69.254C404.016 69.614 404.184 69.794 404.52 69.794H405.33V71H404.088C403.692 71 403.374 70.892 403.134 70.676C402.894 70.448 402.774 70.148 402.774 69.776V69.686H402.558C402.426 69.914 402.246 70.154 402.018 70.406C401.802 70.646 401.502 70.844 401.118 71C400.734 71.168 400.236 71.252 399.624 71.252ZM399.786 70.028C400.626 70.028 401.304 69.782 401.82 69.29C402.348 68.786 402.612 68.084 402.612 67.184V66.986H399.696C399.132 66.986 398.664 67.112 398.292 67.364C397.932 67.604 397.752 67.97 397.752 68.462C397.752 68.954 397.938 69.338 398.31 69.614C398.694 69.89 399.186 70.028 399.786 70.028ZM411.081 71.252C410.229 71.252 409.461 71.072 408.777 70.712C408.105 70.34 407.571 69.812 407.175 69.128C406.791 68.444 406.599 67.634 406.599 66.698V66.5C406.599 65.552 406.791 64.742 407.175 64.07C407.571 63.386 408.105 62.864 408.777 62.504C409.461 62.132 410.229 61.946 411.081 61.946C411.921 61.946 412.635 62.102 413.223 62.414C413.823 62.726 414.291 63.14 414.627 63.656C414.975 64.172 415.197 64.724 415.293 65.312L413.907 65.6C413.847 65.168 413.703 64.772 413.475 64.412C413.259 64.052 412.953 63.764 412.557 63.548C412.161 63.332 411.675 63.224 411.099 63.224C410.511 63.224 409.983 63.356 409.515 63.62C409.059 63.884 408.693 64.262 408.417 64.754C408.153 65.246 408.021 65.834 408.021 66.518V66.68C408.021 67.364 408.153 67.952 408.417 68.444C408.693 68.936 409.059 69.314 409.515 69.578C409.983 69.842 410.511 69.974 411.099 69.974C411.975 69.974 412.641 69.746 413.097 69.29C413.565 68.834 413.853 68.27 413.961 67.598L415.365 67.904C415.233 68.48 414.993 69.026 414.645 69.542C414.297 70.058 413.823 70.472 413.223 70.784C412.635 71.096 411.921 71.252 411.081 71.252ZM418.851 74.6V73.34H423.891C424.239 73.34 424.413 73.16 424.413 72.8V69.596H424.161C424.041 69.848 423.855 70.1 423.603 70.352C423.363 70.592 423.045 70.79 422.649 70.946C422.253 71.09 421.755 71.162 421.155 71.162C420.519 71.162 419.931 71.024 419.391 70.748C418.863 70.472 418.443 70.064 418.131 69.524C417.831 68.984 417.681 68.324 417.681 67.544V62.198H419.103V67.436C419.103 68.3 419.319 68.93 419.751 69.326C420.195 69.722 420.789 69.92 421.533 69.92C422.373 69.92 423.063 69.644 423.603 69.092C424.143 68.54 424.413 67.718 424.413 66.626V62.198H425.835V73.052C425.835 73.532 425.697 73.91 425.421 74.186C425.157 74.462 424.767 74.6 424.251 74.6H418.851ZM433.379 71V58.4H438.203C438.959 58.4 439.631 58.55 440.219 58.85C440.819 59.138 441.293 59.552 441.641 60.092C441.989 60.632 442.163 61.286 442.163 62.054V62.288C442.163 63.044 441.983 63.698 441.623 64.25C441.275 64.79 440.801 65.204 440.201 65.492C439.601 65.78 438.935 65.924 438.203 65.924H434.891V71H433.379ZM434.891 64.556H438.041C438.845 64.556 439.481 64.358 439.949 63.962C440.417 63.554 440.651 62.984 440.651 62.252V62.072C440.651 61.34 440.417 60.776 439.949 60.38C439.493 59.972 438.857 59.768 438.041 59.768H434.891V64.556ZM448.031 71.252C447.143 71.252 446.357 71.066 445.673 70.694C445.001 70.322 444.473 69.8 444.089 69.128C443.717 68.444 443.531 67.64 443.531 66.716V66.482C443.531 65.57 443.717 64.772 444.089 64.088C444.473 63.404 445.001 62.876 445.673 62.504C446.357 62.132 447.143 61.946 448.031 61.946C448.919 61.946 449.699 62.132 450.371 62.504C451.055 62.876 451.583 63.404 451.955 64.088C452.339 64.772 452.531 65.57 452.531 66.482V66.716C452.531 67.64 452.339 68.444 451.955 69.128C451.583 69.8 451.055 70.322 450.371 70.694C449.699 71.066 448.919 71.252 448.031 71.252ZM448.031 69.974C448.967 69.974 449.711 69.68 450.263 69.092C450.827 68.492 451.109 67.688 451.109 66.68V66.518C451.109 65.51 450.827 64.712 450.263 64.124C449.711 63.524 448.967 63.224 448.031 63.224C447.107 63.224 446.363 63.524 445.799 64.124C445.235 64.712 444.953 65.51 444.953 66.518V66.68C444.953 67.688 445.235 68.492 445.799 69.092C446.363 69.68 447.107 69.974 448.031 69.974ZM455.09 71V58.4H456.512V71H455.09ZM459.502 71V62.198H460.924V71H459.502ZM460.222 60.83C459.91 60.83 459.646 60.728 459.43 60.524C459.226 60.32 459.124 60.062 459.124 59.75C459.124 59.426 459.226 59.162 459.43 58.958C459.646 58.754 459.91 58.652 460.222 58.652C460.534 58.652 460.792 58.754 460.996 58.958C461.2 59.162 461.302 59.426 461.302 59.75C461.302 60.062 461.2 60.32 460.996 60.524C460.792 60.728 460.534 60.83 460.222 60.83ZM467.964 71.252C467.112 71.252 466.344 71.072 465.66 70.712C464.988 70.34 464.454 69.812 464.058 69.128C463.674 68.444 463.482 67.634 463.482 66.698V66.5C463.482 65.552 463.674 64.742 464.058 64.07C464.454 63.386 464.988 62.864 465.66 62.504C466.344 62.132 467.112 61.946 467.964 61.946C468.804 61.946 469.518 62.102 470.106 62.414C470.706 62.726 471.174 63.14 471.51 63.656C471.858 64.172 472.08 64.724 472.176 65.312L470.79 65.6C470.73 65.168 470.586 64.772 470.358 64.412C470.142 64.052 469.836 63.764 469.44 63.548C469.044 63.332 468.558 63.224 467.982 63.224C467.394 63.224 466.866 63.356 466.398 63.62C465.942 63.884 465.576 64.262 465.3 64.754C465.036 65.246 464.904 65.834 464.904 66.518V66.68C464.904 67.364 465.036 67.952 465.3 68.444C465.576 68.936 465.942 69.314 466.398 69.578C466.866 69.842 467.394 69.974 467.982 69.974C468.858 69.974 469.524 69.746 469.98 69.29C470.448 68.834 470.736 68.27 470.844 67.598L472.248 67.904C472.116 68.48 471.876 69.026 471.528 69.542C471.18 70.058 470.706 70.472 470.106 70.784C469.518 71.096 468.804 71.252 467.964 71.252ZM475.734 74.6V73.34H480.774C481.122 73.34 481.296 73.16 481.296 72.8V69.596H481.044C480.924 69.848 480.738 70.1 480.486 70.352C480.246 70.592 479.928 70.79 479.532 70.946C479.136 71.09 478.638 71.162 478.038 71.162C477.402 71.162 476.814 71.024 476.274 70.748C475.746 70.472 475.326 70.064 475.014 69.524C474.714 68.984 474.564 68.324 474.564 67.544V62.198H475.986V67.436C475.986 68.3 476.202 68.93 476.634 69.326C477.078 69.722 477.672 69.92 478.416 69.92C479.256 69.92 479.946 69.644 480.486 69.092C481.026 68.54 481.296 67.718 481.296 66.626V62.198H482.718V73.052C482.718 73.532 482.58 73.91 482.304 74.186C482.04 74.462 481.65 74.6 481.134 74.6H475.734Z" fill="white"/>
<path d="M364 73.25H484.194V74.15H364V73.25Z" fill="white"/>
</svg>
